<svg xmlns="http://www.w3.org/2000/svg" viewBox="0 0 108 108"><defs><style>.a{fill:#fff;}.b{fill:#484848;}.c{fill:#707070;}.d{fill:#eee;}.e{fill:#ffb602;}.f{fill:#f94f5e;}.g{fill:#98c21f;}.h{fill:#ff854f;}.i{fill:#fcb415;}.j{fill:#281b03;}</style></defs><title>leukedingen-images</title><circle class="a" cx="54" cy="54" r="36"/><path class="b" d="M90.1,45.1H90.1l-0.2-.2L81.8,29.2V29.1l-0.2-.3h0c-2.6-3.9-8.7-6-13.6-5.2a12.4,12.4,0,0,0-7.8,4.4L40.9,30.7a12.4,12.4,0,0,0-8.7-2c-4.9.7-10.2,4.4-11.6,8.9h0v0.6L17.1,55.4v0.3h0a12.5,12.5,0,0,0,24.2,5.9h0L44,51.5l19-2.8,5.6,8.9h0A12.5,12.5,0,1,0,90.1,45.1Z"/><circle class="c" cx="33.9" cy="42" r="10.6" transform="translate(-5.7 5.3) rotate(-8.3)"/><circle class="c" cx="71.8" cy="36.5" r="10.6" transform="translate(-4.5 10.7) rotate(-8.3)"/><path class="d" d="M38.3,39.8l-3.7.5-0.5-3.7a0.4,0.4,0,0,0-.5-0.4l-1,.2a0.4,0.4,0,0,0-.4.5l0.5,3.7-3.7.5a0.4,0.4,0,0,0-.4.5l0.2,1a0.4,0.4,0,0,0,.5.4l3.7-.5,0.5,3.7a0.4,0.4,0,0,0,.5.4l1-.2a0.4,0.4,0,0,0,.4-0.5l-0.5-3.7,3.7-.5a0.4,0.4,0,0,0,.4-0.5l-0.2-1A0.4,0.4,0,0,0,38.3,39.8Z"/><circle class="d" cx="50.2" cy="40.8" r="2.5" transform="translate(-5.4 7.6) rotate(-8.3)"/><circle class="d" cx="57.7" cy="39.7" r="2.5" transform="translate(-5.1 8.7) rotate(-8.3)"/><circle class="e" cx="70.6" cy="30.4" r="2.5" transform="translate(-3.6 10.5) rotate(-8.3)"/><circle class="f" cx="66.2" cy="37.3" r="2.5" transform="translate(-4.7 9.9) rotate(-8.3)"/><circle class="g" cx="76.7" cy="35.8" r="2.5" transform="translate(-4.4 11.4) rotate(-8.3)"/><circle class="h" cx="72.2" cy="41.5" r="2.5" transform="translate(-5.2 10.8) rotate(-8.3)"/><rect class="i" x="14.2" y="82.7" width="79.8" height="18.62" rx="6" ry="6"/><path class="j" d="M30.2,89.6H27.8v6.5h-1V89.6H24.5V88.8h5.7v0.8Z"/><path class="j" d="M31.1,89.3a0.6,0.6,0,0,1,.1-0.4l0.4-.2,0.4,0.2a0.5,0.5,0,0,1,.1.4,0.5,0.5,0,0,1-.1.4l-0.4.2-0.4-.2A0.5,0.5,0,0,1,31.1,89.3Zm1,6.9H31.2V90.7h0.9v5.4Z"/><path class="j" d="M35.8,96.3a2.4,2.4,0,0,1-1.8-.7,2.7,2.7,0,0,1-.7-1.9V93.4a3.3,3.3,0,0,1,.3-1.4,2.4,2.4,0,0,1,.9-1,2.2,2.2,0,0,1,1.2-.4,2,2,0,0,1,1.6.7,3,3,0,0,1,.6,2v0.4H34.3a1.9,1.9,0,0,0,.5,1.3,1.5,1.5,0,0,0,1.1.5l0.8-.2,0.6-.5,0.6,0.4A2.3,2.3,0,0,1,35.8,96.3Zm-0.1-4.9a1.2,1.2,0,0,0-.9.4,2,2,0,0,0-.5,1.1H37a1.8,1.8,0,0,0-.4-1.1A1.2,1.2,0,0,0,35.7,91.4Z"/><path class="j" d="M39.9,90.7v0.7a2,2,0,0,1,1.6-.8q1.7,0,1.7,1.9v3.6H42.4V92.6a1.3,1.3,0,0,0-.3-0.9,1.1,1.1,0,0,0-.8-0.3l-0.8.2a1.6,1.6,0,0,0-.5.6v3.9H39V90.7h0.9Z"/><path class="j" d="M47,96.3a2.4,2.4,0,0,1-1.8-.7,2.7,2.7,0,0,1-.7-1.9V93.4a3.3,3.3,0,0,1,.3-1.4,2.4,2.4,0,0,1,.9-1,2.2,2.2,0,0,1,1.2-.4,2,2,0,0,1,1.6.7,3,3,0,0,1,.6,2v0.4H45.4a1.9,1.9,0,0,0,.5,1.3,1.5,1.5,0,0,0,1.1.5l0.8-.2,0.6-.5L49,95.2A2.3,2.3,0,0,1,47,96.3Zm-0.1-4.9a1.2,1.2,0,0,0-.9.4,2,2,0,0,0-.5,1.1h2.7a1.8,1.8,0,0,0-.4-1.1A1.2,1.2,0,0,0,46.9,91.4Z"/><path class="j" d="M52.8,91.6H52.3a1.2,1.2,0,0,0-1.2.8v3.9H50.2V90.7h0.9v0.6a1.4,1.4,0,0,1,1.3-.7h0.4v0.9Z"/><path class="j" d="M54.7,96.2H53.7V88.4h0.9v7.7Z"/><path class="j" d="M55.9,93.4a3.2,3.2,0,0,1,.3-1.4,2.3,2.3,0,0,1,.9-1,2.4,2.4,0,0,1,1.3-.3,2.3,2.3,0,0,1,1.8.8,3,3,0,0,1,.7,2h0a3.2,3.2,0,0,1-.3,1.4,2.3,2.3,0,0,1-.9,1,2.4,2.4,0,0,1-1.3.4,2.3,2.3,0,0,1-1.8-.8,2.9,2.9,0,0,1-.7-2h0Zm0.9,0.1a2.3,2.3,0,0,0,.4,1.5,1.4,1.4,0,0,0,2.2,0,2.5,2.5,0,0,0,.4-1.6,2.3,2.3,0,0,0-.4-1.5,1.4,1.4,0,0,0-1.1-.6,1.3,1.3,0,0,0-1.1.5A2.5,2.5,0,0,0,56.8,93.5Z"/><path class="j" d="M65.4,95.6a2,2,0,0,1-1.6.6,1.7,1.7,0,0,1-1.3-.5,2.2,2.2,0,0,1-.5-1.5V90.7h0.9v3.5a1,1,0,0,0,1,1.2,1.4,1.4,0,0,0,1.4-.8v-4h0.9v5.4H65.4V95.6Z"/><path class="j" d="M68.6,90.7v0.7a2,2,0,0,1,1.6-.8q1.7,0,1.7,1.9v3.6H71V92.6a1.3,1.3,0,0,0-.3-0.9,1.1,1.1,0,0,0-.8-0.3l-0.8.2a1.6,1.6,0,0,0-.5.6v3.9H67.7V90.7h0.9Z"/><path class="j" d="M73.1,93.4a3.2,3.2,0,0,1,.6-2,2,2,0,0,1,3.1,0V90.7h0.8V96a2.2,2.2,0,0,1-.6,1.7,2.3,2.3,0,0,1-1.7.6L74.3,98a2,2,0,0,1-.9-0.7l0.5-.6a1.8,1.8,0,0,0,1.5.7,1.4,1.4,0,0,0,1.1-.4,1.5,1.5,0,0,0,.4-1.1V95.6a1.9,1.9,0,0,1-1.5.6,1.9,1.9,0,0,1-1.5-.8A3.4,3.4,0,0,1,73.1,93.4Zm0.9,0.1a2.4,2.4,0,0,0,.4,1.4,1.2,1.2,0,0,0,1.1.5,1.4,1.4,0,0,0,1.3-.8V92.2a1.4,1.4,0,0,0-1.3-.8,1.2,1.2,0,0,0-1.1.5A2.7,2.7,0,0,0,74.1,93.5Z"/><path class="j" d="M81.4,96.3a2.4,2.4,0,0,1-1.8-.7,2.7,2.7,0,0,1-.7-1.9V93.4a3.3,3.3,0,0,1,.3-1.4,2.4,2.4,0,0,1,.9-1,2.2,2.2,0,0,1,1.2-.4,2,2,0,0,1,1.6.7,3,3,0,0,1,.6,2v0.4H79.8a1.9,1.9,0,0,0,.5,1.3,1.5,1.5,0,0,0,1.1.5l0.8-.2,0.6-.5,0.6,0.4A2.3,2.3,0,0,1,81.4,96.3Zm-0.1-4.9a1.2,1.2,0,0,0-.9.4,2,2,0,0,0-.5,1.1h2.7a1.8,1.8,0,0,0-.4-1.1A1.2,1.2,0,0,0,81.3,91.4Z"/></svg>