<svg xmlns="http://www.w3.org/2000/svg" viewBox="0 0 108 108"><defs><style>.a{fill:#fff;}.b{fill:#e9f3ee;}.c{fill:#98c21f;}.d{fill:#627708;}.e{fill:#7c9913;}.f{fill:#a9c449;}.g{fill:#fcb415;}.h{fill:#281b03;}</style></defs><title>leukedingen-images</title><circle class="a" cx="54" cy="54" r="36"/><path class="b" d="M25.5,21.8s29-4.6,29,6H48.7Z"/><path class="b" d="M83.5,21.8s-29-4.6-29,6h5.8Z"/><path class="c" d="M48.7,27.8a16.7,16.7,0,0,0,10.9,0V71.9a10,10,0,0,1-10.9,0V27.8Z"/><path class="d" d="M59.5,27.8H48.7A16.7,16.7,0,0,0,59.5,27.8Z"/><path class="e" d="M48.7,29.7s5.5,2.5,10.9,0v5.4s-4.7,3.8-10.9,0V29.7Z"/><path class="e" d="M48.7,64s5.5,2.5,10.9,0v5.4s-4.7,3.8-10.9,0V64Z"/><polygon class="f" points="23.7 21.3 23.7 61.7 48.7 71.9 48.7 27.8 23.7 21.3"/><path class="e" d="M47.9,70.2L24.5,60.6V23.1h0.3l23.1,6V70.2ZM25,60.3l22.4,9.1V29.6L25,23.8V60.3Z"/><polygon class="f" points="84.5 21.3 84.5 61.7 59.5 71.9 59.5 27.8 84.5 21.3"/><path class="e" d="M60.3,29.2l23.1-6h0.3V60.6L60.3,70.2V29.2Zm22.9-5.5L60.8,29.6V69.4l22.4-9.1V23.8Z"/><rect class="g" x="14" y="82.7" width="79.8" height="18.62" rx="5" ry="5"/><path class="h" d="M21,93.2l-0.8.8v2.2H19.3V89.8h0.8v3.2L23,89.8h1l-2.5,2.8,2.7,3.6h-1Z"/><path class="h" d="M24.9,90.1a0.5,0.5,0,0,1,.1-0.3h0.7a0.5,0.5,0,0,1,.1.3,0.5,0.5,0,0,1-.1.3H25A0.5,0.5,0,0,1,24.9,90.1Zm0.9,6H24.9V91.4h0.8v4.8Z"/><path class="h" d="M27.8,91.4V92a1.7,1.7,0,0,1,1.4-.7A1.4,1.4,0,0,1,30.8,93v3.1H30V93a1.1,1.1,0,0,0-.2-0.8A0.9,0.9,0,0,0,29,92l-0.7.2-0.5.6v3.4H27V91.4h0.8Z"/><path class="h" d="M31.8,93.7a2.8,2.8,0,0,1,.5-1.8,1.8,1.8,0,0,1,2.7-.1V89.4h0.8v6.8H35.1V95.7a1.7,1.7,0,0,1-1.4.6,1.6,1.6,0,0,1-1.3-.7,2.8,2.8,0,0,1-.5-1.8h0Zm0.8,0.1a2.1,2.1,0,0,0,.3,1.3,1.1,1.1,0,0,0,.9.5,1.2,1.2,0,0,0,1.1-.7V92.7a1.2,1.2,0,0,0-1.1-.7,1.1,1.1,0,0,0-.9.5A2.3,2.3,0,0,0,32.6,93.8Z"/><path class="h" d="M39.1,96.2a2.1,2.1,0,0,1-1.6-.6,2.4,2.4,0,0,1-.6-1.7h0a2.9,2.9,0,0,1,.3-1.3,2.1,2.1,0,0,1,.8-0.9,1.9,1.9,0,0,1,1.1-.3,1.8,1.8,0,0,1,1.4.6,2.6,2.6,0,0,1,.5,1.8V94H37.7a1.7,1.7,0,0,0,.4,1.1,1.3,1.3,0,0,0,1,.4l0.7-.2,0.5-.5,0.5,0.4A2,2,0,0,1,39.1,96.2ZM39,92a1.1,1.1,0,0,0-.8.4,1.7,1.7,0,0,0-.4,1h2.4a1.5,1.5,0,0,0-.3-1A1,1,0,0,0,39,92Z"/><path class="h" d="M44.2,92.1H43.8a1.1,1.1,0,0,0-1.1.7v3.4H41.9V91.4h0.8V92a1.3,1.3,0,0,1,1.1-.6h0.4v0.8Z"/><path class="h" d="M48.9,93.8a2.8,2.8,0,0,1-.5,1.8,1.6,1.6,0,0,1-1.3.7,1.7,1.7,0,0,1-1.4-.6v0.5H44.9V89.4h0.8v2.5a1.7,1.7,0,0,1,1.4-.6,1.6,1.6,0,0,1,1.4.7,2.9,2.9,0,0,1,.5,1.8h0Zm-0.8-.1a2.2,2.2,0,0,0-.3-1.3,1.1,1.1,0,0,0-.9-0.5,1.2,1.2,0,0,0-1.2.7v2.1a1.2,1.2,0,0,0,1.2.7,1.1,1.1,0,0,0,.9-0.5A2.3,2.3,0,0,0,48.1,93.7Z"/><path class="h" d="M50,90.1a0.5,0.5,0,0,1,.1-0.3h0.7a0.5,0.5,0,0,1,.1.3,0.5,0.5,0,0,1-.1.3H50.1A0.5,0.5,0,0,1,50,90.1Zm0.9,6H50V91.4h0.8v4.8Z"/><path class="h" d="M56.2,93.8a2.8,2.8,0,0,1-.5,1.8,1.6,1.6,0,0,1-1.3.7,1.7,1.7,0,0,1-1.4-.6v0.5H52.1V89.4h0.8v2.5a1.7,1.7,0,0,1,1.4-.6,1.6,1.6,0,0,1,1.4.7,2.9,2.9,0,0,1,.5,1.8h0Zm-0.8-.1a2.2,2.2,0,0,0-.3-1.3,1.1,1.1,0,0,0-.9-0.5,1.2,1.2,0,0,0-1.2.7v2.1a1.2,1.2,0,0,0,1.2.7,1.1,1.1,0,0,0,.9-0.5A2.3,2.3,0,0,0,55.3,93.7Z"/><path class="h" d="M58.1,96.2H57.3V89.4h0.8v6.8Z"/><path class="h" d="M59.4,90.1a0.5,0.5,0,0,1,.1-0.3h0.7a0.5,0.5,0,0,1,.1.3,0.5,0.5,0,0,1-.1.3H59.5A0.5,0.5,0,0,1,59.4,90.1Zm0.9,6H59.4V91.4h0.8v4.8Z"/><path class="h" d="M61.3,93.7a2.8,2.8,0,0,1,.3-1.3,2,2,0,0,1,.8-0.9,2.1,2.1,0,0,1,1.1-.3,2,2,0,0,1,1.6.7,2.6,2.6,0,0,1,.6,1.8h0a2.8,2.8,0,0,1-.3,1.2,2,2,0,0,1-.8.9,2.1,2.1,0,0,1-1.1.3,2,2,0,0,1-1.6-.7,2.6,2.6,0,0,1-.6-1.8h0Zm0.8,0.1a2,2,0,0,0,.4,1.3,1.2,1.2,0,0,0,2,0,2.2,2.2,0,0,0,.4-1.4,2,2,0,0,0-.4-1.3,1.2,1.2,0,0,0-1-.5,1.2,1.2,0,0,0-1,.5A2.2,2.2,0,0,0,62.2,93.8Z"/><path class="h" d="M67.8,90.3v1.2h0.9V92H67.8v3a0.7,0.7,0,0,0,.1.4h0.8v0.7H68.1a1,1,0,0,1-.8-0.3A1.4,1.4,0,0,1,67,95V92H66.1V91.4H67V90.3h0.8Z"/><path class="h" d="M70.4,92a1.7,1.7,0,0,1,1.4-.7A1.4,1.4,0,0,1,73.4,93v3.1H72.5V93a1.1,1.1,0,0,0-.2-0.8,0.9,0.9,0,0,0-.7-0.2l-0.7.2-0.5.6v3.4H69.6V89.4h0.8V92Z"/><path class="h" d="M76.6,96.2a2.1,2.1,0,0,1-1.6-.6,2.4,2.4,0,0,1-.6-1.7h0a2.9,2.9,0,0,1,.3-1.3,2.1,2.1,0,0,1,.8-0.9,1.9,1.9,0,0,1,1.1-.3,1.8,1.8,0,0,1,1.4.6,2.6,2.6,0,0,1,.5,1.8V94H75.2a1.7,1.7,0,0,0,.4,1.1,1.3,1.3,0,0,0,1,.4l0.7-.2,0.5-.5,0.5,0.4A2,2,0,0,1,76.6,96.2ZM76.5,92a1.1,1.1,0,0,0-.8.4,1.7,1.7,0,0,0-.4,1h2.4a1.5,1.5,0,0,0-.3-1A1,1,0,0,0,76.5,92Z"/><path class="h" d="M81.3,96.2a2.1,2.1,0,0,1-1.6-.6,2.4,2.4,0,0,1-.6-1.7h0a2.9,2.9,0,0,1,.3-1.3,2.1,2.1,0,0,1,.8-0.9,1.9,1.9,0,0,1,1.1-.3,1.8,1.8,0,0,1,1.4.6,2.6,2.6,0,0,1,.5,1.8V94H80a1.7,1.7,0,0,0,.4,1.1,1.3,1.3,0,0,0,1,.4l0.7-.2,0.5-.5,0.5,0.4A2,2,0,0,1,81.3,96.2ZM81.2,92a1.1,1.1,0,0,0-.8.4,1.7,1.7,0,0,0-.4,1h2.4a1.5,1.5,0,0,0-.3-1A1,1,0,0,0,81.2,92Z"/><path class="h" d="M85.4,94l-0.5.5v1.7H84.1V89.4h0.8v4.1l0.4-.5,1.5-1.6h1l-1.9,2,2.1,2.8h-1Z"/></svg>