<svg xmlns="http://www.w3.org/2000/svg" viewBox="0 0 108 108"><defs><style>.a{fill:#fff;}.b{fill:#111;}.c{fill:#fcb415;}.d{fill:#281b03;}</style></defs><title>leukedingen-images</title><circle class="a" cx="53.2" cy="54" r="36"/><path class="a" d="M76.4,17.6l-5.1,7.2,15,1.2,2.1-3.6L89,20.6l0.2-2.1-0.5-.4L86.2,18,78,17.3H76.6v0.3Z"/><polygon class="a" points="68.3 36.7 72 37.8 82.2 41.5 83.3 45.9 83 47.8 82.2 49.8 77.2 49.3 70.9 46.6 68 38.8 68.3 36.7"/><polygon class="a" points="31.9 16.9 30.7 19.6 30.5 21.8 31.5 22.1 33.6 22.3 39.2 16.1 39.4 14.5 34.3 14.2 32.8 15.2 32.5 16.6 31.9 16.9"/><polygon class="a" points="30.3 23.1 30.1 23.2 29.4 25.3 30.9 33 34.9 33.3 35.8 33.4 34.7 25.8 32.8 23.7 30.3 23.1"/><polygon class="a" points="43 35.8 40.5 26.9 36.8 25.6 39.3 34.4 43 35.8"/><polygon class="a" points="51.1 38.7 48.7 29.8 44.9 28.5 47.4 37.3 51.1 38.7"/><polygon class="a" points="67.4 44.5 64.9 35.6 61.2 34.3 63.7 43.1 67.4 44.5"/><polygon class="a" points="59.2 41.6 56.8 32.7 53.1 31.4 55.5 40.2 59.2 41.6"/><polygon class="a" points="50.1 23.2 56.1 16.1 52.2 15.8 46.2 22.9 50.1 23.2"/><polygon class="a" points="67.4 24.4 73.4 17.4 69.4 17.1 63.5 24.1 67.4 24.4"/><polygon class="a" points="41.5 22.6 47.5 15.5 43.5 15.2 37.6 22.3 41.5 22.6"/><polygon class="a" points="58.8 23.8 64.7 16.7 60.8 16.4 54.8 23.5 58.8 23.8"/><path class="b" d="M30.7,19.6l4.2-5,4,0.3-6,7.1-2.4-.2v0.8h0l58,4.2L89,20.6l-4.3,5.1-4-.3,6-7.1,2.5,0.2V17.8l-58-4.2ZM82,18l-6,7.1-4-.3,6-7.1Zm-8.6-.6-5.9,7.1-3.9-.3,6-7.1Zm-8.6-.6-6,7.1-3.9-.3,6-7.1Zm-8.6-.6-6,7.1-3.9-.3,5.9-7.1Zm-8.6-.6-6,7.1-3.9-.3,6-7.1Z"/><path class="b" d="M30.4,22.5h0l-0.3.7L32.4,24l2.5,8.8-3.7-1.3-1.7-6.2L18.3,56.4,72.9,75.9l9.3-26.2-2.3-.8-2.5-8.8,3.7,1.3L83,47.8,85,42,30.4,22.5h0ZM73,38.5l2.5,8.9-3.7-1.3-2.5-8.9Zm-8.1-2.9,2.5,8.9-3.7-1.3-2.5-8.8Zm-8.1-2.9,2.5,8.8-3.7-1.3-2.5-8.9Zm-8.1-2.9,2.5,8.8-3.7-1.3-2.5-8.8Zm-8.1-2.9L43,35.8l-3.7-1.3-2.5-8.8Z"/><polygon class="b" points="30.4 22.5 30.4 22.5 30.4 22.5 30.4 22.5"/><rect class="c" x="14" y="82.7" width="79.8" height="18.62" rx="6" ry="6"/><path class="d" d="M37.2,93.8a2.7,2.7,0,0,1-.9,1.8,2.8,2.8,0,0,1-1.9.6,2.6,2.6,0,0,1-2.1-.9,3.7,3.7,0,0,1-.8-2.5V92.1a4.2,4.2,0,0,1,.4-1.8,2.7,2.7,0,0,1,1-1.2,2.9,2.9,0,0,1,1.5-.4,2.6,2.6,0,0,1,1.9.7,2.7,2.7,0,0,1,.8,1.8h-1a2.1,2.1,0,0,0-.5-1.3,1.6,1.6,0,0,0-1.2-.4,1.7,1.7,0,0,0-1.4.7,3.1,3.1,0,0,0-.5,1.9v0.7a3.2,3.2,0,0,0,.5,1.9,1.6,1.6,0,0,0,1.4.7,1.9,1.9,0,0,0,1.2-.4,2,2,0,0,0,.6-1.3h1Z"/><path class="d" d="M38.4,89.3a0.6,0.6,0,0,1,.1-0.4l0.4-.2,0.4,0.2a0.5,0.5,0,0,1,.1.4,0.5,0.5,0,0,1-.1.4l-0.4.2-0.4-.2A0.5,0.5,0,0,1,38.4,89.3Zm1,6.9H38.5V90.7h0.9v5.4Z"/><path class="d" d="M41.8,90.7v0.7a2,2,0,0,1,1.6-.8q1.7,0,1.7,1.9v3.6H44.3V92.6a1.3,1.3,0,0,0-.3-0.9,1.1,1.1,0,0,0-.8-0.3l-0.8.2a1.6,1.6,0,0,0-.5.6v3.9H40.9V90.7h0.9Z"/><path class="d" d="M50.9,92.8H47.7v2.6h3.7v0.8H46.7V88.8h4.6v0.8H47.7V92h3.2v0.8Z"/><path class="d" d="M53.3,90.7v0.6a2,2,0,0,1,1.6-.7,1.6,1.6,0,0,1,1.6.9l0.7-.6,1-.2A1.7,1.7,0,0,1,60,92.5v3.6H59.1V92.6a1.2,1.2,0,0,0-.3-0.9,1.2,1.2,0,0,0-.9-0.3,1.2,1.2,0,0,0-.9.3,1.3,1.3,0,0,0-.4.8v3.6H55.8V92.6a1,1,0,0,0-1.2-1.2,1.2,1.2,0,0,0-1.3.8v4H52.4V90.7h0.9Z"/><path class="d" d="M62.3,90.7v0.6a2,2,0,0,1,1.6-.7,1.6,1.6,0,0,1,1.6.9l0.7-.6,1-.2a1.7,1.7,0,0,1,1.8,1.9v3.6H68.1V92.6a1.2,1.2,0,0,0-.3-0.9,1.2,1.2,0,0,0-.9-0.3,1.2,1.2,0,0,0-.9.3,1.3,1.3,0,0,0-.4.8v3.6H64.8V92.6a1,1,0,0,0-1.2-1.2,1.2,1.2,0,0,0-1.3.8v4H61.4V90.7h0.9Z"/><path class="d" d="M73.8,96.2a1.9,1.9,0,0,1-.1-0.6,2.1,2.1,0,0,1-1.5.7,1.9,1.9,0,0,1-1.3-.5,1.5,1.5,0,0,1-.5-1.2,1.5,1.5,0,0,1,.6-1.3,3,3,0,0,1,1.8-.5h0.9V92.4a1,1,0,0,0-.3-0.8,1.2,1.2,0,0,0-.9-0.3,1.4,1.4,0,0,0-.8.3,0.7,0.7,0,0,0-.3.6H70.4a1.3,1.3,0,0,1,.3-0.8,2,2,0,0,1,.8-0.6l1.1-.2a2.1,2.1,0,0,1,1.5.5,1.7,1.7,0,0,1,.6,1.3v2.5a3.1,3.1,0,0,0,.2,1.2h-1Zm-1.5-.7,0.8-.2a1.4,1.4,0,0,0,.6-0.6V93.5H72.9q-1.7,0-1.7,1a0.8,0.8,0,0,0,.3.7A1.1,1.1,0,0,0,72.3,95.5Z"/></svg>