<svg xmlns="http://www.w3.org/2000/svg" viewBox="0 0 108 108"><defs><style>.a{fill:#fff;}.b{fill:#d61f2c;}.c{fill:#fcb415;}.d{fill:#281b03;}</style></defs><title>leukedingen-images</title><circle class="a" cx="54" cy="54" r="36"/><ellipse class="b" cx="53.9" cy="48.6" rx="26.9" ry="26.6"/><ellipse class="a" cx="44.3" cy="36.6" rx="4.6" ry="4.6"/><rect class="c" x="14.1" y="82.7" width="79.8" height="18.62" rx="6" ry="6"/><path class="d" d="M34.3,93.8a2.7,2.7,0,0,1-.9,1.8,2.8,2.8,0,0,1-1.9.6,2.6,2.6,0,0,1-2.1-.9,3.7,3.7,0,0,1-.8-2.5V92.1a4.2,4.2,0,0,1,.4-1.8,2.7,2.7,0,0,1,1-1.2,2.9,2.9,0,0,1,1.5-.4,2.6,2.6,0,0,1,1.9.7,2.7,2.7,0,0,1,.8,1.8h-1a2.1,2.1,0,0,0-.5-1.3,1.6,1.6,0,0,0-1.2-.4,1.7,1.7,0,0,0-1.4.7,3.1,3.1,0,0,0-.5,1.9v0.7a3.2,3.2,0,0,0,.5,1.9,1.6,1.6,0,0,0,1.4.7,1.9,1.9,0,0,0,1.2-.4,2,2,0,0,0,.6-1.3h1Z"/><path class="d" d="M36.5,96.2H35.6V88.4h0.9v7.7Z"/><path class="d" d="M38,89.3a0.6,0.6,0,0,1,.1-0.4l0.4-.2L39,88.9a0.5,0.5,0,0,1,.1.4,0.5,0.5,0,0,1-.1.4l-0.4.2-0.4-.2A0.5,0.5,0,0,1,38,89.3Zm1,6.9H38.1V90.7H39v5.4Z"/><path class="d" d="M41.4,90.7v0.7a2,2,0,0,1,1.6-.8q1.7,0,1.7,1.9v3.6H43.8V92.6a1.3,1.3,0,0,0-.3-0.9,1.1,1.1,0,0,0-.8-0.3l-0.8.2a1.6,1.6,0,0,0-.5.6v3.9H40.5V90.7h0.9Z"/><path class="d" d="M46.2,89.3a0.6,0.6,0,0,1,.1-0.4l0.4-.2,0.4,0.2a0.5,0.5,0,0,1,.1.4,0.5,0.5,0,0,1-.1.4l-0.4.2-0.4-.2A0.5,0.5,0,0,1,46.2,89.3Zm1,6.9H46.3V90.7h0.9v5.4Z"/><path class="d" d="M50.9,95.5a1.3,1.3,0,0,0,.9-0.3,1.1,1.1,0,0,0,.4-0.8H53a1.7,1.7,0,0,1-.3.9,2.1,2.1,0,0,1-.8.7l-1,.3a2.2,2.2,0,0,1-1.8-.7,3,3,0,0,1-.7-2V93.3a3.3,3.3,0,0,1,.3-1.4,2.2,2.2,0,0,1,.8-1,2.4,2.4,0,0,1,1.3-.3,2.2,2.2,0,0,1,1.5.5,2,2,0,0,1,.6,1.4H52.1a1.3,1.3,0,0,0-.4-0.9,1.2,1.2,0,0,0-.9-0.3,1.3,1.3,0,0,0-1.1.5,2.4,2.4,0,0,0-.4,1.5v0.2a2.4,2.4,0,0,0,.4,1.4A1.3,1.3,0,0,0,50.9,95.5Z"/><path class="d" d="M55.1,96.2H54.1V88.4h0.9v7.7Z"/><path class="d" d="M56.3,93.4a3.2,3.2,0,0,1,.3-1.4,2.3,2.3,0,0,1,.9-1,2.4,2.4,0,0,1,1.3-.3,2.3,2.3,0,0,1,1.8.8,3,3,0,0,1,.7,2h0a3.2,3.2,0,0,1-.3,1.4,2.3,2.3,0,0,1-.9,1,2.4,2.4,0,0,1-1.3.4,2.3,2.3,0,0,1-1.8-.8,2.9,2.9,0,0,1-.7-2h0Zm0.9,0.1a2.3,2.3,0,0,0,.4,1.5,1.4,1.4,0,0,0,2.2,0,2.5,2.5,0,0,0,.4-1.6,2.3,2.3,0,0,0-.4-1.5,1.4,1.4,0,0,0-1.1-.6,1.3,1.3,0,0,0-1.1.5A2.5,2.5,0,0,0,57.2,93.5Z"/><path class="d" d="M67.2,94.9l1-4.2h0.9l-1.6,5.4H66.9L65.5,92l-1.3,4.1H63.5l-1.6-5.4h0.9l1.1,4.1,1.3-4.1h0.7Z"/><path class="d" d="M71,90.7v0.7a2,2,0,0,1,1.6-.8q1.7,0,1.7,1.9v3.6H73.5V92.6a1.3,1.3,0,0,0-.3-0.9,1.1,1.1,0,0,0-.8-0.3l-0.8.2a1.6,1.6,0,0,0-.5.6v3.9H70.2V90.7H71Z"/><path class="d" d="M79,94.7a0.7,0.7,0,0,0-.3-0.6l-1-.4-1.1-.4L76,92.9a1.2,1.2,0,0,1-.2-0.7,1.4,1.4,0,0,1,.6-1.1,2.2,2.2,0,0,1,1.4-.5,2.3,2.3,0,0,1,1.5.5,1.5,1.5,0,0,1,.6,1.2H78.9a0.8,0.8,0,0,0-.3-0.7,1.2,1.2,0,0,0-.8-0.3l-0.8.2a0.7,0.7,0,0,0-.3.6,0.6,0.6,0,0,0,.3.5l1,0.3,1.1,0.4,0.6,0.5a1.3,1.3,0,0,1,.2.7,1.4,1.4,0,0,1-.6,1.2,2.4,2.4,0,0,1-1.5.4L76.7,96a1.9,1.9,0,0,1-.8-0.6,1.6,1.6,0,0,1-.3-0.9h0.9a1,1,0,0,0,.4.7,1.5,1.5,0,0,0,.9.3l0.8-.2A0.7,0.7,0,0,0,79,94.7Z"/></svg>