<svg xmlns="http://www.w3.org/2000/svg" viewBox="0 0 108 108"><defs><style>.a{fill:#fff;}.b{fill:#5a595c;}.c{fill:#4f4f51;}.d{fill:#ed6732;}.e{fill:#464547;}.f{fill:#68432a;}.g{fill:#fcb415;}.h{fill:#281b03;}</style></defs><title>leukedingen-images</title><circle class="a" cx="54" cy="54" r="36"/><polygon class="b" points="77 26.9 77 26.5 71.1 26.5 71.1 26.9 70.1 26.9 70.1 28 77.9 28 77.9 26.9 77 26.9"/><polygon class="c" points="38 26.9 38 26.6 32.1 26.6 32.1 26.9 31.2 26.9 31.2 27.9 39 27.9 39 26.9 38 26.9"/><path class="d" d="M82.4,28h-56a1.6,1.6,0,0,0-1.6,1.6V70.3a1.6,1.6,0,0,0,1.6,1.6h56A1.6,1.6,0,0,0,84,70.3V29.6A1.6,1.6,0,0,0,82.4,28Z"/><path class="e" d="M60.5,20.3H49.1A7.8,7.8,0,0,0,41.4,28h3.1a4.6,4.6,0,0,1,4.6-4.6H60.5A4.7,4.7,0,0,1,65.1,28h3.1A7.7,7.7,0,0,0,60.5,20.3Z"/><rect class="f" x="30.8" y="28" width="8.2" height="43.93"/><rect class="f" x="70.1" y="28" width="8.2" height="43.93"/><rect class="g" x="14.1" y="82.7" width="79.8" height="18.62" rx="6" ry="6"/><path class="h" d="M34.1,96.2h-1V88.8h1v7.3Z"/><path class="h" d="M36.6,90.7v0.7a2,2,0,0,1,1.6-.8q1.7,0,1.7,1.9v3.6H39V92.6a1.3,1.3,0,0,0-.3-0.9,1.1,1.1,0,0,0-.8-0.3l-0.8.2a1.6,1.6,0,0,0-.5.6v3.9H35.7V90.7h0.9Z"/><path class="h" d="M41.8,96.2V91.4H41V90.7h0.9V90.2a1.9,1.9,0,0,1,.5-1.4,1.8,1.8,0,0,1,1.3-.5h0.6v0.7H43.7a0.9,0.9,0,0,0-.7.3,1.1,1.1,0,0,0-.2.8v0.6h1.2v0.7H42.8v4.7H41.8Z"/><path class="h" d="M44.7,93.4A3.2,3.2,0,0,1,45,92a2.3,2.3,0,0,1,.9-1,2.4,2.4,0,0,1,1.3-.3,2.3,2.3,0,0,1,1.8.8,3,3,0,0,1,.7,2h0a3.2,3.2,0,0,1-.3,1.4,2.3,2.3,0,0,1-.9,1,2.4,2.4,0,0,1-1.3.4,2.3,2.3,0,0,1-1.8-.8,2.9,2.9,0,0,1-.7-2h0Zm0.9,0.1A2.3,2.3,0,0,0,46,95a1.4,1.4,0,0,0,2.2,0,2.5,2.5,0,0,0,.4-1.6,2.3,2.3,0,0,0-.4-1.5,1.4,1.4,0,0,0-1.1-.6,1.3,1.3,0,0,0-1.1.5A2.5,2.5,0,0,0,45.6,93.5Z"/><path class="h" d="M52.1,89.4v1.3h1v0.7h-1v3.4a0.8,0.8,0,0,0,.1.5l0.5,0.2h0.4v0.7H52.4a1.2,1.2,0,0,1-.9-0.4,1.6,1.6,0,0,1-.3-1.1V91.4h-1V90.7h1V89.4h0.9Z"/><path class="h" d="M55.1,91.4a2,2,0,0,1,1.6-.8q1.7,0,1.7,1.9v3.6H57.5V92.6a1.3,1.3,0,0,0-.3-0.9,1.1,1.1,0,0,0-.8-0.3l-0.8.2a1.6,1.6,0,0,0-.5.6v3.9H54.2V88.4h0.9v2.9Z"/><path class="h" d="M62.1,96.3a2.4,2.4,0,0,1-1.8-.7,2.7,2.7,0,0,1-.7-1.9V93.4a3.3,3.3,0,0,1,.3-1.4,2.4,2.4,0,0,1,.9-1,2.2,2.2,0,0,1,1.2-.4,2,2,0,0,1,1.6.7,3,3,0,0,1,.6,2v0.4H60.5A1.9,1.9,0,0,0,61,95a1.5,1.5,0,0,0,1.1.5l0.8-.2,0.6-.5,0.6,0.4A2.3,2.3,0,0,1,62.1,96.3ZM62,91.4a1.2,1.2,0,0,0-.9.4,2,2,0,0,0-.5,1.1h2.7a1.8,1.8,0,0,0-.4-1.1A1.2,1.2,0,0,0,62,91.4Z"/><path class="h" d="M67.5,96.3a2.4,2.4,0,0,1-1.8-.7,2.7,2.7,0,0,1-.7-1.9V93.4a3.3,3.3,0,0,1,.3-1.4,2.4,2.4,0,0,1,.9-1,2.2,2.2,0,0,1,1.2-.4,2,2,0,0,1,1.6.7,3,3,0,0,1,.6,2v0.4H66a1.9,1.9,0,0,0,.5,1.3,1.5,1.5,0,0,0,1.1.5l0.8-.2,0.6-.5,0.6,0.4A2.3,2.3,0,0,1,67.5,96.3Zm-0.1-4.9a1.2,1.2,0,0,0-.9.4,2,2,0,0,0-.5,1.1h2.7a1.8,1.8,0,0,0-.4-1.1A1.2,1.2,0,0,0,67.4,91.4Z"/><path class="h" d="M72.3,93.6l-0.6.6v1.9H70.7V88.4h0.9v4.7l0.5-.6,1.7-1.8H75L72.9,93l2.4,3.2H74.1Z"/></svg>