<svg xmlns="http://www.w3.org/2000/svg" viewBox="0 0 108 108"><defs><style>.a{fill:#fff;}.b{fill:#cecdcc;}.c{fill:#2a2b2a;}.d{opacity:0.67;}.e{opacity:0.6;}.f{fill:#555654;}.g{opacity:0.5;}.h{fill:#efeeee;}.i{fill:#ff854f;}.j{fill:#f2a28d;}.k{fill:#efa88f;}.l{fill:#ea2427;}.m{fill:#f94f5e;}.n{fill:#f28b9c;}.o{fill:#ce4785;}.p{fill:#db75ad;}.q{fill:#fcb415;}.r{fill:#281b03;}</style></defs><title>leukedingen-images</title><circle class="a" cx="54" cy="54" r="36"/><rect class="b" x="20.9" y="22.4" width="69.3" height="44.17"/><rect class="c" x="23" y="24.4" width="65.1" height="40.15"/><g class="d"><g class="e"><path class="f" d="M66,34.4h0Z"/><path class="f" d="M64.7,34.2H64.6v0.2h0Z"/><path class="f" d="M63.5,34.1c0.4,0.3.4,0.3,0.5,0.2s0.1-.2.2-0.1h0.1L64.1,34H63.5Z"/><path class="f" d="M61.2,32.2c0.4,0.4.1,0.2,0.3,0.2H61.2Z"/><path class="f" d="M61.4,32.3h0Z"/><path class="f" d="M60.8,32.1V31.9l-0.6-.5A1.4,1.4,0,0,0,60.8,32.1Z"/><path class="f" d="M61.2,32.7h0C61.1,32.5,61,32.5,61.2,32.7Z"/><path class="f" d="M61.2,32.4v0.2c0.2,0.2.5,0.5,0-.1S61.2,32.6,61.2,32.4Z"/><path class="f" d="M61.4,32.6a1.8,1.8,0,0,1,.6.7C62.3,33.2,61.7,32.7,61.4,32.6Z"/><path class="f" d="M64.2,34.8L64.4,35V34.7C64.4,34.8,64,34.6,64.2,34.8Z"/><path class="f" d="M58.8,31l1,1V31.8Z"/><path class="f" d="M59.9,32l0.2,0.4C60.3,32.5,60.1,32.3,59.9,32Z"/><path class="f" d="M62.3,33.9L62,33.5l-0.2-.3L62,33.5l0.2,0.4h0Z"/><polygon class="f" points="57.8 30.5 57.4 29.9 58 30.8 57.8 30.5"/><path class="f" d="M57.3,30.3L56,28.9a2.2,2.2,0,0,0,.5.9C56.4,29.6,56.6,29.7,57.3,30.3Z"/><path class="f" d="M56.9,30.4l-0.4-.6Z"/><path class="f" d="M59.6,32.1l-0.9-.9,0.8,0.8h0.1Z"/><path class="f" d="M59.5,32.1h0Z"/><path class="f" d="M59.6,32.1h0Z"/><path class="f" d="M61.2,33.2a4.6,4.6,0,0,0,1.2,1.4C62,34.1,61.6,33.8,61.2,33.2Z"/><path class="f" d="M60.6,33.1l0.4,0.2-0.6-.7Z"/><polygon class="f" points="60.7 33.4 60.6 33.1 60.4 33.1 60.7 33.4"/><path class="f" d="M58.2,31.5c0.3,0.4.2,0.4,0.1,0.4l0.6,0.4A4.2,4.2,0,0,0,58.2,31.5Z"/><path class="f" d="M58.9,31.9h0C59,32,59,32,58.9,31.9Z"/><path class="f" d="M57.6,32l0.2,0.2L57.6,32h0Z"/><path class="f" d="M59.1,32.4c0.3,0.2.1,0-.1-0.3H58.9Z"/><path class="f" d="M57,30.7l0.7,0.6Z"/><path class="f" d="M58.7,31.7h0A0.4,0.4,0,1,0,58.7,31.7Z"/><path class="f" d="M58.7,31.7L59,32.1V31.9Z"/><path class="f" d="M63.3,38.6c-0.8-.9-1.5-1.9-0.5-1-0.5-.8-3.4-3.8-5-5.4a10.7,10.7,0,0,1,1.1,1.4,13.5,13.5,0,0,1,1.9,1.9c0.3,0.6-.4-0.2-0.9-0.6,1.1,1.1,1.4,1.8,2.9,3.5l-0.4-.7Z"/><path class="f" d="M58,32.1H57.9l-1.3-1.1,1,1.2h0.2v0.2Z"/><path class="f" d="M58.2,31.9a30.4,30.4,0,0,0,2.2,2.5,5.9,5.9,0,0,0-.9-1.2c-0.1.1-.2,0-0.3-0.3a4.5,4.5,0,0,0-.8-0.9c-0.1-.1,0-0.2,0-0.2l-0.6-.5h0.2l0.3,0.4a0.7,0.7,0,0,1-.3-0.4H57.7v0.5A0.2,0.2,0,0,0,58.2,31.9Z"/><path class="f" d="M63.7,36.2L63.5,36Z"/><path class="f" d="M63.2,35.8c-0.1-.1-0.3-0.4-0.2-0.4L63.5,36a3.2,3.2,0,0,0-.8-0.9h0.1L61.4,34Z"/><path class="f" d="M61.1,34.3v0.5l0.8,0.8-0.4-.5C62,35.2,61.4,34.7,61.1,34.3Z"/><polygon class="f" points="57.1 31.6 56.2 30.5 57.5 32.1 57.1 31.6"/><polygon class="f" points="57.1 31.9 56.3 31 56.7 31.6 57.1 31.9"/><path class="f" d="M56.9,53l0.2,0.3Z"/><path class="f" d="M57.2,52.8l-0.4-.4Z"/><path class="f" d="M52.5,36.2c-0.8-.8-2.1-2.1-1.2-1l0.9,1C52.1,36,52.3,36.1,52.5,36.2Z"/><path class="f" d="M54.7,45.2L55,45.5l-0.8-1Z"/><path class="f" d="M58.5,49.4l-0.7-.6Z"/><path class="f" d="M56.3,55.5l0.9,1A4.7,4.7,0,0,0,56.3,55.5Z"/><path class="f" d="M55.5,34l-0.7-.5C55.4,34.1,56.2,34.9,55.5,34Z"/><path class="f" d="M47,42.5l0.5,0.6Z"/><path class="f" d="M54.7,33.7l0.2,0.2c-0.1-.2-0.2-0.4-0.1-0.4S54.1,32.9,54.7,33.7Z"/><path class="f" d="M49.1,59.4h0Z"/><path class="f" d="M41.9,56.6v0Z"/><path class="f" d="M55.9,32.1h0Z"/><path class="f" d="M59.7,35.9l0.4,0.5Z"/><path class="f" d="M59.9,40.3h0C60.1,40.5,60.1,40.5,59.9,40.3Z"/><path class="f" d="M56.4,32.5l-0.3-.3Z"/><path class="f" d="M56,32.1h0.1C55.9,32,55.8,31.9,56,32.1Z"/><path class="f" d="M55.9,32.2h0.2l-0.2-.2A0.3,0.3,0,0,1,55.9,32.2Z"/><path class="f" d="M50.3,54.9H50.2A0.9,0.9,0,1,0,50.3,54.9Z"/><path class="f" d="M60.9,47.7h0Z"/><path class="f" d="M61.5,48.5c-1.1-1.3-.9-1.2-0.6-1l-2.7-2.9Z"/><path class="f" d="M56.4,53.9l0.9,0.8a11.6,11.6,0,0,0,2,2.3c-3-3.1.1-.7-2.9-3.7l0.7,0.6V54c1.5,1.3-2.1-2.3-1.5-2a5,5,0,0,1,1.1,1l-0.6-.9,0.5,0.5V52.2h0.1l-1.4-1.7a6.3,6.3,0,0,1,.7.7l-0.6-.8a4.2,4.2,0,0,1,1.3,1.6c3,3-.7-0.9,1.3.7l0.3,0.5a18.7,18.7,0,0,0,2.3,2,40.3,40.3,0,0,1-3.5-3.4c0.3,0.2.4,0.3-.1-0.4,1,1.1.8,0.8,0.9,0.6l1.4,1.5c-0.3-.5-1-1.2-1.6-1.9a18.1,18.1,0,0,1,2.2,2.1c0.4,0.1-1.8-1.7-1.9-2.1s0.2-.2-0.5-1.2a14.9,14.9,0,0,1,1.2,1.3l-1-1.2L58.3,51c-0.4-.5-1.4-1.5-1.6-2s2.4,2.2.8,0.2l1.4,1.5c-0.9-1.4-.7-1-2-2.8l1,0.9a28.7,28.7,0,0,1-3.1-3.6L53.5,44,53,43.1l1.2,1.4-0.3-.4a22.6,22.6,0,0,1,2,2.2L55,45.5l2.5,2.8-0.3-.4,0.5,0.6-0.5-.6,1.6,1.6-0.6-.7,1.2,0.8a50.7,50.7,0,0,1-3.9-5.2c1.1,1.3,1.8,2,3.1,3.4-1.5-1.5.4,0.8,0,.6a6.3,6.3,0,0,1,1,1l-1-1.6A6.4,6.4,0,0,0,60,49.2c-2.2-2.3-1.3-1.7-1.8-2.5,0.7,0.8,1.4,1.6,1.1,1.5,1.7,1.6-2.3-2.9-.9-1.5s-0.1-.1.2,0.3,0.1-.3.7,0.4h0c0.4,0.1.6-.5-1.2-2.5l2.5,2.8-5.7-6.9c1.5,1.7,5.3,5.7,6,6.7s0.6,0.4.1-.2l-2.4-2.6,2.6,2.4a30.9,30.9,0,0,1-2.6-3l2.6,2.9L59,44.4l2.7,2.9c-0.5-.5.2-0.1,0-0.4l-0.6-.5c0.6,0.2-3.1-3.8-2.8-3.9a48.2,48.2,0,0,0,3.3,3.6c-1.2-1.4-5.6-6.6-6.4-7.8L56,39l-0.7-1L62,46.3c0.6,0.5.8,0.9,0.9,0.7a3.8,3.8,0,0,1,.9,1.2l0.7,0.2c-1.4-1.6-1.2-1.7-2.4-3l1.2,1.9c-1.4-1.5-3.9-4.6-3.4-4.5s2.5,2.8,3,3.3-0.8-1.2-.4-0.8l0.7,0.9c0.6,0.5-1.7-2.2-.2-0.8s1.9,1.9,1.1,1-6.7-7.2-7.8-8.6l2.6,2.3c1.3,1.3,2.9,3.4,4,4.6l-1-1.2c0.4,0.3,1.2,1.3,1.1,1.1s0.3,0-1.2-1.4,0.4,0.2.4,0.1a44.2,44.2,0,0,1-3.4-4.1l1.1,1.1c0.3,0,1.1.6,1.3,0.5a15.6,15.6,0,0,1,1.4,1.5,5.5,5.5,0,0,1-.7-1c1.3,1.3.1,0.3,1.6,1.9a13.6,13.6,0,0,1-1.4-2c-1.3-1.4-.4-0.1,0,0.5A42.3,42.3,0,0,1,58,36.5c-0.3-.6,1.2,1.2,1,0.9s-2.9-3.6-1.4-2.4,2.3,2.5,3.1,3.4-0.9-.6-0.9-0.5l0.6,0.5c0.3,0.4.5,0.8,0.2,0.5s0.7-.2,1.8.6A11.2,11.2,0,0,0,61.3,38v0.2c-1-.9-1.1-1.5-1.6-1.9s-1.5-2-.8-1.5l1.3,1.4c-0.4-.4-0.9-0.8-0.5-0.3s1.9,1.7.3-.2l-1-.9c-0.6-.8-1.8-2.4-1.3-2.1l-1.5-1.4c1.9,2-.4.2,1.7,2.2-1.8-1.8-.9-0.7-2.5-2.2,0.4,0.5.9,0.9,0.5,0.7l0.4,0.4h0l0.7,0.7a13.3,13.3,0,0,1,1.2,1.8c-0.3-.2-0.5-0.6-0.9-1L58.1,35A17.9,17.9,0,0,1,56,32.7H55.8c-0.6-.5-0.9-0.7-0.6-0.2s0.9,1.3.2,0.4l0.4,0.8-0.2-.3c-0.3,0,1.2,2.1-.7.4,0.2,0.3.4,0.7,0,.5l-0.8-.9c0.2,0.4-1.1-.7-0.2.3-2.3-2.4-.9-0.2-1.4-0.5l1.1,1.2c-0.2,0,.1.4,0.4,1l0.9,1c0.7,0.9-.9-0.5-1-0.2s-0.2-.3,0-0.1c-2.3-2.2,1.1,2.1-.6.5,0.3,0.4.1,0.3-.1,0.1H53.1l-0.6-.5,0.6,0.5a1.2,1.2,0,0,0,.2.5l-1-1.1h0c-0.4-.4.4,0.6,1.2,1.4L54,38.4c-1.7-1.8.4,0.7-1.4-1.1a25.6,25.6,0,0,0,2.1,2.9l-0.3-.4c-0.3-.2-0.5-0.3-0.1.3l-1.3-1.4,1.6,2a17.5,17.5,0,0,1-2.3-2.4c1.3,1.8.4,0.8,1.8,2.6l-0.8-.9c0,0.1,1,1.4.3,0.7s-0.8.3-2.6-1c2.5,2.6-1.3-1.1.6,1A15.5,15.5,0,0,1,50.2,39c0.4,0.8-1.2-.8.3,1.1l-1.2-1.3c0.1,0.1.5,0.6,0.1,0.2l-0.7-.9c-0.1.3,1.7,2.2,3.4,4.1-0.9-.8-0.8-0.6.2,0.6a6.6,6.6,0,0,1-1.3-1.5c-0.1,0-1.2-.6.2,0.9-0.4-.4-0.2,0,0,0.1s-0.3-.1-0.3.2l0.3,0.2c1.6,1.8.3,0.5,0.4,0.8l-0.2-.2c-1.4-1,.5.7-1.1-0.5l1,1.1c2.2,2.4-1.5-1.2-.8-0.2l0.6,0.6c0.7,0.9-3.2-3-3.6-3.2l-0.4-.5c-1.5-1.2,1.3,1.5,1.5,1.9a21.1,21.1,0,0,0-2.1-2c-0.6-.6,2.1,2.8.6,1.4a12.5,12.5,0,0,1,1.5,1.6c0.1,0.3-2.4-2-.7,0l-0.5-.4a12.3,12.3,0,0,0,1.4,2.1c-3.7-3.6,1.3,2.3-2.1-1.2v0.4l-0.3-.4c-0.4-.1.4,0.8,1.1,1.7l-0.7-.7c-0.9-.5-0.8-0.3.7,1.6l-1.1-1.1c0.6,0.7-2-1.4-1,.1L45,45.2c1.1,1.5-3.7-2.4.3,1.6l0.8,1.1c0.5,0.1,1.7,1.7,2.5,2.3s-1.4-1-1.5-1.3l0.2,0.2c-2.1-2.1-1-.5-2.4-1.9-0.3.5-1.9-.2-2.4,0.1l1.7,1.5H44a4.2,4.2,0,0,1-1.2-1.2c-1-.8.6,0.9,1,1.3a11.9,11.9,0,0,1-2-1.9v0.2l0.2,0.2c0.6,0.7,1.3,1.4,1.2,1.4L42.1,48c-0.1-.1-0.2-0.2-0.1,0H41.7l1.4,1.1a3.7,3.7,0,0,0,1.4,1.4c-2.4-2-1.4-.1-2.2-0.7,0.9,1,.8,1.1.5,1.1s1.9,1.5,1.6,1.5c-3.1-2.8-1.6-1-3.9-2.9a1.9,1.9,0,0,1,.9,1A3.7,3.7,0,0,0,42.7,52c-0.4-.2-1.2-1-2.1-1.6s0.2,0.6-.1.6-0.6,0-.3.5l1.5,1.3L40,51.6l0.9,0.9c0.3,0.3.5,0.5-.1,0.1l0.8,0.7c-0.4-.1-0.4.1-0.4,0.4a8.6,8.6,0,0,0,.3,1,2.1,2.1,0,0,1,.1.8,2.4,2.4,0,0,1-.2.6,0.3,0.3,0,0,1,.3.3l0.4,0.3H42.1V57a0.8,0.8,0,0,1,.2.4v0.3h0.2L43,57.9c0-.1.2-0.1,0.5,0s0.7,0.3.5-.1l0.3,0.3c-0.2-.2-0.2-0.3.2-0.2h0.1a6.1,6.1,0,0,1,2.4.7l-0.7-.6,0.7,0.4c-0.9-.9-0.5-0.1-1.5-1a2.4,2.4,0,0,0,1.3.6,3.1,3.1,0,0,1,1.6.9c0.1,0-.1-0.2-0.4-0.4a0.7,0.7,0,0,1-.4-0.4l0.6,0.5-0.7-.6,1.6,1.1c-0.1-.1,0,0.1,0,0.1s0.6,0.3.6,0.2,0-.2.1-0.1l-0.6-.4a0.8,0.8,0,0,1,.8-0.1c0.2,0,.3,0,0.2-0.2L49.6,58l-0.5-.4c-0.9-1.1.7,0.3,0.4-.3h0.1c-0.5-.5-0.7-0.8-0.6-0.8s1.3,1,1.9,1.6a21.9,21.9,0,0,0-2.5-2.7l0.9,0.7A6.5,6.5,0,0,1,48,54.8c0.7,0.8,1.4,1.1,2.3,2.1s-1.6-2.1,1.3.3c-2.3-2.3-1.5-1-2-1.5s-1.7-1.7-1.4-1.6,3.2,2.6,3.3,2.4v0.2c0.7,0.5-.7-0.9.4-0.1A23.2,23.2,0,0,0,50.3,55l0.3,0.6c-0.4-.5-2.4-2.6-1.3-1.8l1,1.1c0.6,0.5-.3-0.4.3,0s0.2,0.6,1.5,2-1.1-1.4.8,0.5c-2.4-2.4.5,0.1-1.3-1.8l1.1,1-0.6-.7,1.3,1.4c-1.1-1.2,1.2.8,0.7,0.1s-1.3-1.2-2.2-1.8,3,2.5,2.7,1.8a3.7,3.7,0,0,1-1.2-1l1.3,1c-0.1-.4-1.1-1-1.7-1.7,1.4,1.2-.4-0.6-0.8-1.1l1.1,1c0.9,0.5-2.2-2.2-1.2-1.6l1.4,1.5-0.3-.5,1.2,1.2c-0.8-1-.5-0.8-0.1-0.6a11.3,11.3,0,0,1-1.9-2.1c0.7,0.6,1,1,1,.8s1.5,1.5.4,0.6l1,1c0.8,0.7.3,0,.4-0.1l-0.3-.2-1.3-1.7,1,1-0.6-.8a27.8,27.8,0,0,1,2.1,2.2l-0.8-1.1,1.4,1.3c0.6,0.4-1.5-1.9-.7-1.4l-0.4-.5c0.3,0.1,1.5,1,.4-0.3L57.8,56c-0.2-.5-2.1-1.9-2.5-2.6s1.4,1.3,1.8,1.7-2.2-2.6-.8-1.4S56.4,53.8,56.4,53.9Zm0.7-2.1c0.2,0.3.8,1,.2,0.4S56.8,51.6,57.2,51.9Zm-0.3-4.8c0.3,0.4.1,0.2-.3-0.1S56.6,46.9,56.9,47.1ZM56.3,33.5h0A0.7,0.7,0,1,1,56.3,33.5Zm0.6,0.4-0.4-.5c0.2,0.3.2,0.3,0.1,0.3S57.1,34.1,56.9,33.8ZM42.5,48.4l0.3,0.2C43.1,49,42.8,48.7,42.5,48.4Z"/><path class="f" d="M58.1,48.9l-0.6-.6Z"/><path class="f" d="M56.2,55.4h0l0.2,0.2Z"/><path class="f" d="M63.4,45.2l-0.6-.5Z"/><path class="f" d="M55.9,31.3l0.2,0.4,0.4,0.3Z"/><path class="f" d="M63,37.5V37.3l-0.5-.5A1.7,1.7,0,0,0,63,37.5Z"/><path class="f" d="M59.4,34.9c0.9,0.9.6,0.6,0.5,0.3h0C58.7,33.9,59,34.4,59.4,34.9Z"/><path class="f" d="M59.9,35.2c0-.1,0-0.1,0-0.1S59.8,35,59.9,35.2Z"/><path class="f" d="M56.5,33l-0.7-.9C54.7,31,56.9,33.8,56.5,33Z"/><polygon class="f" points="62.2 38 61.1 36.8 62 37.8 62.2 38"/><path class="f" d="M61,37.5l0.4,0.2L61,37.4C60.9,37.4,60.6,37.2,61,37.5Z"/><path class="f" d="M61,37.4c0.1,0,.1-0.1-0.1-0.3A0.4,0.4,0,0,0,61,37.4Z"/><polygon class="f" points="62.4 38.4 62.2 38.2 62 38.2 62.4 38.4"/><path class="f" d="M59.7,38.3l0.2,0.4c0.4,0.4.6,0.6,0.5,0.4Z"/><path class="f" d="M62.9,41.2l-0.8-.8,1.3,1.4Z"/><path class="f" d="M62.9,41.8c0.4,0.4.9,1.3,0.9,1.1A4.6,4.6,0,0,0,62.9,41.8Z"/><polygon class="f" points="59.6 41.4 59.6 41.4 57.5 39 59.6 41.4"/><path class="f" d="M63.3,48.4c0.6,0.5-1.3-1.5-.5-0.9s-0.6-.5-1-1A8.1,8.1,0,0,0,63.3,48.4Z"/><path class="f" d="M61.8,46.5l-0.3-.4Z"/><path class="f" d="M42,57.2v0.2H42Z"/><path class="f" d="M42.3,57.7h0.1V57.7Z"/><path class="f" d="M60.2,54.6l-0.3-.4-0.5-.4Z"/><polygon class="f" points="58.2 54.5 58.2 54.5 56.9 53.2 58.2 54.5"/><path class="f" d="M58.9,57c0.1,0-.2-0.3-0.1-0.3S57.3,55.4,58.9,57Z"/></g><g class="g"><path class="f" d="M57.9,32.1h0Z"/><path class="f" d="M56.8,32H56.7v0.2h0Z"/><path class="f" d="M55.8,31.9c0.3,0.3.4,0.2,0.4,0.2s0-.2.2-0.1h0.1l-0.3-.3H55.8Z"/><path class="f" d="M53.8,30.4c0.3,0.3.1,0.2,0.3,0.2H53.8Z"/><path class="f" d="M53.9,30.4h0Z"/><path class="f" d="M53.4,30.3V30.1l-0.5-.4A1.1,1.1,0,0,0,53.4,30.3Z"/><path class="f" d="M53.8,30.9h0C53.7,30.7,53.6,30.6,53.8,30.9Z"/><path class="f" d="M53.7,30.6v0.2c0.2,0.1.4,0.4,0-.1S53.8,30.7,53.7,30.6Z"/><path class="f" d="M53.9,30.7a1.5,1.5,0,0,1,.6.5C54.7,31.2,54.2,30.8,53.9,30.7Z"/><path class="f" d="M56.3,32.5h0.2V32.4C56.5,32.5,56.1,32.3,56.3,32.5Z"/><path class="f" d="M51.7,29.4l0.9,0.9V30.1Z"/><path class="f" d="M52.6,30.3l0.2,0.3C53,30.7,52.8,30.5,52.6,30.3Z"/><path class="f" d="M54.6,31.8l-0.2-.3-0.2-.3v0.3l0.2,0.3h0Z"/><polygon class="f" points="50.8 29.1 50.4 28.6 51 29.3 50.8 29.1"/><path class="f" d="M50.4,28.9l-1.1-1.2a1.8,1.8,0,0,0,.5.7C49.6,28.3,49.8,28.5,50.4,28.9Z"/><path class="f" d="M50.1,29l-0.4-.5Z"/><path class="f" d="M52.3,30.4l-0.8-.7,0.7,0.7h0.1Z"/><path class="f" d="M52.3,30.4h0Z"/><path class="f" d="M52.4,30.4h0Z"/><path class="f" d="M53.8,31.3a3.7,3.7,0,0,0,1,1.1Z"/><path class="f" d="M53.2,31.2l0.3,0.2L53,30.8Z"/><polygon class="f" points="53.3 31.4 53.2 31.2 53.1 31.2 53.3 31.4"/><path class="f" d="M51.1,29.9c0.2,0.3.2,0.3,0.1,0.3l0.5,0.3Z"/><path class="f" d="M51.8,30.2h0Z"/><path class="f" d="M50.6,30.4h0Z"/><path class="f" d="M51.9,30.7c0.2,0.2.1,0-.1-0.2h0.1Z"/><path class="f" d="M50.1,29.3l0.6,0.5Z"/><path class="f" d="M51.6,30h0A0.3,0.3,0,1,0,51.6,30Z"/><path class="f" d="M51.6,30l0.3,0.4V30.2Z"/><path class="f" d="M55.6,35.8c-0.7-.8-1.3-1.5-0.4-0.8s-3-3.1-4.3-4.4l1,1.2a10.9,10.9,0,0,1,1.7,1.5c0.3,0.5-.3-0.2-0.8-0.5s1.2,1.5,2.5,2.9L54.8,35Z"/><path class="f" d="M50.9,30.4H50.9l-1.1-.9,0.8,1h0.3Z"/><path class="f" d="M51.2,30.3a24.8,24.8,0,0,0,1.9,2,4.9,4.9,0,0,0-.8-1c-0.1.1-.1,0-0.3-0.2l-0.7-.7c-0.1-.1,0-0.1,0-0.2l-0.5-.4h0.2l0.3,0.3L50.9,30H50.8v0.4h0.3Z"/><path class="f" d="M55.9,33.7h0Z"/><path class="f" d="M55.5,33.4c-0.1-.1-0.3-0.3-0.2-0.3l0.5,0.5a2.6,2.6,0,0,0-.7-0.7h0.1l-1.2-1Z"/><path class="f" d="M53.7,32.2v0.4l0.7,0.6-0.4-.4C54.4,33,53.9,32.5,53.7,32.2Z"/><polygon class="f" points="50.2 30 49.4 29.1 50.6 30.4 50.2 30"/><polygon class="f" points="50.2 30.3 49.5 29.5 49.9 30 50.2 30.3"/><path class="f" d="M49.7,48.4l0.2,0.2Z"/><path class="f" d="M50.1,48.2l-0.3-.4Z"/><path class="f" d="M46.3,34.1c-0.7-.7-1.8-1.7-1-0.9l0.8,0.8C46,33.9,46.1,34,46.3,34.1Z"/><path class="f" d="M48.1,41.7L48.4,42l-0.7-.8Z"/><path class="f" d="M51.3,45.2l-0.6-.5Z"/><path class="f" d="M49.1,50.7l0.8,0.9A3.6,3.6,0,0,0,49.1,50.7Z"/><path class="f" d="M48.8,32.2l-0.6-.4C48.8,32.2,49.5,32.9,48.8,32.2Z"/><path class="f" d="M41.5,39.5L42,40Z"/><path class="f" d="M48.1,31.9l0.2,0.2c-0.1-.2-0.2-0.3-0.1-0.3S47.6,31.3,48.1,31.9Z"/><path class="f" d="M42.5,54.1h0Z"/><path class="f" d="M36.5,51.4v0Z"/><path class="f" d="M49.2,30.5h0Z"/><path class="f" d="M52.5,33.7l0.4,0.4Z"/><path class="f" d="M52.6,37.4h0C52.8,37.6,52.8,37.5,52.6,37.4Z"/><path class="f" d="M49.6,30.9l-0.3-.2Z"/><path class="f" d="M49.2,30.5h0.1C49.2,30.4,49.1,30.3,49.2,30.5Z"/><path class="f" d="M49.2,30.6h0A0.2,0.2,0,0,1,49.2,30.6Z"/><path class="f" d="M44,50.1H43.9A0.7,0.7,0,1,0,44,50.1Z"/><path class="f" d="M53.4,43.7h0Z"/><path class="f" d="M53.9,44.4c-0.9-1.1-.8-1-0.5-0.8l-2.3-2.4Z"/><path class="f" d="M49.3,49.3l0.8,0.7a9,9,0,0,0,1.7,1.9c-2.5-2.6.1-.6-2.4-3.2L50,49.2h0.1c1.3,1.1-1.7-2-1.2-1.7l0.9,0.8-0.5-.7,0.4,0.5V47.8h0.1l-1.1-1.4a5,5,0,0,1,.6.6l-0.5-.7a3.3,3.3,0,0,1,1.1,1.3c2.5,2.5-.5-0.7,1.1.6L51,48.7a14.2,14.2,0,0,0,2,1.7,31,31,0,0,1-2.9-2.9c0.2,0.2.3,0.2-.1-0.3,0.9,0.9.7,0.6,0.7,0.5l1.1,1.2c-0.3-.4-0.9-1-1.3-1.6A14.3,14.3,0,0,1,52.4,49c0.3,0.1-1.5-1.4-1.6-1.8s0.2-.2-0.4-1.1a11.7,11.7,0,0,1,1,1.1l-0.9-1,0.5,0.5c-0.3-.4-1.1-1.2-1.4-1.7s2,1.8.7,0.2l1.1,1.2-1.7-2.3,0.9,0.7a23.1,23.1,0,0,1-2.6-3l-1-1L46.6,40l1,1.2-0.2-.3a18.2,18.2,0,0,1,1.7,1.9L48.4,42l2.1,2.4L50.2,44l0.5,0.5L50.3,44l1.3,1.3-0.5-.6,1,0.7A41.9,41.9,0,0,1,48.8,41l2.6,2.9c-1.2-1.2.3,0.7,0,.5a5.1,5.1,0,0,1,.9.9L51.4,44A5.1,5.1,0,0,0,52.6,45c-1.8-1.9-1.1-1.4-1.5-2.1s1.2,1.3,1,1.3c1.5,1.4-2-2.4-.7-1.3s-0.1-.1.2,0.3,0.1-.3.6,0.3h0c0.4,0.1.5-.4-1-2.1l2.1,2.3L48.3,38c1.3,1.4,4.5,4.7,5.1,5.6s0.5,0.4.1-.2l-2-2.1,2.2,2a24.6,24.6,0,0,1-2.2-2.5l2.2,2.4-1.9-2.3,2.3,2.4c-0.4-.4.2-0.1,0-0.3l-0.5-.4c0.5,0.2-2.7-3.2-2.4-3.3a38.6,38.6,0,0,0,2.9,3c-1-1.1-4.8-5.5-5.5-6.5l0.6,0.6-0.6-.8,5.7,6.9c0.5,0.4.7,0.7,0.8,0.6a3,3,0,0,1,.8,1l0.6,0.2c-1.2-1.3-1-1.5-2.1-2.5l1,1.6c-1.2-1.3-3.3-3.8-2.9-3.7l2.5,2.8c-0.4-.5-0.6-1-0.3-0.7l0.6,0.8c0.5,0.4-1.5-1.9-.2-0.7s1.7,1.6,1,.8-5.7-6-6.7-7.1l2.2,1.9c1.1,1.1,2.5,2.8,3.5,3.8l-0.8-1a4.5,4.5,0,0,0,.9.9c-1.2-1.3.3,0-1-1.1s0.3,0.2.4,0a35.8,35.8,0,0,1-2.9-3.4l0.9,0.9a7,7,0,0,0,1.1.3A12.6,12.6,0,0,1,55,39a4.4,4.4,0,0,1-.6-0.8c1.2,1,.1.3,1.4,1.6A11,11,0,0,1,54.6,38c-1.1-1.2-.4-0.1,0,0.5A34.4,34.4,0,0,1,51,34.2c-0.3-.5,1,1,0.8.7s-2.5-3-1.2-2,1.9,2,2.7,2.8-0.8-.5-0.8-0.4l0.5,0.4c0.3,0.4.5,0.7,0.1,0.4s0.6-.2,1.6.5a9,9,0,0,0-1-1.2v0.2c-0.8-.8-1-1.2-1.4-1.6s-1.3-1.7-.7-1.3l1.1,1.2c-0.3-.3-0.7-0.6-0.4-0.2s1.7,1.4.3-.2l-0.8-.7c-0.5-.7-1.6-2-1.1-1.7l-1.3-1.1c1.7,1.6-.3.2,1.5,1.8-1.6-1.5-.8-0.6-2.1-1.8,0.4,0.4.7,0.7,0.5,0.6l0.3,0.4h0l0.6,0.5a10.8,10.8,0,0,1,1,1.5l-0.8-.9,0.6,0.7A14.5,14.5,0,0,1,49.3,31H49.1c-0.5-.4-0.8-0.5-0.5-0.1s0.8,1.1.2,0.4l0.3,0.7L49,31.7c-0.3,0,1,1.7-.6.3,0.2,0.3.3,0.6,0,.4l-0.7-.7c0.2,0.3-.9-0.6-0.2.3-2-1.9-.7-0.1-1.2-0.4l0.9,1a1.1,1.1,0,0,0,.3.9l0.8,0.9c0.6,0.8-.8-0.4-0.9-0.2s-0.2-.3,0-0.1c-2-1.8,1,1.8-.5.5,0.3,0.4.1,0.3-.1,0.1H46.8l-0.5-.4,0.5,0.4L47,35l-0.9-.9h0l1,1.2,0.5,0.6c-1.4-1.5.4,0.6-1.2-.9a21.2,21.2,0,0,0,1.8,2.5L48,37.1c-0.2-.1-0.4-0.3-0.1.2l-1.1-1.2,1.4,1.7a14.3,14.3,0,0,1-1.9-2c1.1,1.5.4,0.6,1.5,2.2L47,37.2c0,0.1.9,1.2,0.2,0.6s-0.7.3-2.2-.8c2.1,2.2-1.1-.9.5,0.9l-1.2-1.3c0.3,0.7-1-.6.3,0.9l-1-1.1c0.1,0.1.4,0.5,0.1,0.2l-0.6-.7c-0.1.2,1.5,1.9,2.9,3.4-0.8-.7-0.7-0.5.2,0.5a5.4,5.4,0,0,1-1.1-1.2c-0.1,0-1-.5.2,0.8-0.3-.3-0.2,0,0,0.1s-0.3-.1-0.3.1l0.2,0.2c1.3,1.5.2,0.4,0.3,0.7V40.3c-1.2-.9.4,0.6-1-0.4l0.9,0.9c1.8,2-1.3-1-.7-0.1L45,41.1c0.6,0.7-2.7-2.5-3-2.7l-0.3-.4c-1.3-1,1.1,1.2,1.2,1.6a17.6,17.6,0,0,0-1.7-1.7c-0.5-.5,1.7,2.3.5,1.2A10.3,10.3,0,0,1,43,40.4c0.1,0.3-2-1.7-.6,0L42,40a10.3,10.3,0,0,0,1.2,1.8c-3.1-3.1,1,1.9-1.7-1v0.4l-0.3-.3c-0.3-.1.3,0.7,0.9,1.4l-0.6-.6c-0.8-.4-0.7-0.3.6,1.4L41,42.1c0.5,0.6-1.7-1.2-.8.1l-0.4-.4c0.9,1.3-3-2.1.2,1.4l0.7,1c0.4,0.1,1.4,1.5,2,2A3.5,3.5,0,0,1,41.5,45l0.2,0.2c-1.7-1.8-.8-0.4-2-1.6-0.3.4-1.6-.2-2,0.1L39,44.9H38.8a3.5,3.5,0,0,1-1-1.1c-0.8-.7.5,0.8,0.8,1.1a9.9,9.9,0,0,1-1.6-1.6v0.2h0.2a3.5,3.5,0,0,1,.9,1.2l-1-.8c-0.1-.1-0.2-0.1-0.1,0H36.9l1.1,1a3,3,0,0,0,1.1,1.2c-2-1.8-1.2-.1-1.9-0.6s0.6,0.9.4,1A5.5,5.5,0,0,1,38.9,48c-2.5-2.5-1.3-.9-3.2-2.6a1.6,1.6,0,0,1,.7.9,3.1,3.1,0,0,0,1.1,1.2c-0.3-.1-1-0.9-1.7-1.5s0.1,0.5-.1.5-0.5,0-.3.4l1.2,1.1-1.4-1.1L36,47.9c0.3,0.3.4,0.4-.1,0.1l0.6,0.6c-0.3-.1-0.4.1-0.3,0.4a7.6,7.6,0,0,0,.2.9,1.8,1.8,0,0,1,.1.7,2.2,2.2,0,0,1-.2.5c0.1,0,.2.1,0.2,0.2l0.3,0.3H36.6a0.7,0.7,0,0,1,.1.4v0.3H37l0.4,0.2h0.4c0.2,0.1.6,0.3,0.4,0l0.3,0.3c-0.1-.2-0.1-0.3.2-0.1h0a5.1,5.1,0,0,1,2,.7l-0.6-.5,0.6,0.4c-0.7-.8-0.4-0.1-1.2-0.9a1.9,1.9,0,0,0,1.1.6,2.5,2.5,0,0,1,1.3.8c0.1,0-.1-0.2-0.3-0.4a0.6,0.6,0,0,1-.3-0.4l0.5,0.4L41.3,53l1.2,1c-0.1-.1,0,0.1,0,0.1s0.5,0.3.5,0.2,0-.2.1-0.1l-0.5-.3a0.8,0.8,0,0,1,.7-0.1c0.1,0,.3,0,0.2-0.1a2.6,2.6,0,0,0-.4-0.8l-0.4-.4c-0.7-1,.6.3,0.4-0.3h0.1a1,1,0,0,1-.4-0.7c0.4,0.5,1,.9,1.5,1.4a16.7,16.7,0,0,0-2-2.4l0.7,0.7a5.3,5.3,0,0,1-1-1.3c0.5,0.7,1.1,1,1.8,1.9s-1.2-1.8,1.1.3c-1.8-2-1.2-.9-1.6-1.3s-1.4-1.5-1.1-1.4,2.6,2.3,2.7,2.1v0.2c0.5,0.4-.5-0.8.3-0.1a17.7,17.7,0,0,0-1.3-1.5l0.2,0.5c-0.3-.5-1.9-2.3-1-1.6l0.8,1c0.5,0.4-.2-0.4.3,0s0.1,0.5,1.2,1.7-0.9-1.2.6,0.4c-2-2.1.4,0.1-1-1.6l0.9,0.9L45.5,51l1.1,1.2c-0.9-1.1,1,.7.6,0.1s-1.1-1-1.8-1.6,2.4,2.2,2.2,1.6a2.9,2.9,0,0,1-1-.9l1.1,0.9c0-.3-0.9-0.9-1.4-1.5,1.1,1-.4-0.5-0.6-0.9l0.9,0.9c0.8,0.4-1.8-1.9-.9-1.4l1.2,1.3-0.2-.4,1,1.1c-0.7-.9-0.4-0.7-0.1-0.5A8.9,8.9,0,0,1,45.9,49c0.6,0.5.8,0.9,0.8,0.7s1.2,1.3.3,0.6l0.8,0.9c0.7,0.6.3,0,.3-0.1l-0.3-.2-1.1-1.4,0.8,0.9-0.5-.7a21.2,21.2,0,0,1,1.7,1.9l-0.6-1,1.2,1.1c0.5,0.4-1.2-1.7-.5-1.2l-0.3-.4c0.3,0.1,1.2.9,0.4-.3l1.4,1.3c-0.2-.4-1.7-1.6-2-2.3s1.1,1.1,1.5,1.4S48.1,48,49.3,49,49.3,49.2,49.3,49.3Zm0.7-1.8c0.2,0.2.7,0.9,0.1,0.3S49.7,47.2,50.1,47.5ZM50,43.3c0.3,0.3.1,0.2-.3-0.1H50ZM49.6,31.6h0A0.6,0.6,0,1,1,49.6,31.6ZM50,31.9l-0.4-.4c0.2,0.2.2,0.3,0.1,0.2S50.2,32.2,50,31.9ZM37.6,44.4l0.3,0.2C38,45,37.8,44.7,37.6,44.4Z"/><path class="f" d="M50.9,44.8l-0.5-.5Z"/><path class="f" d="M49,50.5h0l0.2,0.2V50.5Z"/><path class="f" d="M55.6,41.5l-0.5-.4Z"/><path class="f" d="M49.2,29.8l0.2,0.3,0.4,0.2Z"/><path class="f" d="M55.3,34.9V34.7l-0.4-.4A1.4,1.4,0,0,0,55.3,34.9Z"/><path class="f" d="M52.2,32.8c0.7,0.8.5,0.5,0.5,0.3h0C51.6,32,51.9,32.4,52.2,32.8Z"/><path class="f" d="M52.6,33c0-.1,0-0.1,0-0.1S52.5,32.9,52.6,33Z"/><path class="f" d="M49.7,31.3l-0.6-.7C48.2,29.6,50.1,31.9,49.7,31.3Z"/><polygon class="f" points="54.6 35.3 53.7 34.4 54.4 35.2 54.6 35.3"/><path class="f" d="M53.5,35l0.3,0.2-0.3-.3C53.5,34.8,53.3,34.7,53.5,35Z"/><path class="f" d="M53.6,34.8s0.1-.1-0.1-0.2A0.3,0.3,0,0,0,53.6,34.8Z"/><polygon class="f" points="54.8 35.7 54.6 35.5 54.5 35.5 54.8 35.7"/><path class="f" d="M52.5,35.7L52.6,36l0.4,0.4Z"/><path class="f" d="M55.2,38l-0.7-.7,1.1,1.2Z"/><path class="f" d="M55.2,38.6c0.3,0.3.8,1.1,0.8,0.9A3.7,3.7,0,0,0,55.2,38.6Z"/><polygon class="f" points="52.4 38.4 52.4 38.3 50.6 36.4 52.4 38.4"/><path class="f" d="M55.5,44.2c0.6,0.4-1.1-1.2-.5-0.7s-0.5-.4-0.9-0.8A6.4,6.4,0,0,0,55.5,44.2Z"/><path class="f" d="M54.2,42.7l-0.2-.3Z"/><path class="f" d="M36.6,51.9v0.2H36.6Z"/><path class="f" d="M36.8,52.4h0Z"/><path class="f" d="M52.6,49.8l-0.3-.3-0.4-.3Z"/><polygon class="f" points="50.8 49.7 50.8 49.8 49.8 48.7 50.8 49.7"/><path class="f" d="M51.4,51.9c0.1,0-.1-0.3,0-0.3S50,50.5,51.4,51.9Z"/></g><g class="g"><path class="f" d="M74,31.5h0Z"/><path class="f" d="M72.7,31.7H72.6v0.2A0.6,0.6,0,0,1,72.7,31.7Z"/><path class="f" d="M71.6,32c0.4,0.2.5,0.2,0.5,0.1s0-.2.2-0.1h0.2l-0.3-.3-0.2.2A0.3,0.3,0,0,1,71.6,32Z"/><path class="f" d="M69,30.8c0.4,0.2.1,0.2,0.3,0.1H69Z"/><path class="f" d="M69.2,30.9h0Z"/><path class="f" d="M68.6,30.9V30.7l-0.7-.3A1.1,1.1,0,0,0,68.6,30.9Z"/><path class="f" d="M69.1,31.4H69.1C68.9,31.2,68.9,31.2,69.1,31.4Z"/><path class="f" d="M69,31.1v0.2c0.2,0.1.5,0.3,0-.1S69.1,31.2,69,31.1Z"/><path class="f" d="M69.3,31.2a1.4,1.4,0,0,1,.7.4C70.2,31.5,69.6,31.2,69.3,31.2Z"/><path class="f" d="M72.3,32.5h0.3l-0.2-.2C72.5,32.5,72,32.3,72.3,32.5Z"/><path class="f" d="M66.5,30.4l1.2,0.7V30.9Z"/><path class="f" d="M67.6,31.1l0.2,0.3C68.1,31.4,67.9,31.3,67.6,31.1Z"/><path class="f" d="M70.3,32.2L70,31.9l-0.2-.3L70,31.9l0.2,0.3h0Z"/><polygon class="f" points="65.4 30.3 64.8 29.8 65.7 30.5 65.4 30.3"/><path class="f" d="M64.9,30.3l-1.5-1a1.9,1.9,0,0,0,.7.7C63.9,29.8,64.1,29.9,64.9,30.3Z"/><path class="f" d="M64.6,30.5L64,30Z"/><path class="f" d="M67.4,31.3l-1-.6,0.9,0.6h0.1Z"/><path class="f" d="M67.3,31.3h0Z"/><path class="f" d="M67.4,31.3h0Z"/><path class="f" d="M69.2,31.9a3.7,3.7,0,0,0,1.4,1Z"/><path class="f" d="M68.5,32h0.4l-0.7-.5Z"/><polygon class="f" points="68.7 32.2 68.5 32 68.4 31.9 68.7 32.2"/><path class="f" d="M65.9,31.1c0.3,0.3.3,0.3,0.2,0.4l0.7,0.2Z"/><path class="f" d="M66.7,31.3h0Z"/><path class="f" d="M65.5,31.9h0Z"/><path class="f" d="M67,31.7c0.3,0.1.1,0-.1-0.2s0,0.1-.1.1H67Z"/><path class="f" d="M64.7,30.8l0.7,0.4Z"/><path class="f" d="M66.4,31.1h0C66.2,31,66.3,31,66.4,31.1Z"/><path class="f" d="M66.4,31.1l0.4,0.4V31.3Z"/><path class="f" d="M72.1,36.5c-1-.6-1.8-1.4-0.7-0.8A67.9,67.9,0,0,0,65.7,32L67,33a10.9,10.9,0,0,1,2.2,1.2c0.4,0.5-.4-0.1-0.9-0.4,1.2,0.7,1.6,1.3,3.4,2.5l-0.5-.5Z"/><path class="f" d="M65.8,31.8H65.7L64.3,31l1.2,0.9h0.3Z"/><path class="f" d="M66,31.6a24.6,24.6,0,0,0,2.5,1.8,4.9,4.9,0,0,0-1.1-.9c-0.1.1-.2,0-0.4-0.2l-0.9-.6c-0.1-.1-0.1-0.2,0-0.2l-0.7-.3h0.2L66,31.6l-0.4-.3H65.5v0.2l0.2,0.3A0.2,0.2,0,0,0,66,31.6Z"/><path class="f" d="M72.1,34h0Z"/><path class="f" d="M71.5,33.7c-0.1-.1-0.4-0.3-0.3-0.3l0.6,0.4a2.6,2.6,0,0,0-.9-0.6H71l-1.6-.8Z"/><path class="f" d="M69.3,33v0.4l0.9,0.5-0.5-.3C70.2,33.6,69.6,33.2,69.3,33Z"/><polygon class="f" points="65 31.5 63.9 30.8 65.4 31.9 65 31.5"/><polygon class="f" points="65 31.9 64 31.2 64.6 31.7 65 31.9"/><path class="f" d="M67.7,52.9l0.2,0.2Z"/><path class="f" d="M68,52.6l-0.5-.3Z"/><path class="f" d="M61.3,37.5c-0.9-.5-2.4-1.4-1.3-0.7l1,0.7C60.9,37.3,61.1,37.4,61.3,37.5Z"/><path class="f" d="M64.8,45.6l0.3,0.2-0.9-.8Z"/><path class="f" d="M69,48.7l-0.7-.4Z"/><path class="f" d="M67.3,55.7l1,0.8A3.4,3.4,0,0,0,67.3,55.7Z"/><path class="f" d="M63.9,34.4l-0.7-.3C63.8,34.5,64.7,35.1,63.9,34.4Z"/><path class="f" d="M56.9,44.9l0.6,0.5Z"/><path class="f" d="M63,34.4h0.3c-0.1-.2-0.3-0.3-0.1-0.3S62.3,33.8,63,34.4Z"/><path class="f" d="M60,61.6h0Z"/><path class="f" d="M52.9,59.8v0Z"/><path class="f" d="M63.9,32.5h0Z"/><path class="f" d="M68.2,35l0.5,0.4Z"/><path class="f" d="M69.1,39.3h0C69.3,39.4,69.3,39.4,69.1,39.3Z"/><path class="f" d="M64.5,32.7h0Z"/><path class="f" d="M64,32.4h0.1C63.9,32.3,63.8,32.2,64,32.4Z"/><path class="f" d="M63.9,32.6h0Z"/><path class="f" d="M61.3,56.5H61.1A0.7,0.7,0,1,0,61.3,56.5Z"/><path class="f" d="M71.2,46.3h0Z"/><path class="f" d="M71.8,47c-1.2-1-1-.9-0.7-0.8l-3-2Z"/><path class="f" d="M67.3,54l1,0.5a8.7,8.7,0,0,0,2.2,1.8c-3.2-2.3,0-.7-3.2-3l0.7,0.4h0.1c1.6,0.9-2.2-1.8-1.6-1.7a3.9,3.9,0,0,1,1.1.7L67,52.2l0.5,0.4V52.2h0.1l-1.5-1.3a4.8,4.8,0,0,1,.7.5l-0.7-.7A3.3,3.3,0,0,1,67.5,52c3.3,2.2-.7-0.7,1.3.4l0.3,0.4a13.6,13.6,0,0,0,2.5,1.3,29.8,29.8,0,0,1-3.7-2.5c0.3,0.1.4,0.2-.2-0.4,1.1,0.8.9,0.5,0.9,0.4l1.5,1.1c-0.4-.4-1.1-1-1.8-1.5a14,14,0,0,1,2.4,1.5c0.4,0-2-1.2-2.1-1.6s0.1-.3-0.6-1.1a11.2,11.2,0,0,1,1.4,1l-1.1-1,0.6,0.4c-0.4-.4-1.5-1.1-1.8-1.5s2.6,1.5.8,0L69.5,50l-2.3-2.2,1.1,0.6a22.8,22.8,0,0,1-3.5-2.7l-1.3-.8L62.8,44l1.4,1-0.3-.3a18.1,18.1,0,0,1,2.3,1.6l-1-.6,2.8,2.1-0.4-.4L68.1,48l-0.5-.5,1.7,1.2-0.7-.5,1.2,0.5a42.6,42.6,0,0,1-4.4-4.1l3.5,2.5c-1.6-1,.5.7,0.1,0.6a4.9,4.9,0,0,1,1.1.7l-1.2-1.3a4.9,4.9,0,0,0,1.5.9c-2.4-1.6-1.4-1.3-2.1-2s1.6,1.2,1.3,1.2c1.9,1.1-2.6-2.2-1-1.2,0,0-.1,0,0.3.3s0-.4.7,0.2h0c0.4,0,.5-0.7-1.5-2.1l2.8,2-6.5-5.2c1.7,1.3,5.9,4,6.8,4.9s0.6,0.3.1-.3l-2.7-1.8,2.9,1.6a24.4,24.4,0,0,1-2.9-2.2l3,2.1-2.5-2.1,3,2.1c-0.5-.3.2-0.1,0-0.4l-0.7-.3c0.6,0-3.6-2.9-3.3-3a37.9,37.9,0,0,0,3.8,2.6c-1.3-1-6.4-4.8-7.3-5.8l0.8,0.5-0.8-.8,7.7,6.2c0.7,0.3.9,0.6,1,.4a3,3,0,0,1,1.1.9h0.7c-1.6-1.1-1.4-1.4-2.8-2.3l1.4,1.5c-1.6-1.1-4.4-3.4-4-3.4l3.4,2.4c-0.5-.4-0.9-0.9-0.5-0.7l0.8,0.7c0.7,0.3-2-1.7-.4-0.8s2.2,1.3,1.2.6-7.6-5.1-8.9-6.1L68,39.5c1.5,0.9,3.3,2.5,4.6,3.3l-1.1-.9c0.4,0.2,1.3,1,1.2.7s0.3-.1-1.3-1,0.4,0.1.4-.1a35.5,35.5,0,0,1-3.9-3l1.2,0.8c0.3-.1,1.1.3,1.3,0a12.3,12.3,0,0,1,1.6,1l-0.8-.7c1.5,0.8.1,0.3,1.9,1.4a11.1,11.1,0,0,1-1.7-1.6c-1.5-1-.4,0,0.1.5a34.5,34.5,0,0,1-4.8-3.9c-0.4-.5,1.4.8,1.1,0.6s-3.4-2.7-1.7-2,2.6,1.7,3.5,2.3-1-.3-1-0.2l0.7,0.3c0.4,0.3.7,0.7,0.3,0.5,1.2,0.7.6-.4,1.8,0a8.9,8.9,0,0,0-1.3-1v0.2c-1.1-.6-1.3-1.1-1.9-1.3s-1.7-1.5-1-1.3l1.5,1c-0.4-.3-0.9-0.5-0.5-0.1s2.2,1.1.3-.3l-1.1-.6c-0.7-.6-2.2-1.8-1.6-1.6l-1.6-.9c2.2,1.3-.3.3,2,1.6-2.1-1.2-1-.4-2.7-1.4,0.5,0.3,1,.6.6,0.5l0.4,0.3h0l0.8,0.4a10.8,10.8,0,0,1,1.5,1.4l-1.1-.7,0.8,0.7A14.5,14.5,0,0,1,64.1,33H63.9c-0.7-.3-1-0.4-0.6,0s1.1,1,.3.3l0.5,0.7-0.3-.2c-0.3.1,1.5,1.7-.6,0.6,0.2,0.3.5,0.6,0.1,0.5l-0.9-.6c0.3,0.3-1.1-.4-0.2.3-2.6-1.6-.9.1-1.4-0.1L62,35.5c-0.1.1,0.1,0.4,0.5,0.9l1.1,0.7c0.8,0.7-1-.2-1,0.1s-0.3-.3,0-0.1c-2.6-1.5,1.4,1.7-.5.7,0.4,0.3.2,0.3-.1,0.1H62l-0.6-.3,0.6,0.3,0.3,0.5-1.2-.8h0l1.4,1,0.6,0.6c-1.9-1.2.5,0.6-1.5-.7a21.3,21.3,0,0,0,2.5,2.3l-0.4-.3c-0.3-.1-0.6-0.2,0,0.3l-1.5-1,1.9,1.5a14.3,14.3,0,0,1-2.5-1.7c1.6,1.4.5,0.6,2.1,2l-0.9-.7c0,0.1,1.2,1.1.4,0.6s-0.8.5-2.7-.3c2.8,1.9-1.4-.7.8,0.8l-1.6-1.1c0.5,0.6-1.2-.5.5,1l-1.3-1c0.1,0.1.5,0.5,0.1,0.2l-0.8-.7c0,0.3,2,1.7,3.8,3.1-1-.5-0.9-0.4.3,0.6a5.4,5.4,0,0,1-1.5-1.1c-0.1,0-1.2-.2.3,0.9-0.4-.3-0.2,0,0,0.2s-0.3,0-.3.3H61c1.8,1.4.3,0.4,0.4,0.7H61.3c-1.5-.7.5,0.6-1.2-0.2l1.1,0.8c2.4,1.8-1.6-.8-0.8,0l0.7,0.4c0.8,0.7-3.5-2.1-3.8-2.3l-0.5-.4c-1.6-.8,1.5,1.1,1.7,1.5a17.8,17.8,0,0,0-2.2-1.5c-0.7-.4,2.4,2.2.7,1.2a10.3,10.3,0,0,1,1.7,1.2c0.1,0.3-2.6-1.4-.7.2l-0.5-.3a10.5,10.5,0,0,0,1.6,1.7c-4-2.7,1.5,1.9-2.1-.7v0.4l-0.4-.3c-0.4,0,.4.7,1.3,1.4l-0.8-.5c-0.9-.3-0.8-0.1.8,1.4l-1.2-.8c0.6,0.5-2.1-.9-0.9.3l-0.5-.4c1.2,1.3-3.7-1.6.4,1.5l0.9,0.9c0.5,0,1.8,1.4,2.6,1.8s-1.5-.7-1.6-1H58c-2.2-1.6-1-.3-2.5-1.4-0.2.6-1.8,0.2-2.2,0.6L55,51.8H54.7a3.5,3.5,0,0,1-1.2-1c-1-.6.7,0.8,1.1,1.1a10,10,0,0,1-2-1.5v0.2h0.2c0.7,0.6,1.4,1.1,1.2,1.2l-1.2-.7c-0.1-.1-0.2-0.1-0.1,0H52.4l1.4,0.9a3.1,3.1,0,0,0,1.4,1.2c-2.5-1.6-1.4.2-2.2-.3,0.9,0.8.8,0.9,0.6,1s1.9,1.2,1.6,1.2c-3.1-2.3-1.6-.7-3.9-2.2a1.6,1.6,0,0,1,.9.8,3.2,3.2,0,0,0,1.4,1.1c-0.4-.1-1.2-0.8-2.1-1.3s0.2,0.6,0,.6-0.5.1-.3,0.5L52.7,56,51,55.1,52,55.9c0.3,0.3.5,0.4-.1,0.1l0.8,0.6c-0.4,0-.4.2-0.4,0.5a8.5,8.5,0,0,0,.3,1,2,2,0,0,1,.1.8,2.8,2.8,0,0,1-.2.6c0.1,0,.2.1,0.2,0.2l0.4,0.2H53.1v0.2a0.7,0.7,0,0,1,.2.4v0.3h0c0.1,0.1.1,0.1,0.2,0.1L54,61c0-.1.2-0.1,0.5,0s0.7,0.2.5-.1L55.2,61c-0.2-.2-0.2-0.3.2-0.2h0.1a5.5,5.5,0,0,1,2.3.4l-0.7-.5,0.7,0.3c-0.9-.8-0.5,0-1.4-0.8a1.9,1.9,0,0,0,1.3.4,2.5,2.5,0,0,1,1.6.7c0.1,0-.1-0.2-0.4-0.3s-0.5-.3-0.4-0.4l0.6,0.4-0.6-.5L60,61.5c-0.1,0,0,.1,0,0.1s0.6,0.2.6,0.1,0-.2.1-0.1l-0.6-.3a1,1,0,0,1,.8-0.2c0.2,0,.3-0.1.3-0.2a2.6,2.6,0,0,0-.6-0.8L60,59.7c-0.9-1,.7.2,0.4-0.4h0.1c-0.5-.4-0.7-0.7-0.6-0.7s1.3,0.7,1.9,1.3a16,16,0,0,0-2.6-2.3l0.9,0.6A5.2,5.2,0,0,1,58.9,57c0.7,0.6,1.4.9,2.3,1.7s-1.6-1.8,1.3.1c-2.3-1.9-1.5-.7-2-1.2s-1.7-1.4-1.4-1.3,3.2,2.1,3.3,1.8v0.2c0.7,0.4-.7-0.8.4-0.2a16.9,16.9,0,0,0-1.7-1.4l0.3,0.5c-0.4-.5-2.5-2.2-1.3-1.6l1.1,0.9c0.6,0.3-.3-0.4.3,0s0.2,0.5,1.6,1.7-1.2-1.2.8,0.3c-2.5-1.9.5,0-1.4-1.6l1.1,0.8-0.6-.6,1.4,1.1c-1.1-1,1.3.5,0.7-.1s-1.4-.9-2.3-1.4,3.1,1.9,2.8,1.2a2.7,2.7,0,0,1-1.3-.8L65.8,58c-0.1-.4-1.2-0.8-1.8-1.4,1.4,0.9-.5-0.5-0.8-0.9l1.1,0.8c0.9,0.3-2.3-1.8-1.3-1.4l1.5,1.2-0.3-.4,1.3,1c-0.9-.8-0.6-0.7-0.1-0.6a8.6,8.6,0,0,1-2-1.6c0.7,0.4,1,.8,1,0.5s1.5,1.2.4,0.6l1,0.8c0.8,0.5.3-.1,0.4-0.2H65.9l-1.4-1.4,1.1,0.8-0.6-.7a20,20,0,0,1,2.2,1.8l-0.9-1,1.5,1c0.6,0.3-1.6-1.6-.7-1.3l-0.4-.4c0.3,0,1.6.7,0.4-.4l1.7,1.1c-0.3-.4-2.2-1.4-2.6-2.1s1.5,1,2,1.2-2.4-2.1-.9-1.3S67.2,53.9,67.3,54Zm0.6-2.3c0.2,0.2.9,0.8,0.2,0.3S67.5,51.5,67.9,51.7Zm-0.7-4.7c0.4,0.3.1,0.2-.3-0.1S66.8,46.8,67.2,46.9ZM64.5,33.6h0.1A0.6,0.6,0,1,1,64.5,33.6Zm0.6,0.2-0.5-.3c0.3,0.2.3,0.3,0.2,0.2S65.4,34,65.1,33.8ZM53.2,51.6l0.3,0.2C53.8,52.1,53.5,51.8,53.2,51.6Z"/><path class="f" d="M68.5,48.4l-0.6-.4Z"/><path class="f" d="M67.1,55.6h0l0.2,0.2H67.1Z"/><path class="f" d="M73.2,43.1l-0.6-.3Z"/><path class="f" d="M63.7,31.6L64,31.9l0.4,0.2Z"/><path class="f" d="M71.6,35.5V35.3L70.9,35A1.4,1.4,0,0,0,71.6,35.5Z"/><path class="f" d="M67.7,34.1c1,0.6.7,0.4,0.6,0.2h0C66.9,33.4,67.3,33.7,67.7,34.1Z"/><path class="f" d="M68.2,34.2c0-.1,0-0.1,0-0.1S68.1,34.1,68.2,34.2Z"/><path class="f" d="M64.6,33.2l-0.8-.6C62.6,31.7,65.2,33.8,64.6,33.2Z"/><polygon class="f" points="70.9 36.2 69.7 35.4 70.7 36.1 70.9 36.2"/><path class="f" d="M69.7,36.2h0.4L69.7,36C69.6,36,69.3,36,69.7,36.2Z"/><path class="f" d="M69.7,36s0-.1-0.1-0.2V36Z"/><polygon class="f" points="71.2 36.6 70.9 36.5 70.8 36.5 71.2 36.6"/><path class="f" d="M68.6,37.3l0.3,0.4L69.4,38Z"/><path class="f" d="M72.1,39.2l-1-.6,1.5,1Z"/><path class="f" d="M72.2,39.8c0.4,0.3,1.1,1,1.1.8A3.6,3.6,0,0,0,72.2,39.8Z"/><polygon class="f" points="69 40.5 69 40.4 66.6 38.7 69 40.5"/><path class="f" d="M73.6,46.2c0.7,0.3-1.5-1.1-.6-0.7s-0.7-.3-1.1-0.7A6.3,6.3,0,0,0,73.6,46.2Z"/><path class="f" d="M71.8,44.8l-0.3-.3Z"/><path class="f" d="M53,60.4v0.2H53Z"/><path class="f" d="M53.3,60.9h0.1V60.9Z"/><path class="f" d="M71.2,53.6l-0.4-.3-0.5-.3Z"/><polygon class="f" points="69.1 54.1 69.1 54.1 67.7 53.2 69.1 54.1"/><path class="f" d="M70,56.5c0.1,0-.2-0.3-0.1-0.3S68.3,55.3,70,56.5Z"/></g></g><path class="a" d="M34.7,48.9a1.6,1.6,0,0,0-.1-0.6l-0.2-.5V47.6a0.1,0.1,0,0,0-.1-0.1v0.9a0.6,0.6,0,0,1,.1.3H32.2V47.7h0.6V47.1H32.4V46.8l0.2-.2,0.3-.2h0.6v0.4H33.1v0.3H33a0.3,0.3,0,0,0,.1.2h0.4V46.9a0.7,0.7,0,0,0,0-.2V46.4a0.5,0.5,0,0,1,0-.2h0.7q0-.1,0-0.1h0.1v0.2h1.2v0.2a0.3,0.3,0,0,0,.2.3H36a0.2,0.2,0,0,1,0,.1h0.1V47.8h0.2V47.5H36l0.2-.2a0.3,0.3,0,0,0,.1-0.3h0.2l0.2,0.2a0.5,0.5,0,0,1,0,.3l0.2-.2h0.3v0.4h1.2V47.3H39l0.3-.2h0.9V46.1H39.9V45.5a0.6,0.6,0,0,1,0-.2V45.1H39.4V44.5H39v0.3H37.9l-0.2.2H37l-0.2.2H35.9V44.8l-0.2.2H34.8a0.4,0.4,0,0,1-.3-0.4V44.4H35V44a1.1,1.1,0,0,0,0-.4,0.3,0.3,0,0,0,.2-0.2h0.5V43h0.1A0.1,0.1,0,0,0,36,43a0.1,0.1,0,0,1,.1-0.1h1.3a0.7,0.7,0,0,1,.5-0.5h1a0.3,0.3,0,0,1,0-.2h0.7V40.3H39.2V40.1H34.9v0.7H33.7a0.4,0.4,0,0,1-.1-0.4h0.1V40.9h0.1V40.3h0V40.1H34V39.6h0.7V39.5h1.4V38.7h0.2V38.2h0.7v0.2h0.2V38.5l-0.2-.2h0.8a0.2,0.2,0,0,1,0,.2,0.2,0.2,0,0,0,.2-0.2,0.7,0.7,0,0,1,.1-0.3h1.8V39h0.5v0.2h0.6a2.8,2.8,0,0,0,0,.3H41.1v0.6H40.4v0.3H40.2v0.5H40.2V42.7a1.3,1.3,0,0,1,0-.3q0-.2,0-0.3V41.9H39.8v0.4H39.7a1.3,1.3,0,0,1,.1.5H39.7V42.6H39.5V42.2h0V41.9H39.3v1.5h1.6l0.2,0.2,0.2,0.2h0.2a0.6,0.6,0,0,0,0,.2h0.3v0.2H41.5l-0.2-.4H41.1v0.2h0.3v0.4H41.5V47H41.2l-0.2.2v0.2H40.4a0.3,0.3,0,0,0-.2.3,0.5,0.5,0,0,1-.1.3H39.8l-0.2.4V48.5H39.3a0.9,0.9,0,0,0,0,.2,1,1,0,0,1,0,.2H39.2V48.7H38.9V49h-1v0.2H36.5v0.2c0,0.1,0,.2-0.1.2H34.7Zm-2-1.4h0C32.7,47.6,32.7,47.5,32.7,47.5Zm0.3-.1h0Zm0.6,0.9H33.5v0.2Zm0.1,0.5h0Zm0.2-1.2h0Zm0,0.3h0Zm0-.5h0v0.4Zm0.1,0.7h0Zm0-7.1h0Zm0.2,7.2h0Zm0-8.1h0Zm0,0.6h0.1V40.6H34.1Zm0.2-.8h0.1V40Zm0.1,9h0Zm0.1-1.4v0.2h0.2a0.2,0.2,0,0,1,0,.2h0.2V47.5H34.4Zm0.1-.6h0.3v0.3a0.2,0.2,0,0,0,.2.2h0.1V47.2a0.3,0.3,0,0,0-.3-0.2H34.6Zm0-8.1h0Zm0,2.2h0Zm0.2-2h0Zm0.1,9.4h0ZM35,40h0Zm0.2,7.8a0.6,0.6,0,0,0,.1.3v0.3h0V47.9H35.3Zm0.2-.2h0Zm-0.1-3.1h0v0.3Zm0.1,3.9h0Zm0.1-.6h0Zm0.1,0.4h0v0.2H36V48.2H35.6Zm0.1-4.3V44H36V43.9H35.7Zm0.1-4.7h0S35.9,39.2,35.8,39.1Zm0,7.7h0Zm0.2-8.3h0ZM36,47.4h0Zm0-4.1h0Zm0.1,0.5h0.1V43.3H36.3v0.4Zm0.2,4.6h0Zm0.2,0.2v0.2H36.5Zm0.6-3.8s0,0.1,0,.1h0Zm0.1-2.2h0Zm0,1.4h0Zm0,4.1h0Zm0.1-5.7h0Zm0.2,5.5h0Zm0.2-5.2h0Zm0.2-4.1H38V38.4H37.9Zm0.1-.7h0Zm0.2,4.9h0Zm-0.1,1.7h0Zm0.1-5.3h0v0.3Zm0.1,5h0Zm0.1-1.5h0Zm0.1,1.8h0Zm0.1-1.7a0.1,0.1,0,0,0-.2.2v0.3h0.1V42.8h0.3A0.2,0.2,0,0,0,38.6,42.6Zm-0.1,1.2h0Zm0,0.2v0.2H39a0.2,0.2,0,0,0-.1-0.2H38.6Zm0.1-5.6a0.1,0.1,0,0,0,.1.2H38.7Zm0.2,0.4h0Zm0,4.9h0v0.3Zm0,1.4H39v0.2h0V45.1h0Zm0.1-.4h0Zm0.1-2.4h0Zm0-2.5h0Zm0.1,5.1h0Zm0.1-5.8h0Zm0.2,6h0Zm0-1.1h0Zm0-3.9h0.1V39.9H39.4Zm0-1.7h0ZM39.5,48h0Zm0.1-5h0S39.6,43,39.5,43Zm0-.6h0Zm0.2-3.2h0Zm-0.2,2.2h0Zm0.3-1.8h0Zm0,4.1h0Zm0-2.7h0Zm0,3.4h0.3V44.5H39.8Zm0.1,0.8h0Zm0.1-4.5h0Zm0.2-.4h0Zm0.2-1.7h0Zm-0.1,1.4h0Zm0,1h0ZM40.2,42h0S40.3,42,40.2,42Zm0,2.1h0Zm0.1,1v0.2a0.2,0.2,0,0,1,0,.2V45.1a0.2,0.2,0,0,1,0-.2A0.3,0.3,0,0,0,40.4,45.1Zm0.1-5.3h0Zm0.1,8.5s0,0,0,.1h0Zm0-8.7v0.2H40.6Zm0.1,8.2h0Zm0-5.4V42h0.3a0.8,0.8,0,0,1-.3.6H40.7Zm0.1,2.3q0,0.2,0,.4v0.3h0.4a0.3,0.3,0,0,0-.2-0.3H40.8Zm0-3.7h0v0.2Zm0.1,6.3h0Zm0-7h0ZM41,45.6h0Zm0.1-.5h0Zm0.1-4.6h0Zm0.2,5h0Zm0.1-6.1h0Zm0.1,0.9h0Z"/><path class="a" d="M47.5,47.2V47h0.1V46.5H47.4V45.1a1.2,1.2,0,0,1,.1-0.4V44.3H46.7v0.3H44.9l-0.2-.2H44.5a0.5,0.5,0,0,0-.1-0.3V43.7h0.1v0.2H44.2v0a0.5,0.5,0,0,1,0-.2h1.4a0.2,0.2,0,0,1,.2-0.2H46v0.2h1.2V41.8H47V41.2a0.1,0.1,0,0,1,.1.2,0.1,0.1,0,0,0,.1.2h0.1a0.4,0.4,0,0,0,0-.2V41h0.3a0.2,0.2,0,0,0,.2-0.2l0.2-.3V40.2h0.4v0.2h0a0.1,0.1,0,0,1,0,.1h0.2a0.3,0.3,0,0,1,.2.3q0,0.3.1,0.6a5.7,5.7,0,0,0,.1.6c0,0.2.1,0.3,0.2,0.3h0.9a0.2,0.2,0,0,1,.1-0.3h0.7l0.3,0.2h0.8V42.4h1.8V44h-2a0.2,0.2,0,0,0-.2.2H50.8V43.9H50.2v0.3H49.7v0.2h0a0.3,0.3,0,0,1,.1-0.3l0.2-.3H49.4a0.4,0.4,0,0,1,0,.1H49v0.8H48.8V44.8H48.4v0.2h0.2c0.1,0,.1.1,0,0.1h0.3a1.1,1.1,0,0,1,.1.5q0,0.3,0,.5v1H48.2v0.2l-0.2-.2H47.7a2.5,2.5,0,0,0,0,.3H47.5V47.2Zm-2.8-4h0Zm-0.1.4h0ZM44.9,44q0.1,0,.1-0.2H44.9V44Zm0.7-.7h0Zm0.7,1.2v0.2h0V44.5h0Zm1.2-2.6h0Zm0.1,4.7v0.2h0.2V46.5a0.3,0.3,0,0,0-.1-0.3H47.6Zm0.1-.6h0Zm0.2-5h0Zm0.2-.5h0Zm0.2,1.1h0Zm0.1-.4h0Zm0.2,0.3h0Zm0.1,3.1h0v0.2Zm0.1-2h0Zm0.2,3.6h0Zm1.4-2.7h0A0,0,0,0,0,50.3,43.5Zm0.4-.5h0ZM51,44h0Zm0.1-1.2h0.2V42.7H51.1Zm0.6,1h0Zm1.1-.5h0Z"/><path class="a" d="M57.7,49.7H57.2L57,49.5l-0.2-.2V49.1l-0.3-1a4.5,4.5,0,0,1-.1-1.1V46.4a1.5,1.5,0,0,0,0-.3v0.4h0V45.8h0.6V46a1.8,1.8,0,0,1,0,.3,0.3,0.3,0,0,0,0,.2h0.9a0.2,0.2,0,0,1,.1.2H58.4v0.2h1V47.1l0.2-.2h1.2l0.3-.3,0.3-.2H62a0.5,0.5,0,0,1,0,.2v0.2h0.3V46.2a1.7,1.7,0,0,0,0-.3,0.7,0.7,0,0,1,0-.3l0.2-.2h0.2V44.9H62.2V44.7H61.8a1,1,0,0,1-.1-0.4H60.5L60,44a0.9,0.9,0,0,0-.1.4H59.2a1.5,1.5,0,0,0,0-.4V43H59v0.2a0.3,0.3,0,0,0,0,.1h0.1a0.2,0.2,0,0,0-.2.2,2.3,2.3,0,0,0,0,.4,1.4,1.4,0,0,1,0,.3H57l-0.2-.2v0.2H56.4l-0.3-.3-0.3-.3V43.4h0.1l0.3,0.2h0.3l-0.2-.3a0.2,0.2,0,0,1,0-.2h0.3V42.4h0.9a0.2,0.2,0,0,0,.2-0.2l-0.2-.2,0.3-.3,0.2-.4,0.2-.4,0.4-.2h0.1V40h0.1L59,40.4H59v0.4h0.2v0.1h0.2l0.2,0.2L60,41.9,60.3,42H61v0.2h0.3v0.6h0.4v0.4h0.3l0.2,0.3h0.2a0.1,0.1,0,0,0,0-.1h0.5a0.1,0.1,0,0,1,0,.1H63.1v0.2h0.2v0.3l-0.3.2a0.8,0.8,0,0,0-.1.3,1.2,1.2,0,0,0,0,.4l0.2,0.3H63.3l-0.2.2h0.1v0.2H63.3v0.2H63.1v0.4h0l-0.3.3-0.3.3H61.5l-0.2.2H60.8V48.5l-0.3-.2H60.2v0.2H59.8v0.5H59.7v0.2a0.5,0.5,0,0,0-.1.2H58.7l-0.2.2-0.2.2H58.1l-0.4-.4h0Zm-0.2-2.3,0.3,0.4L58,48.2h0.1V47.7h0V47.4H57.5v0.2H57.5Zm0.2,1.1h0Zm0.1-7c0,0.1,0,.2.1,0.2H57.8ZM58,42.3v0.2H58ZM58,49h0.1v0Zm0.1-2.3h0Zm0.1-6h0Zm0,8.5h0ZM58.4,48v0.4h0.2V48.1H58.4Zm0.1-.4v0.2h0.1V47.5Zm-0.1,1.9h0Zm0.2-2.3h0Zm0.1-5.4v0.3h0.1a0.3,0.3,0,0,0,.2-0.2H58.7Zm0,6a0.3,0.3,0,0,0,.2.3H58.8Zm2.4-7.6H60.1l-0.2.2v0.2H59.1a0.2,0.2,0,0,1,0-.1h0.1a0.3,0.3,0,0,1-.2-0.3,0.6,0.6,0,0,1,.1-0.4l0.3-.3h0.5V38.8l0.5-.2v0.5l0.4-.2V38.7l-0.2-.2h0.8l0.3-.3,0.3-.3H63v0.4h0.8v0.4H64V38h0.1v0.2l0.2,0.2v0.2h0.2l0.2,0.2v0.3a1,1,0,0,1-.1.5l-0.3.4-0.3.3a0.5,0.5,0,0,0-.1.4H63.7l-0.3.2H62l-0.2.3H61.7V40.3H61.2Zm-1.9,2.6h0Zm0.1-2.2h0Zm0.1,8.9h0Zm0-7.3h0.2V42H59.5Zm0.7,5.7-0.4.2a0.8,0.8,0,0,0-.2.4l0.4-.2A0.8,0.8,0,0,0,60.1,47.8Zm-0.4-.8h0S59.7,47.1,59.7,47.1Zm0.5,0.1H60v0.2l0.3-.2H60.2ZM60,42.3h0Zm0.3,0h0.1V42.3H60.3Zm0.2,4.8h0Zm0.3,1h0l-0.2.2Zm-0.1-7.9h0Zm0.1,2.2h0Zm0.2,4.4h0Zm0.5,1.2h0.1v0Zm0.2-9.3h0Zm0.5-.8h0Zm0,1.2h0.6V38.6H62Zm0.3,8.1h0ZM62.5,44h0C62.6,44,62.6,44,62.5,44Zm0.2-5.7h0V38.3Zm-0.1,7.5h0S62.6,45.8,62.6,45.8Zm0.2,0.8h0Zm0-6.4v0.4H63A0.2,0.2,0,0,0,62.8,40.1ZM63,45.2h0ZM63,46.5h0Zm0.2-1.9v0.2h0.1Zm0-4.5h0Zm0.3,0.2V40.1H63.5v0.2Zm0.5-.8h0.1V39.2H64Zm0.1-.8h0Zm0.4,0.1h0Z"/><path class="a" d="M67.5,48.9h6.1v0.3h1V45.8h1.2v0.4h0.5v0.5h-1v0.2H71.4l-0.2.2H67.4V49h0Zm0.3-4.4h0V43.8h8.7v0.3H77v0.2H76.7l-0.2.2h-2l-0.2.2H67.8Zm0.7-1.1h0Zm0.3,0.1h0Zm0.8-.4h0V43.1Zm0.7,3.8h0Zm0.8,0.2h0Zm0.1-.5h0Zm0.4,0.2h0Zm0.3-.6h0Zm2.8-.5v0.2h0.1Zm-0.1.4h0Zm0.1-3.6h0ZM75,46.7h0ZM75.4,42h0Zm0.7-.1h0Zm0.2,5.8h0Zm0.2-1.5h0Zm0.2,1.7h0Z"/><path class="h" d="M79.2,63.1a1.3,1.3,0,0,1-1.3,1.3H72.2a1.3,1.3,0,0,1-1.3-1.3h0a1.3,1.3,0,0,1,1.3-1.3h5.7a1.3,1.3,0,0,1,1.3,1.3h0Z"/><polygon class="i" points="9.7 40.5 10.4 40 9.3 39.2 9.7 40.5"/><polygon class="j" points="10.4 40 10.2 40.1 9.9 40.4 9.7 40.5 10.5 43.7 11 44.4 11.8 44.4 11.7 43.6 12.5 43.9 13 43.3 13.1 43.4 13.6 42.7 13.1 41.7 10.4 40"/><path class="i" d="M10.5,43.7L34.9,75.4l2.6-2L13.1,41.7s0.5,1.4-.7.7,0.5,1.7-1.1.8C11.4,43.2,11.7,44.9,10.5,43.7Z"/><polyline class="k" points="11.6 44.7 12.1 44.3 35.3 74.5 34.8 74.9"/><polygon class="l" points="12.6 35.3 13.4 34.7 12.3 33.9 12.6 35.3"/><polygon class="j" points="13.4 34.7 13.2 34.9 12.9 35.1 12.6 35.3 13.2 38.5 13.8 39.1 14.5 39.2 14.5 38.5 15.3 38.8 15.8 38.2 15.9 38.3 16.4 37.6 16 36.6 13.4 34.7"/><path class="m" d="M13.2,38.5L35.7,71.6l2.8-1.9L16,36.6s0.4,1.4-.7.7,0.4,1.7-1.1.7C14.2,38,14.4,39.7,13.2,38.5Z"/><polyline class="n" points="14.3 39.5 14.8 39.1 36.2 70.7 35.7 71"/><polygon class="o" points="21.4 35.3 22.2 35 21.3 33.9 21.4 35.3"/><polygon class="j" points="22.2 35 22 35.1 21.6 35.2 21.4 35.3 21.3 38.6 21.7 39.4 22.4 39.6 22.5 38.8 23.3 39.4 23.9 38.9 24 39 24.6 38.4 24.4 37.3 22.2 35"/><path class="o" d="M21.3,38.6L36.7,75.5l3.1-1.3L24.4,37.3s0.1,1.5-.8.5,0.1,1.8-1.2.5S22.2,40,21.3,38.6Z"/><polyline class="p" points="22.2 39.8 22.7 39.6 37.4 74.7 36.8 75"/><rect class="q" x="14.2" y="82.7" width="79.8" height="18.62" rx="6" ry="6"/><path class="r" d="M41.1,92.9a4.5,4.5,0,0,1-1.8-.9,1.7,1.7,0,0,1-.6-1.3,1.8,1.8,0,0,1,.7-1.4,2.7,2.7,0,0,1,1.8-.6,3,3,0,0,1,1.3.3,2.2,2.2,0,0,1,.9.8,2.1,2.1,0,0,1,.3,1.1h-1a1.3,1.3,0,0,0-.4-1,1.7,1.7,0,0,0-1.2-.4,1.8,1.8,0,0,0-1.1.3,1,1,0,0,0-.4.9,0.9,0.9,0,0,0,.4.8L41.3,92l1.4,0.6a2.2,2.2,0,0,1,.8.7,1.8,1.8,0,0,1,.2,1,1.7,1.7,0,0,1-.7,1.4,3,3,0,0,1-1.9.5,3.4,3.4,0,0,1-1.4-.3,2.4,2.4,0,0,1-1-.8,1.9,1.9,0,0,1-.4-1.1h1a1.3,1.3,0,0,0,.5,1,2.1,2.1,0,0,0,1.3.4,1.9,1.9,0,0,0,1.2-.3,1,1,0,0,0,.4-0.8,1,1,0,0,0-.4-0.8Z"/><path class="r" d="M47.1,95.5a1.3,1.3,0,0,0,.9-0.3,1.1,1.1,0,0,0,.4-0.8h0.9a1.7,1.7,0,0,1-.3.9,2.1,2.1,0,0,1-.8.7l-1,.3a2.2,2.2,0,0,1-1.8-.7,3,3,0,0,1-.7-2V93.3a3.3,3.3,0,0,1,.3-1.4,2.2,2.2,0,0,1,.8-1,2.4,2.4,0,0,1,1.3-.3,2.2,2.2,0,0,1,1.5.5,2,2,0,0,1,.6,1.4H48.3a1.3,1.3,0,0,0-.4-0.9,1.2,1.2,0,0,0-.9-0.3,1.3,1.3,0,0,0-1.1.5,2.4,2.4,0,0,0-.4,1.5v0.2a2.4,2.4,0,0,0,.4,1.4A1.3,1.3,0,0,0,47.1,95.5Z"/><path class="r" d="M51.2,91.4a2,2,0,0,1,1.6-.8q1.7,0,1.7,1.9v3.6H53.6V92.6a1.3,1.3,0,0,0-.3-0.9,1.1,1.1,0,0,0-.8-0.3l-0.8.2a1.6,1.6,0,0,0-.5.6v3.9H50.3V88.4h0.9v2.9Z"/><path class="r" d="M55.7,93.4A3.2,3.2,0,0,1,56,92a2.3,2.3,0,0,1,.9-1,2.4,2.4,0,0,1,1.3-.3,2.3,2.3,0,0,1,1.8.8,3,3,0,0,1,.7,2h0a3.2,3.2,0,0,1-.3,1.4,2.3,2.3,0,0,1-.9,1,2.4,2.4,0,0,1-1.3.4,2.3,2.3,0,0,1-1.8-.8,2.9,2.9,0,0,1-.7-2h0Zm0.9,0.1A2.3,2.3,0,0,0,57,95a1.4,1.4,0,0,0,2.2,0,2.5,2.5,0,0,0,.4-1.6,2.3,2.3,0,0,0-.4-1.5,1.4,1.4,0,0,0-1.1-.6,1.3,1.3,0,0,0-1.1.5A2.5,2.5,0,0,0,56.6,93.5Z"/><path class="r" d="M61.5,93.4a3.2,3.2,0,0,1,.3-1.4,2.3,2.3,0,0,1,.9-1,2.4,2.4,0,0,1,1.3-.3,2.3,2.3,0,0,1,1.8.8,3,3,0,0,1,.7,2h0a3.2,3.2,0,0,1-.3,1.4,2.3,2.3,0,0,1-.9,1,2.4,2.4,0,0,1-1.3.4,2.3,2.3,0,0,1-1.8-.8,2.9,2.9,0,0,1-.7-2h0Zm0.9,0.1a2.3,2.3,0,0,0,.4,1.5,1.4,1.4,0,0,0,2.2,0,2.5,2.5,0,0,0,.4-1.6,2.3,2.3,0,0,0-.4-1.5,1.4,1.4,0,0,0-1.1-.6,1.3,1.3,0,0,0-1.1.5A2.5,2.5,0,0,0,62.5,93.5Z"/><path class="r" d="M68.7,96.2H67.7V88.4h0.9v7.7Z"/></svg>