<svg xmlns="http://www.w3.org/2000/svg" xmlns:xlink="http://www.w3.org/1999/xlink" viewBox="0 0 108 108"><defs><style>.a{fill:none;}.b{fill:#fff;}.c{fill:#3c3c3b;}.d{fill:#c6c5c5;}.e{fill:#dad9d8;opacity:0.17;}.f{clip-path:url(#a);}.g{fill:#333;}.h{fill:#fcb415;}.i{fill:#281b03;}</style><clipPath id="a"><rect class="a" x="62.5" y="50.3" width="33.5" height="13.44" transform="translate(-10.6 95.1) rotate(-58.7)"/></clipPath></defs><title>leukedingen-images</title><circle class="b" cx="54" cy="54" r="36"/><rect class="c" x="19.5" y="20.6" width="67.5" height="42.77" rx="1.1" ry="1.1"/><rect class="b" x="22.1" y="24.1" width="62.2" height="35.58"/><circle class="d" cx="53.2" cy="61.5" r="1.1"/><image width="289" height="134" transform="translate(30.5 30.8) scale(0.17)" xlink:href="leukedingen-images1.png"/><path class="e" d="M75.1,34.9a83.6,83.6,0,0,1-12,8.2,101.1,101.1,0,0,1-14.1,6.3,120.8,120.8,0,0,1-26.8,6.7v3.6H84.3V26.2A82.1,82.1,0,0,1,75.1,34.9Z"/><path class="d" d="M82.3,41.6l-1.6,1.1c0,0.1-1.1,1.7-1.1,1.7l-5.5,9.9-2.4,8.7a6.1,6.1,0,0,0,2.4,2.5c1.6,0.7-.5.9,1.6,0.7l2-.2,2-1.2,4.5-5.2,1.6-1.3,5.6-9.2-4.2-3.6-1.5-1.9-2.7-1.7Z"/><g class="f"><path class="g" d="M92.8,47.6a1.7,1.7,0,0,0-.6-2.3l-8.5-5.2a1.7,1.7,0,0,0-2.3.6S65.5,65.9,68.5,67.7a4.2,4.2,0,0,0,2.2,3.6,3.7,3.7,0,0,0,4,.2c3,1.8,18.1-23.9,18.1-23.9h0Zm-9.3-.5L86,48.7l-1.1,1.9L82.3,49Zm-1.7,2.8,2.5,1.5-1.1,1.9-2.5-1.5Zm-1.7,2.8,2.5,1.5-1.1,1.9-2.5-1.5ZM79,47l1.1-1.9,2.5,1.5-1.1,1.9Zm2,2.5-1.1,1.9-2.5-1.5,1.1-1.9Zm1.8-6.6a1.2,1.2,0,1,1-1.6.4,1.2,1.2,0,0,1,1.6-.4h0Zm-7.2,9.7,1.1-1.9,2.5,1.5-1.1,1.9ZM78,64.5l-0.6-2.3-0.7.2,0.6,2.3a3.6,3.6,0,0,1-4-2.4l2.3-.6a1.2,1.2,0,0,1-.1-0.7l-2.3.6a3.6,3.6,0,0,1,2.2-3.7L76,60.2l0.7-.2-0.6-2.3a3.6,3.6,0,0,1,4,2.4l-2.3.6a1.2,1.2,0,0,1,.1.7l2.3-.6A3.6,3.6,0,0,1,78,64.5h0Zm6.9-6.3-2.5-1.5,1.1-1.9L86,56.3Zm1.7-2.8-2.5-1.5L85.2,52l2.5,1.5Zm1.7-2.8-2.5-1.5,1.1-1.9,2.5,1.5Zm0,0"/></g><rect class="h" x="14" y="82.7" width="79.8" height="18.62" rx="6" ry="6"/><path class="i" d="M36.5,92.8H33.3v2.6H37v0.8H32.4V88.8H37v0.8H33.3V92h3.2v0.8Z"/><path class="i" d="M38.9,90.7v0.6a2,2,0,0,1,1.6-.7,1.6,1.6,0,0,1,1.6.9l0.7-.6,1-.2a1.7,1.7,0,0,1,1.8,1.9v3.6H44.8V92.6a1.2,1.2,0,0,0-.3-0.9,1.2,1.2,0,0,0-.9-0.3,1.2,1.2,0,0,0-.9.3,1.3,1.3,0,0,0-.4.8v3.6H41.4V92.6a1,1,0,0,0-1.2-1.2,1.2,1.2,0,0,0-1.3.8v4H38.1V90.7h0.9Z"/><path class="i" d="M48,90.7v0.6a2,2,0,0,1,1.6-.7,1.6,1.6,0,0,1,1.6.9l0.7-.6,1-.2a1.7,1.7,0,0,1,1.8,1.9v3.6H53.8V92.6a1.2,1.2,0,0,0-.3-0.9,1.2,1.2,0,0,0-.9-0.3,1.2,1.2,0,0,0-.9.3,1.3,1.3,0,0,0-.4.8v3.6H50.4V92.6a1,1,0,0,0-1.2-1.2,1.2,1.2,0,0,0-1.3.8v4H47.1V90.7H48Z"/><path class="i" d="M59.5,96.2a1.9,1.9,0,0,1-.1-0.6,2.1,2.1,0,0,1-1.5.7,1.9,1.9,0,0,1-1.3-.5,1.5,1.5,0,0,1-.5-1.2,1.5,1.5,0,0,1,.6-1.3,3,3,0,0,1,1.8-.5h0.9V92.4a1,1,0,0,0-.3-0.8,1.2,1.2,0,0,0-.9-0.3,1.4,1.4,0,0,0-.8.3,0.7,0.7,0,0,0-.3.6H56.1a1.3,1.3,0,0,1,.3-0.8,2,2,0,0,1,.8-0.6l1.1-.2a2.1,2.1,0,0,1,1.5.5,1.7,1.7,0,0,1,.6,1.3v2.5a3.1,3.1,0,0,0,.2,1.2h-1Zm-1.5-.7,0.8-.2a1.4,1.4,0,0,0,.6-0.6V93.5H58.6q-1.7,0-1.7,1a0.8,0.8,0,0,0,.3.7A1.1,1.1,0,0,0,57.9,95.5Z"/><path class="i" d="M69.2,89.6H66.9v6.5h-1V89.6H63.6V88.8h5.7v0.8Z"/><path class="i" d="M72.8,94.9l2.1-6H76l-2.7,7.3H72.4l-2.7-7.3h1Z"/></svg>