<svg xmlns="http://www.w3.org/2000/svg" viewBox="0 0 108 108"><defs><style>.a{fill:#fff;}.b{fill:#ffb602;}.c{fill:#d83548;}.d{fill:#f94f5e;}.e{fill:#90b216;}.f{fill:#98c21f;}.g{fill:#efefef;}.h{fill:#31a2c9;}.i{fill:#43b7e8;}.j{fill:#f37721;}.k{fill:#f89e1c;}.l{fill:#e6e7e8;}.m{fill:#d0d2d3;}.n{fill:#ee4036;}.o{fill:#be1e2d;}.p{fill:#fcb415;}.q{fill:#281b03;}</style></defs><title>leukedingen-images</title><circle class="a" cx="54" cy="54" r="36"/><path class="b" d="M80.7,59.3c-0.3-1.1-1-1.8-2.4-3s-3.5-2.1-4.3-3.7a3.8,3.8,0,0,1-.3-2.9,3.4,3.4,0,0,1,2.6-2.1c0.9-.1,1.6.2,3,0.9s1.1,0.7,1.7.9a5,5,0,0,0,3.7-.3c2.7-1.4,2.5-6.7,2.4-7.6C86.8,34.7,82,29.9,79.1,27S68.2,16.6,55,15.7c-3.5-.2-9.7-0.6-16.3,2.9a23.9,23.9,0,0,0-10,9.5,23.9,23.9,0,0,0-2.7,14.4C27,50.7,31.6,56,34,58.7c0.6,0.7,10.4,11.4,25.7,11.9,3.3,0.1,9.8.3,16.2-3.6a9.7,9.7,0,0,0,3.7-2.8C79.9,63.7,81.4,61.6,80.7,59.3ZM58.9,63.6a5.2,5.2,0,1,1,6.9-2.5A5.2,5.2,0,0,1,58.9,63.6Z"/><path class="c" d="M40.9,33.8a5.2,5.2,0,0,1-8.7.2,5.2,5.2,0,1,0,9.2-4.7A5.2,5.2,0,0,1,40.9,33.8Z"/><path class="d" d="M32.6,29.5a5.2,5.2,0,0,0-.5,4.5,5.2,5.2,0,0,0,9.2-4.7A5.2,5.2,0,0,0,32.6,29.5Z"/><path class="e" d="M53.5,26.4a5.2,5.2,0,0,1-8.7.2A5.2,5.2,0,1,0,54,21.9,5.2,5.2,0,0,1,53.5,26.4Z"/><path class="f" d="M45.3,22.1a5.2,5.2,0,0,0-.5,4.5A5.2,5.2,0,0,0,54,21.9,5.2,5.2,0,0,0,45.3,22.1Z"/><path class="g" d="M69.1,29.3a5.2,5.2,0,0,1-8.7.2,5.2,5.2,0,1,0,9.2-4.7A5.2,5.2,0,0,1,69.1,29.3Z"/><path class="a" d="M60.8,25a5.2,5.2,0,0,0-.5,4.5,5.2,5.2,0,0,0,9.2-4.7A5.2,5.2,0,0,0,60.8,25Z"/><path class="h" d="M80.6,38.9a5.2,5.2,0,0,1-8.7.2,5.2,5.2,0,1,0,9.2-4.7A5.2,5.2,0,0,1,80.6,38.9Z"/><path class="i" d="M72.4,34.6a5.2,5.2,0,0,0-.5,4.5,5.2,5.2,0,0,0,9.2-4.7A5.2,5.2,0,0,0,72.4,34.6Z"/><path class="j" d="M36.4,64.5c0-.5-0.3-3.9-0.3-3.9l-1.1.2,0.8,4.9A1,1,0,0,0,36.4,64.5Z"/><path class="k" d="M35,64.8a1,1,0,0,0,.9.9l-0.8-4.9L34,61S34.8,64.3,35,64.8Z"/><path class="k" d="M28.1,27.1s0.4,6.3,2.1,16S34,60.8,34,60.8l1.1-.2L29.2,26.9Z"/><path class="j" d="M33.6,42.5c-1.7-9.7-3.4-15.8-3.4-15.8l-1.1.2L35,60.7l1.1-.2S35.3,52.2,33.6,42.5Z"/><polygon class="k" points="27.7 22.6 28.1 26.8 29.2 26.6 28.4 22.4 27.7 22.6"/><polygon class="j" points="29.2 22.3 28.4 22.4 29.2 26.6 30.2 26.4 29.2 22.3"/><path class="l" d="M27,21.2a1.3,1.3,0,0,0,1.4,1l-1.3-7.4C26.4,15,26.8,20.6,27,21.2Z"/><path class="m" d="M29.4,20.8c-0.1-.7-1.6-6.1-2.3-6l1.3,7.4A1.3,1.3,0,0,0,29.4,20.8Z"/><path class="n" d="M44.8,69.5c-0.2-.6-1.7-4-1.7-4l-1.1.6,2.6,4.9A1.1,1.1,0,0,0,44.8,69.5Z"/><path class="o" d="M43.4,70.3a1.1,1.1,0,0,0,1.3.7L42,66.1l-1.1.6Z"/><path class="o" d="M23,32.7s2.6,6.5,7.8,16.2S40.9,66.5,40.9,66.5l1.1-.6L24.1,32.1Z"/><path class="n" d="M34.2,47.1c-5.1-9.7-9.1-15.6-9.1-15.6l-1.1.6L41.9,65.9l1.1-.6S39.3,56.8,34.2,47.1Z"/><polygon class="o" points="21 28.1 22.8 32.4 23.9 31.9 21.7 27.7 21 28.1"/><polygon class="n" points="22.4 27.3 21.7 27.7 23.9 31.9 25 31.3 22.4 27.3"/><path class="l" d="M19.7,26.9a1.4,1.4,0,0,0,1.9.6l-3.9-7.4C17,20.4,19.4,26.2,19.7,26.9Z"/><path class="m" d="M22.2,25.6c-0.4-.7-3.8-5.9-4.5-5.5l3.9,7.4A1.4,1.4,0,0,0,22.2,25.6Z"/><rect class="p" x="14.2" y="82.7" width="79.8" height="18.62" rx="6" ry="6"/><path class="q" d="M28.8,92.8l-0.9.9v2.5H27V88.8h1v3.6l3.3-3.6h1.2l-2.9,3.2,3.1,4.1H31.4Z"/><path class="q" d="M36.5,95.6a2,2,0,0,1-1.6.6,1.7,1.7,0,0,1-1.3-.5,2.2,2.2,0,0,1-.5-1.5V90.7h0.9v3.5a1,1,0,0,0,1,1.2,1.4,1.4,0,0,0,1.4-.8v-4h0.9v5.4H36.5V95.6Z"/><path class="q" d="M39.7,90.7v0.7a2,2,0,0,1,1.6-.8q1.7,0,1.7,1.9v3.6H42.2V92.6a1.3,1.3,0,0,0-.3-0.9,1.1,1.1,0,0,0-.8-0.3l-0.8.2a1.6,1.6,0,0,0-.5.6v3.9H38.8V90.7h0.9Z"/><path class="q" d="M47.7,94.7a0.7,0.7,0,0,0-.3-0.6l-1-.4-1.1-.4-0.6-.5a1.2,1.2,0,0,1-.2-0.7,1.4,1.4,0,0,1,.6-1.1,2.2,2.2,0,0,1,1.4-.5,2.3,2.3,0,0,1,1.5.5,1.5,1.5,0,0,1,.6,1.2H47.6a0.8,0.8,0,0,0-.3-0.7,1.2,1.2,0,0,0-.8-0.3l-0.8.2a0.7,0.7,0,0,0-.3.6,0.6,0.6,0,0,0,.3.5l1,0.3,1.1,0.4,0.6,0.5a1.3,1.3,0,0,1,.2.7,1.4,1.4,0,0,1-.6,1.2,2.4,2.4,0,0,1-1.5.4L45.3,96a1.9,1.9,0,0,1-.8-0.6,1.6,1.6,0,0,1-.3-0.9h0.9a1,1,0,0,0,.4.7,1.5,1.5,0,0,0,.9.3l0.8-.2A0.7,0.7,0,0,0,47.7,94.7Z"/><path class="q" d="M51.1,89.4v1.3h1v0.7h-1v3.4a0.8,0.8,0,0,0,.1.5l0.5,0.2h0.4v0.7H51.4a1.2,1.2,0,0,1-.9-0.4,1.6,1.6,0,0,1-.3-1.1V91.4h-1V90.7h1V89.4h0.9Z"/><path class="q" d="M56.5,96.2a1.9,1.9,0,0,1-.1-0.6,2.1,2.1,0,0,1-1.5.7,1.9,1.9,0,0,1-1.3-.5,1.5,1.5,0,0,1-.5-1.2,1.5,1.5,0,0,1,.6-1.3,3,3,0,0,1,1.8-.5h0.9V92.4a1,1,0,0,0-.3-0.8,1.2,1.2,0,0,0-.9-0.3,1.4,1.4,0,0,0-.8.3,0.7,0.7,0,0,0-.3.6H53.1a1.3,1.3,0,0,1,.3-0.8,2,2,0,0,1,.8-0.6l1.1-.2a2.1,2.1,0,0,1,1.5.5,1.7,1.7,0,0,1,.6,1.3v2.5a3.1,3.1,0,0,0,.2,1.2h-1ZM55,95.5l0.8-.2a1.4,1.4,0,0,0,.6-0.6V93.5H55.6q-1.7,0-1.7,1a0.8,0.8,0,0,0,.3.7A1.1,1.1,0,0,0,55,95.5Z"/><path class="q" d="M60,89.4v1.3h1v0.7H60v3.4a0.8,0.8,0,0,0,.1.5l0.5,0.2h0.4v0.7H60.4a1.2,1.2,0,0,1-.9-0.4,1.6,1.6,0,0,1-.3-1.1V91.4h-1V90.7h1V89.4H60Z"/><path class="q" d="M64.4,96.3a2.4,2.4,0,0,1-1.8-.7,2.7,2.7,0,0,1-.7-1.9V93.4a3.3,3.3,0,0,1,.3-1.4,2.4,2.4,0,0,1,.9-1,2.2,2.2,0,0,1,1.2-.4,2,2,0,0,1,1.6.7,3,3,0,0,1,.6,2v0.4H62.8a1.9,1.9,0,0,0,.5,1.3,1.5,1.5,0,0,0,1.1.5l0.8-.2,0.6-.5,0.6,0.4A2.3,2.3,0,0,1,64.4,96.3Zm-0.1-4.9a1.2,1.2,0,0,0-.9.4,2,2,0,0,0-.5,1.1h2.7a1.8,1.8,0,0,0-.4-1.1A1.2,1.2,0,0,0,64.3,91.4Z"/><path class="q" d="M68.6,96.2H67.7V88.4h0.9v7.7Z"/><path class="q" d="M70.1,89.3a0.6,0.6,0,0,1,.1-0.4l0.4-.2L71,88.9a0.5,0.5,0,0,1,.1.4,0.5,0.5,0,0,1-.1.4l-0.4.2-0.4-.2A0.5,0.5,0,0,1,70.1,89.3Zm1,6.9H70.2V90.7h0.9v5.4Z"/><path class="q" d="M74.8,96.3a2.4,2.4,0,0,1-1.8-.7,2.7,2.7,0,0,1-.7-1.9V93.4a3.3,3.3,0,0,1,.3-1.4,2.4,2.4,0,0,1,.9-1,2.2,2.2,0,0,1,1.2-.4,2,2,0,0,1,1.6.7,3,3,0,0,1,.6,2v0.4H73.3a1.9,1.9,0,0,0,.5,1.3,1.5,1.5,0,0,0,1.1.5l0.8-.2,0.6-.5,0.6,0.4A2.3,2.3,0,0,1,74.8,96.3Zm-0.1-4.9a1.2,1.2,0,0,0-.9.4,2,2,0,0,0-.5,1.1H76a1.8,1.8,0,0,0-.4-1.1A1.2,1.2,0,0,0,74.7,91.4Z"/><path class="q" d="M80.6,91.6H80.2a1.2,1.2,0,0,0-1.2.8v3.9H78V90.7h0.9v0.6a1.4,1.4,0,0,1,1.3-.7h0.4v0.9Z"/></svg>