<svg xmlns="http://www.w3.org/2000/svg" viewBox="0 0 108 108"><defs><style>.a{fill:#fff;}.b{fill:none;}.c{fill:#b9712c;}.d{fill:#a45e26;}.e{fill:#00a5b2;}.f{fill:#ff854f;}.g{fill:#e56838;}.h{fill:#08bbbf;}.i{fill:#fcb415;}.j{fill:#281b03;}</style></defs><title>leukedingen-images</title><circle class="a" cx="54" cy="54" r="36"/><path class="b" d="M53.4,20.7a4,4,0,0,0,4-4h-8A4,4,0,0,0,53.4,20.7Z"/><path class="b" d="M53.4,12.8a4,4,0,0,0-4,4h8A4,4,0,0,0,53.4,12.8Z"/><path class="c" d="M53.4,11.4A5.4,5.4,0,0,0,48,16.8h1.4a4,4,0,0,1,8,0h1.4A5.4,5.4,0,0,0,53.4,11.4Z"/><rect class="d" x="35.4" y="12.2" width="5.8" height="10.72" transform="translate(-2.5 7.2) rotate(-10.4)"/><rect class="c" x="65.5" y="12.2" width="5.8" height="10.72" transform="translate(132.5 47.1) rotate(-169.6)"/><path class="c" d="M32.6,67.4H74.1a0,0,0,0,1,0,0v4.8a1,1,0,0,1-1,1H33.6a1,1,0,0,1-1-1V67.4A0,0,0,0,1,32.6,67.4Z"/><path class="e" d="M32.7,71.6H30.1a1,1,0,0,1-.5-1.1V62.8a17.2,17.2,0,0,1,1.4-7.1l1.8-3.8V71.6Z"/><path class="e" d="M74.1,71.6h2.6a1,1,0,0,0,.5-1.1V62.8a17.2,17.2,0,0,0-1.4-7.1l-1.8-3.8V71.6Z"/><path class="f" d="M50.5,14.9h5.8A17.8,17.8,0,0,1,74.2,32.7V67.4a0,0,0,0,1,0,0H32.7a0,0,0,0,1,0,0V32.7A17.8,17.8,0,0,1,50.5,14.9Z"/><path class="g" d="M37.9,61A11.9,11.9,0,0,1,49.8,49.1h3.7V20.7a4,4,0,0,1-4-4H48.1a5.4,5.4,0,0,1,.2-1.4A19.9,19.9,0,0,0,32.7,34.8V67.4h5.1V61Z"/><path class="g" d="M49.5,16.8a4,4,0,0,0,4,4v-4h-4Z"/><path class="g" d="M53.5,14.9H52.7l-2.8.2a4,4,0,0,0-.4,1.6h4V14.9Z"/><path class="g" d="M49.5,16.8a4,4,0,0,1,.4-1.6l-1.6.3a5.4,5.4,0,0,0-.2,1.4h1.4Z"/><path class="h" d="M51.2,49.1h4.4A13.4,13.4,0,0,1,68.9,62.5v4.9a0,0,0,0,1,0,0H37.8a0,0,0,0,1,0,0V62.5A13.4,13.4,0,0,1,51.2,49.1Z"/><rect class="c" x="40.9" y="56.9" width="24.9" height="1.11" rx="0.5" ry="0.5"/><polygon class="e" points="40.9 28.4 40.9 32 46.1 34.6 51.4 31.9 51.4 28.4 40.9 28.4"/><rect class="h" x="55.4" y="35.8" width="10.5" height="1.62"/><path class="c" d="M63.2,58l-0.5,1.8a1,1,0,0,0,.3,1h0.1a1,1,0,0,0,1.3-.1h0a1,1,0,0,0,.2-1L64.2,58h-1Z"/><path class="b" d="M53.4,14.9V12.8a4,4,0,0,0-3.6,2.3l2.8-.2h0.8Z"/><path class="b" d="M54.2,14.9L57,15.1a4,4,0,0,0-3.6-2.3v2.1h0.8Z"/><path class="d" d="M53.4,12.8V11.4a5.4,5.4,0,0,0-5.2,4l1.6-.3A4,4,0,0,1,53.4,12.8Z"/><path class="d" d="M37.8,67.4H32.6v5.2a0.6,0.6,0,0,0,.6.6H53.4V67.4H37.8Z"/><path class="e" d="M37.8,61v6.4H53.4V58H41.5a0.6,0.6,0,1,1,0-1.1H53.4V49.1H49.7A11.9,11.9,0,0,0,37.8,61Z"/><path class="d" d="M41.5,56.9a0.6,0.6,0,1,0,0,1.1H53.4V56.9H41.5Z"/><rect class="i" x="14.2" y="82.7" width="79.8" height="18.62" rx="6" ry="6"/><path class="j" d="M37.2,88.8v5a2.3,2.3,0,0,1-.7,1.7,2.6,2.6,0,0,1-1.8.7H34.5a2.7,2.7,0,0,1-1.9-.6,2.3,2.3,0,0,1-.7-1.8v-5h1v5a1.7,1.7,0,1,0,3.4,0v-5h1Z"/><path class="j" d="M38.6,89.3a0.6,0.6,0,0,1,.1-0.4l0.4-.2,0.4,0.2a0.5,0.5,0,0,1,.1.4,0.5,0.5,0,0,1-.1.4l-0.4.2-0.4-.2A0.5,0.5,0,0,1,38.6,89.3Zm1,6.9H38.6V90.7h0.9v5.4Z"/><path class="j" d="M42.3,89.4v1.3h1v0.7h-1v3.4a0.8,0.8,0,0,0,.1.5l0.5,0.2h0.4v0.7H42.6a1.2,1.2,0,0,1-.9-0.4,1.6,1.6,0,0,1-.3-1.1V91.4h-1V90.7h1V89.4h0.9Z"/><path class="j" d="M47.6,94.7a0.7,0.7,0,0,0-.3-0.6l-1-.4-1.1-.4-0.6-.5a1.2,1.2,0,0,1-.2-0.7,1.4,1.4,0,0,1,.6-1.1,2.2,2.2,0,0,1,1.4-.5,2.3,2.3,0,0,1,1.5.5,1.5,1.5,0,0,1,.6,1.2H47.5a0.8,0.8,0,0,0-.3-0.7,1.2,1.2,0,0,0-.8-0.3l-0.8.2a0.7,0.7,0,0,0-.3.6,0.6,0.6,0,0,0,.3.5l1,0.3,1.1,0.4,0.6,0.5a1.3,1.3,0,0,1,.2.7,1.4,1.4,0,0,1-.6,1.2,2.4,2.4,0,0,1-1.5.4L45.3,96a1.9,1.9,0,0,1-.8-0.6,1.6,1.6,0,0,1-.3-0.9h0.9a1,1,0,0,0,.4.7,1.5,1.5,0,0,0,.9.3l0.8-.2A0.7,0.7,0,0,0,47.6,94.7Z"/><path class="j" d="M51,89.4v1.3h1v0.7H51v3.4a0.8,0.8,0,0,0,.1.5l0.5,0.2H52v0.7H51.3a1.2,1.2,0,0,1-.9-0.4,1.6,1.6,0,0,1-.3-1.1V91.4h-1V90.7h1V89.4H51Z"/><path class="j" d="M56.4,96.2a1.9,1.9,0,0,1-.1-0.6,2.1,2.1,0,0,1-1.5.7,1.9,1.9,0,0,1-1.3-.5,1.5,1.5,0,0,1-.5-1.2,1.5,1.5,0,0,1,.6-1.3,3,3,0,0,1,1.8-.5h0.9V92.4a1,1,0,0,0-.3-0.8,1.2,1.2,0,0,0-.9-0.3,1.4,1.4,0,0,0-.8.3,0.7,0.7,0,0,0-.3.6H53a1.3,1.3,0,0,1,.3-0.8,2,2,0,0,1,.8-0.6l1.1-.2a2.1,2.1,0,0,1,1.5.5,1.7,1.7,0,0,1,.6,1.3v2.5a3,3,0,0,0,.2,1.2h-1Zm-1.5-.7,0.8-.2a1.4,1.4,0,0,0,.6-0.6V93.5H55.6q-1.7,0-1.7,1a0.8,0.8,0,0,0,.3.7A1.1,1.1,0,0,0,54.9,95.5Z"/><path class="j" d="M63.3,93.5a3.3,3.3,0,0,1-.6,2,1.8,1.8,0,0,1-1.5.8,2,2,0,0,1-1.6-.6v2.6H58.7V90.7h0.8v0.6a1.9,1.9,0,0,1,1.6-.7,1.9,1.9,0,0,1,1.5.7,3.3,3.3,0,0,1,.6,2.1h0Zm-0.9-.1a2.4,2.4,0,0,0-.4-1.5,1.3,1.3,0,0,0-1.1-.5,1.4,1.4,0,0,0-1.3.7v2.6a1.4,1.4,0,0,0,1.3.7,1.3,1.3,0,0,0,1.1-.5A2.6,2.6,0,0,0,62.3,93.4Z"/><path class="j" d="M65.4,90.7v6.1A1.3,1.3,0,0,1,64,98.4H63.4V97.5h0.4l0.5-.2a0.8,0.8,0,0,0,.2-0.6V90.7h0.9Zm-1-1.4a0.6,0.6,0,0,1,.1-0.4l0.4-.2,0.4,0.2a0.5,0.5,0,0,1,.1.4,0.5,0.5,0,0,1-.1.4l-0.4.2-0.4-.2A0.5,0.5,0,0,1,64.4,89.3Z"/><path class="j" d="M69.2,96.3a2.4,2.4,0,0,1-1.8-.7,2.7,2.7,0,0,1-.7-1.9V93.4A3.3,3.3,0,0,1,67,92a2.4,2.4,0,0,1,.9-1,2.2,2.2,0,0,1,1.2-.4,2,2,0,0,1,1.6.7,3,3,0,0,1,.6,2v0.4H67.6a1.9,1.9,0,0,0,.5,1.3,1.5,1.5,0,0,0,1.1.5l0.8-.2,0.6-.5,0.6,0.4A2.3,2.3,0,0,1,69.2,96.3ZM69,91.4a1.2,1.2,0,0,0-.9.4,2,2,0,0,0-.5,1.1h2.7a1.8,1.8,0,0,0-.4-1.1A1.2,1.2,0,0,0,69,91.4Z"/><path class="j" d="M75.5,94.7a0.7,0.7,0,0,0-.3-0.6l-1-.4-1.1-.4-0.6-.5a1.2,1.2,0,0,1-.2-0.7,1.4,1.4,0,0,1,.6-1.1,2.2,2.2,0,0,1,1.4-.5,2.3,2.3,0,0,1,1.5.5,1.5,1.5,0,0,1,.6,1.2H75.5a0.8,0.8,0,0,0-.3-0.7,1.2,1.2,0,0,0-.8-0.3l-0.8.2a0.7,0.7,0,0,0-.3.6,0.6,0.6,0,0,0,.3.5l1,0.3,1.1,0.4,0.6,0.5a1.3,1.3,0,0,1,.2.7,1.4,1.4,0,0,1-.6,1.2,2.4,2.4,0,0,1-1.5.4L73.2,96a1.9,1.9,0,0,1-.8-0.6,1.6,1.6,0,0,1-.3-0.9h0.9a1,1,0,0,0,.4.7,1.5,1.5,0,0,0,.9.3l0.8-.2A0.7,0.7,0,0,0,75.5,94.7Z"/></svg>