<svg xmlns="http://www.w3.org/2000/svg" viewBox="0 0 108 108"><defs><style>.a{fill:#fff;}.b{fill:#ef5160;}.c{fill:#46b6e7;}.d{fill:#fcb415;}.e{fill:#623289;}.f{fill:#281b03;}</style></defs><title>leukedingen-images</title><circle class="a" cx="54" cy="54" r="36"/><path class="b" d="M50.5,62.9H50.3a1.8,1.8,0,1,1,.6-2.2h0.2a26.2,26.2,0,0,1,1.7-4.2h0a26.2,26.2,0,0,0-4.2-1.7V54.5a1.8,1.8,0,1,0-2.2-.6v0.2a26.2,26.2,0,0,0-4.5-.5h0a26.2,26.2,0,0,1-.5,4.5h0.2a1.8,1.8,0,1,1-.6,2.2H40.6a26.2,26.2,0,0,1-1.7,4.2h0a26.2,26.2,0,0,0,4.2,1.7v0.2a1.8,1.8,0,1,0,2.2.6V66.9a26.2,26.2,0,0,0,4.5.5h0A26.2,26.2,0,0,1,50.5,62.9Z"/><path class="c" d="M42.3,49H42.1a1.8,1.8,0,1,1,.6-2.2h0.2a26.2,26.2,0,0,1,1.7-4.2h0a26.2,26.2,0,0,0-4.2-1.7V40.5a1.8,1.8,0,1,0-2.2-.6v0.2a26.2,26.2,0,0,0-4.5-.5h0a26.2,26.2,0,0,1-.5,4.5h0.2a1.8,1.8,0,1,1-.6,2.2H32.3a26.2,26.2,0,0,1-1.7,4.2h0a26.2,26.2,0,0,0,4.2,1.7v0.2a1.8,1.8,0,1,0,2.2.6V53a26.2,26.2,0,0,0,4.5.5h0A26.2,26.2,0,0,1,42.3,49Z"/><path class="d" d="M32.3,62.3V62.2a1.8,1.8,0,1,1,2.2.6v0.2a26.2,26.2,0,0,1,4.2,1.7h0a26.2,26.2,0,0,0,1.7-4.2h0.2a1.8,1.8,0,1,0,.6-2.2H41.2a26.2,26.2,0,0,0,.5-4.5h0a26.2,26.2,0,0,1-4.5-.5v0.2a1.8,1.8,0,1,1-2.2-.6V52.4a26.2,26.2,0,0,1-4.2-1.7h0a26.2,26.2,0,0,0-1.7,4.2H28.7a1.8,1.8,0,1,0-.6,2.2h0.2a26.2,26.2,0,0,0-.5,4.5h0A26.2,26.2,0,0,1,32.3,62.3Z"/><path class="e" d="M46.2,54.1V53.9a1.8,1.8,0,1,1,2.2.6v0.2a26.2,26.2,0,0,1,4.2,1.7h0a26.2,26.2,0,0,0,1.7-4.2h0.2a1.8,1.8,0,1,0,.6-2.2H55.1a26.2,26.2,0,0,0,.5-4.5h0a26.2,26.2,0,0,1-4.5-.5v0.2a1.8,1.8,0,1,1-2.2-.6V44.1a26.2,26.2,0,0,1-4.2-1.7h0a26.2,26.2,0,0,0-1.7,4.2H42.7a1.8,1.8,0,1,0-.6,2.2h0.2a26.2,26.2,0,0,0-.5,4.5h0A26.2,26.2,0,0,1,46.2,54.1Z"/><path class="e" d="M72.7,68.6H72.5a1.8,1.8,0,1,1,.6-2.2h0.2A26.2,26.2,0,0,1,75,62.1h0a26.2,26.2,0,0,0-4.2-1.7V60.2a1.8,1.8,0,1,0-2.2-.6v0.2a26.2,26.2,0,0,0-4.5-.5h0a26.2,26.2,0,0,1-.5,4.5h0.2a1.8,1.8,0,1,1-.6,2.2H62.8a26.2,26.2,0,0,1-1.7,4.2h0A26.2,26.2,0,0,0,65.3,72v0.2a1.8,1.8,0,1,0,2.2.6V72.6a26.2,26.2,0,0,0,4.5.5h0A26.2,26.2,0,0,1,72.7,68.6Z"/><path class="b" d="M64.4,54.7H64.3a1.8,1.8,0,1,1,.6-2.2H65a26.2,26.2,0,0,1,1.7-4.2h0a26.2,26.2,0,0,0-4.2-1.7V46.2a1.8,1.8,0,1,0-2.2-.6v0.2a26.2,26.2,0,0,0-4.5-.5h0a26.2,26.2,0,0,1-.5,4.5h0.2a1.8,1.8,0,1,1-.6,2.2H54.5a26.2,26.2,0,0,1-1.7,4.2h0A26.2,26.2,0,0,0,57,58.1v0.2a1.8,1.8,0,1,0,2.2.6V58.7a26.2,26.2,0,0,0,4.5.5h0A26.2,26.2,0,0,1,64.4,54.7Z"/><path class="c" d="M54.5,68V67.8a1.8,1.8,0,1,1,2.2.6v0.2a26.2,26.2,0,0,1,4.2,1.7h0a26.2,26.2,0,0,0,1.7-4.2H63a1.8,1.8,0,1,0,.6-2.2H63.4a26.2,26.2,0,0,0,.5-4.5h0a26.2,26.2,0,0,1-4.5-.5v0.2a1.8,1.8,0,1,1-2.2-.6V58.1a26.2,26.2,0,0,1-4.2-1.7h0a26.2,26.2,0,0,0-1.7,4.2H50.9a1.8,1.8,0,1,0-.6,2.2h0.2a26.2,26.2,0,0,0-.5,4.5h0A26.2,26.2,0,0,1,54.5,68Z"/><path class="d" d="M68.4,59.8V59.6a1.8,1.8,0,1,1,2.2.6v0.2A26.2,26.2,0,0,1,75,62.1h0a26.2,26.2,0,0,0,1.7-4.2h0.2a1.8,1.8,0,1,0,.6-2.2H77.3a26.2,26.2,0,0,0,.5-4.5h0a26.2,26.2,0,0,1-4.5-.5v0.2A1.8,1.8,0,1,1,71,50V49.8a26.2,26.2,0,0,1-4.2-1.7h0A26.2,26.2,0,0,0,65,52.4H64.8a1.8,1.8,0,1,0-.6,2.2h0.2a26.2,26.2,0,0,0-.5,4.5h0A26.2,26.2,0,0,1,68.4,59.8Z"/><path class="d" d="M56.2,40.8H56a1.8,1.8,0,1,1,.6-2.2h0.2a26.2,26.2,0,0,1,1.7-4.2h0a26.2,26.2,0,0,0-4.2-1.7V32.3a1.8,1.8,0,1,0-2.2-.6v0.2a26.2,26.2,0,0,0-4.5-.5h0a26.2,26.2,0,0,1-.5,4.5H47a1.8,1.8,0,1,1-.6,2.2H46.3a26.2,26.2,0,0,1-1.7,4.2h0a26.2,26.2,0,0,0,4.2,1.7v0.2a1.8,1.8,0,1,0,2.2.6V44.7a26.2,26.2,0,0,0,4.5.5h0A26.2,26.2,0,0,1,56.2,40.8Z"/><path class="e" d="M47.9,26.8H47.8a1.8,1.8,0,1,1,.6-2.2h0.2a26.2,26.2,0,0,1,1.7-4.2h0A26.2,26.2,0,0,0,46,18.5V18.4a1.8,1.8,0,1,0-2.2-.6v0.2a26.2,26.2,0,0,0-4.5-.5h0a26.2,26.2,0,0,1-.5,4.5h0.2a1.8,1.8,0,1,1-.6,2.2H38a26.2,26.2,0,0,1-1.7,4.2h0a26.2,26.2,0,0,0,4.2,1.7v0.2a1.8,1.8,0,1,0,2.2.6V30.8a26.2,26.2,0,0,0,4.5.5h0A26.2,26.2,0,0,1,47.9,26.8Z"/><path class="b" d="M38,40.1V40a1.8,1.8,0,1,1,2.2.6v0.2a26.2,26.2,0,0,1,4.2,1.7h0a26.2,26.2,0,0,0,1.7-4.2h0.2A1.8,1.8,0,1,0,47,36H46.9a26.2,26.2,0,0,0,.5-4.5h0a26.2,26.2,0,0,1-4.5-.5V31a1.8,1.8,0,1,1-2.2-.6V30.2a26.2,26.2,0,0,1-4.2-1.7h0a26.2,26.2,0,0,0-1.7,4.2H34.4a1.8,1.8,0,1,0-.6,2.2H34a26.2,26.2,0,0,0-.5,4.5h0A26.2,26.2,0,0,1,38,40.1Z"/><path class="c" d="M51.9,31.9V31.7a1.8,1.8,0,1,1,2.2.6v0.2a26.2,26.2,0,0,1,4.2,1.7h0A26.2,26.2,0,0,0,60.2,30h0.2a1.8,1.8,0,1,0,.6-2.2H60.8a26.2,26.2,0,0,0,.5-4.5h0a26.2,26.2,0,0,1-4.5-.5v0.2a1.8,1.8,0,1,1-2.2-.6V22a26.2,26.2,0,0,1-4.2-1.7h0a26.2,26.2,0,0,0-1.7,4.2H48.3a1.8,1.8,0,1,0-.6,2.2h0.2a26.2,26.2,0,0,0-.5,4.5h0A26.2,26.2,0,0,1,51.9,31.9Z"/><path class="c" d="M78.4,46.4H78.2a1.8,1.8,0,1,1,.6-2.2H79a26.2,26.2,0,0,1,1.7-4.2h0a26.2,26.2,0,0,0-4.2-1.7V38a1.8,1.8,0,1,0-2.2-.6v0.2a26.2,26.2,0,0,0-4.5-.5h0a26.2,26.2,0,0,1-.5,4.5h0.2a1.8,1.8,0,1,1-.6,2.2H68.5a26.2,26.2,0,0,1-1.7,4.2h0A26.2,26.2,0,0,0,71,49.8V50a1.8,1.8,0,1,0,2.2.6V50.4a26.2,26.2,0,0,0,4.5.5h0A26.2,26.2,0,0,1,78.4,46.4Z"/><path class="d" d="M70.1,32.5H70a1.8,1.8,0,1,1,.6-2.2h0.2a26.2,26.2,0,0,1,1.7-4.2h0a26.2,26.2,0,0,0-4.2-1.7V24a1.8,1.8,0,1,0-2.2-.6v0.2a26.2,26.2,0,0,0-4.5-.5h0a26.2,26.2,0,0,1-.5,4.5H61a1.8,1.8,0,1,1-.6,2.2H60.2a26.2,26.2,0,0,1-1.7,4.2h0a26.2,26.2,0,0,0,4.2,1.7v0.2a1.8,1.8,0,1,0,2.2.6V36.5a26.2,26.2,0,0,0,4.5.5h0A26.2,26.2,0,0,1,70.1,32.5Z"/><path class="e" d="M60.2,45.8V45.7a1.8,1.8,0,1,1,2.2.6v0.2a26.2,26.2,0,0,1,4.2,1.7h0a26.2,26.2,0,0,0,1.7-4.2h0.2a1.8,1.8,0,1,0,.6-2.2H69.1a26.2,26.2,0,0,0,.5-4.5h0a26.2,26.2,0,0,1-4.5-.5v0.2a1.8,1.8,0,1,1-2.2-.6V35.9a26.2,26.2,0,0,1-4.2-1.7h0a26.2,26.2,0,0,0-1.7,4.2H56.6a1.8,1.8,0,1,0-.6,2.2h0.2a26.2,26.2,0,0,0-.5,4.5h0A26.2,26.2,0,0,1,60.2,45.8Z"/><path class="b" d="M74.1,37.6V37.4a1.8,1.8,0,1,1,2.2.6v0.2a26.2,26.2,0,0,1,4.2,1.7h0a26.2,26.2,0,0,0,1.7-4.2h0.2a1.8,1.8,0,1,0,.6-2.2H83a26.2,26.2,0,0,0,.5-4.5h0a26.2,26.2,0,0,1-4.5-.5v0.2a1.8,1.8,0,1,1-2.2-.6V27.6a26.2,26.2,0,0,1-4.2-1.7h0a26.2,26.2,0,0,0-1.7,4.2H70.5a1.8,1.8,0,1,0-.6,2.2h0.2a26.2,26.2,0,0,0-.5,4.5h0A26.2,26.2,0,0,1,74.1,37.6Z"/><rect class="d" x="14.2" y="82.7" width="79.8" height="18.62" rx="6" ry="6"/><path class="f" d="M29.8,92.9A4.5,4.5,0,0,1,28,92a1.7,1.7,0,0,1-.6-1.3,1.8,1.8,0,0,1,.7-1.4,2.7,2.7,0,0,1,1.8-.6,3,3,0,0,1,1.3.3,2.2,2.2,0,0,1,.9.8,2.1,2.1,0,0,1,.3,1.1h-1a1.3,1.3,0,0,0-.4-1,1.7,1.7,0,0,0-1.2-.4,1.8,1.8,0,0,0-1.1.3,1.1,1.1,0,0,0-.4.9,0.9,0.9,0,0,0,.4.8L30,92l1.4,0.6a2.2,2.2,0,0,1,.8.7,1.8,1.8,0,0,1,.2,1,1.7,1.7,0,0,1-.7,1.4,3,3,0,0,1-1.9.5,3.4,3.4,0,0,1-1.4-.3,2.4,2.4,0,0,1-1-.8,1.9,1.9,0,0,1-.4-1.1h1a1.3,1.3,0,0,0,.5,1,2.1,2.1,0,0,0,1.3.4,1.9,1.9,0,0,0,1.2-.3,1,1,0,0,0,.4-0.8,1,1,0,0,0-.4-0.8Z"/><path class="f" d="M38.2,93.5a3.3,3.3,0,0,1-.6,2,1.8,1.8,0,0,1-1.5.8,2,2,0,0,1-1.6-.6v2.6H33.6V90.7h0.8v0.6a1.9,1.9,0,0,1,1.6-.7,1.9,1.9,0,0,1,1.5.7,3.3,3.3,0,0,1,.6,2.1h0Zm-0.9-.1a2.4,2.4,0,0,0-.4-1.5,1.3,1.3,0,0,0-1.1-.5,1.4,1.4,0,0,0-1.3.7v2.6a1.4,1.4,0,0,0,1.3.7,1.3,1.3,0,0,0,1.1-.5A2.6,2.6,0,0,0,37.2,93.4Z"/><path class="f" d="M41.6,96.3a2.4,2.4,0,0,1-1.8-.7,2.7,2.7,0,0,1-.7-1.9V93.4a3.3,3.3,0,0,1,.3-1.4,2.4,2.4,0,0,1,.9-1,2.2,2.2,0,0,1,1.2-.4,2,2,0,0,1,1.6.7,3,3,0,0,1,.6,2v0.4H40a1.9,1.9,0,0,0,.5,1.3,1.5,1.5,0,0,0,1.1.5l0.8-.2,0.6-.5,0.6,0.4A2.3,2.3,0,0,1,41.6,96.3Zm-0.1-4.9a1.2,1.2,0,0,0-.9.4,2,2,0,0,0-.5,1.1h2.7a1.8,1.8,0,0,0-.4-1.1A1.2,1.2,0,0,0,41.5,91.4Z"/><path class="f" d="M47,96.3a2.4,2.4,0,0,1-1.8-.7,2.7,2.7,0,0,1-.7-1.9V93.4a3.3,3.3,0,0,1,.3-1.4,2.4,2.4,0,0,1,.9-1,2.2,2.2,0,0,1,1.2-.4,2,2,0,0,1,1.6.7,3,3,0,0,1,.6,2v0.4H45.5a1.9,1.9,0,0,0,.5,1.3,1.5,1.5,0,0,0,1.1.5l0.8-.2,0.6-.5,0.6,0.4A2.3,2.3,0,0,1,47,96.3Zm-0.1-4.9a1.2,1.2,0,0,0-.9.4,2,2,0,0,0-.5,1.1h2.7a1.8,1.8,0,0,0-.4-1.1A1.2,1.2,0,0,0,46.9,91.4Z"/><path class="f" d="M51.2,96.2H50.3V88.4h0.9v7.7Z"/><path class="f" d="M54.3,93.6l-0.6.6v1.9H52.7V88.4h0.9v4.7l0.5-.6,1.7-1.8H57L54.9,93l2.4,3.2H56.1Z"/><path class="f" d="M61.3,96.2a2,2,0,0,1-.1-0.6,2.1,2.1,0,0,1-1.5.7,1.9,1.9,0,0,1-1.3-.5,1.5,1.5,0,0,1-.5-1.2,1.5,1.5,0,0,1,.6-1.3,3,3,0,0,1,1.8-.5h0.9V92.4a1,1,0,0,0-.3-0.8,1.2,1.2,0,0,0-.9-0.3,1.4,1.4,0,0,0-.8.3,0.7,0.7,0,0,0-.3.6H57.9a1.3,1.3,0,0,1,.3-0.8,2,2,0,0,1,.8-0.6l1.1-.2a2.1,2.1,0,0,1,1.5.5,1.7,1.7,0,0,1,.6,1.3v2.5a3.1,3.1,0,0,0,.2,1.2h-1Zm-1.5-.7,0.8-.2a1.4,1.4,0,0,0,.6-0.6V93.5H60.4q-1.7,0-1.7,1a0.8,0.8,0,0,0,.3.7A1.1,1.1,0,0,0,59.8,95.5Z"/><path class="f" d="M64.4,90.7v0.6a2,2,0,0,1,1.6-.7,1.6,1.6,0,0,1,1.6.9l0.7-.6,1-.2a1.7,1.7,0,0,1,1.8,1.9v3.6H70.2V92.6a1.2,1.2,0,0,0-.3-0.9,1.2,1.2,0,0,0-.9-0.3,1.2,1.2,0,0,0-.9.3,1.3,1.3,0,0,0-.4.8v3.6H66.9V92.6a1,1,0,0,0-1.2-1.2,1.2,1.2,0,0,0-1.3.8v4H63.5V90.7h0.9Z"/><path class="f" d="M74.8,96.3a2.4,2.4,0,0,1-1.8-.7,2.7,2.7,0,0,1-.7-1.9V93.4a3.3,3.3,0,0,1,.3-1.4,2.4,2.4,0,0,1,.9-1,2.2,2.2,0,0,1,1.2-.4,2,2,0,0,1,1.6.7,3,3,0,0,1,.6,2v0.4H73.3a1.9,1.9,0,0,0,.5,1.3,1.5,1.5,0,0,0,1.1.5l0.8-.2,0.6-.5,0.6,0.4A2.3,2.3,0,0,1,74.8,96.3Zm-0.1-4.9a1.2,1.2,0,0,0-.9.4,2,2,0,0,0-.5,1.1H76a1.8,1.8,0,0,0-.4-1.1A1.2,1.2,0,0,0,74.7,91.4Z"/><path class="f" d="M80.6,91.6H80.2a1.2,1.2,0,0,0-1.2.8v3.9H78V90.7h0.9v0.6a1.4,1.4,0,0,1,1.3-.7h0.4v0.9Z"/></svg>