<svg xmlns="http://www.w3.org/2000/svg" viewBox="0 0 108 108"><defs><style>.a{fill:#fff;}.b{fill:#ecebe9;}.c{fill:#2f373a;}.d{fill:#161616;}.e{fill:#f1f1f1;}.f{fill:#da6565;}.g{fill:#639a41;}.h{fill:#ff854f;}.i{fill:#fbb972;opacity:0.41;}.j{fill:#ffe4a6;}.k{fill:#fcb415;}.l{fill:#281b03;}</style></defs><title>leukedingen-images</title><circle class="a" cx="54" cy="54" r="36"/><path class="b" d="M58.2,21.1c-1.9,9.4-1,16.4-1.6,19.1a1.4,1.4,0,0,0,0,.7c0.3,1.3,2.7,1.5,3.9,2a1.7,1.7,0,0,0,.9.2h0.6c2.3-2.8,4.2-5.3,5.8-7.6a64.2,64.2,0,0,1-6.3-8.7C60.5,25,59.4,23.2,58.2,21.1Z"/><path class="c" d="M58.2,41.1V40.4A4.2,4.2,0,0,0,58.2,41.1Z"/><polygon class="c" points="60.5 42.4 60.5 42.4 60.5 42.4 60.5 42.4"/><path class="c" d="M65.6,13.7l5.2,2.7"/><path class="c" d="M60.5,24.9c-1.5,7.1-1.7,13.3-2.2,15.8,0.3,0.8,1.4,1.1,1.9,1.6l0.3,0.2c2.3-3.3,4.5-6.4,5.9-8.7a79.6,79.6,0,0,1-4.9-7.1Z"/><path class="c" d="M60.8,42.4h0Z"/><path class="b" d="M84.9,30.8c-0.2-1.8-1-3-2.2-4.7a21.8,21.8,0,0,0-4.6-4.7l-1.6-1.2a61.6,61.6,0,0,0-5.7-3.7l-5.2-2.7-1.2-.6c-1.9-.4-3.2.5-4.4,1.8a24.5,24.5,0,0,0-1.1,3.5c-0.2,1-.4,1.9-0.6,2.8l2.3,3.8,1,1.6a79.6,79.6,0,0,0,4.9,7.1l1.3,1.6a10.7,10.7,0,0,0,4.7,3.4c1,0.3,5.3,1.8,8.9-.6A8.3,8.3,0,0,0,84.9,30.8Z"/><path class="b" d="M41.9,41.1h0.2a1.7,1.7,0,0,0,.9-0.2c1.2-.6,3.5-0.7,3.9-2a1.4,1.4,0,0,0,0-.7c-0.6-2.9.5-11.1-2.2-21.8a21.8,21.8,0,0,0-2.4-6.1c-1.1-1.8-1.8-3.1-3.4-4a8.3,8.3,0,0,0-8.1.3C27,9,26.6,13.5,26.5,14.6s0.2,5.4,6.6,15c2,3,4.8,6.9,8.5,11.4h0.4Z"/><path class="c" d="M42.6,40.6h0.1a0.7,0.7,0,0,0,.5-0.2c0.6-.5,1.9-0.8,2-1.9a4.2,4.2,0,0,1,0,.8c-0.6-2.4-.6-10.5-3-19.3a23.9,23.9,0,0,0-1.8-4.9A7.9,7.9,0,0,0,38.2,12a3.2,3.2,0,0,0-4.5.7c-2.6,3.7-1.8,5.8-1.7,6.7s0.5,4.5,4.8,12.1c1.3,2.4,3.7,5.6,6.1,9.1H42.6Z"/><path class="b" d="M71.3,55.3C71.3,65.4,64.7,72,52.1,72S32.8,65.4,32.8,55.3s8.1-18.2,19.2-18.2S71.3,45.2,71.3,55.3Z"/><path class="d" d="M49.9,60h4.3a0.8,0.8,0,0,1,.7,1.4l-2.2,2.7a0.8,0.8,0,0,1-1.3,0l-2.2-2.7A0.8,0.8,0,0,1,49.9,60Z"/><path class="d" d="M55.5,65.7a3.8,3.8,0,0,1-3.1,1.5V61.6H51.7v5.6a3.8,3.8,0,0,1-3.1-1.5l-0.6.4A4.5,4.5,0,0,0,51.8,68h0.6a4.5,4.5,0,0,0,3.8-1.8Z"/><ellipse class="d" cx="59.5" cy="50.9" rx="3" ry="4.4"/><circle class="e" cx="59.1" cy="48.8" r="1"/><ellipse class="d" cx="44.5" cy="50.9" rx="3" ry="4.4"/><circle class="e" cx="44" cy="48.8" r="1"/><ellipse class="f" cx="63.3" cy="58.8" rx="4.2" ry="2"/><ellipse class="f" cx="40.8" cy="58.8" rx="4.2" ry="2"/><polygon class="g" points="80.8 38.3 78.1 48.3 80.6 50.1 88.9 43.8 87.4 42.8 83.5 45.2 88.4 38.6 87.4 37.9 81.4 46.6 84.5 39.3 83.2 38.3 80.4 43.8 81.7 39 80.8 38.3"/><path class="h" d="M82.5,52.8a5.4,5.4,0,0,0-2.5-4.7,5.8,5.8,0,0,0-4.3-.8l1.7,1.2a0.1,0.1,0,0,1,0,.2H77.2l-1.9-1.3a4.4,4.4,0,0,0-1.4.6,4.1,4.1,0,0,0-1.1,1.2l-0.5.8,1,0.7a0.1,0.1,0,0,1,0,.2H73.1l-1-.7-3.5,5.5,1.2,0.8a0.1,0.1,0,0,1,0,.2H69.7l-1.2-.8A52.8,52.8,0,0,0,65.6,61l-0.5,1,2.2,1.6a0.1,0.1,0,0,1,0,.2H67.3l-2.2-1.5c-0.4,1-.5,1.3-2.4,5.5v0.2L65.7,70a0.1,0.1,0,0,1,0,.2H65.6L62.5,68l-2.4,6.1v0.3l1.5,1.1a0.1,0.1,0,0,1,0,.2H61.3l-1.5-1c-0.6,1.5-.9,2.3-0.6,2.5s1.3-.3,3.9-2.4l1.5-1.3-1.5-1.1a0.1,0.1,0,0,1,0-.2h0.2l1.6,1.1c2.8-2.4,4.7-4.3,5.5-5.1l0.3-.3-1.9-1.3a0.1,0.1,0,0,1,0-.2h0.2l1.9,1.3c2.2-2.2,3.4-3.5,5.1-5.4l4.6-6C81.8,54.7,82.4,54,82.5,52.8Zm-10,9.6-2.4-1.6a0.1,0.1,0,0,1,0-.2h0.2l2.4,1.6a0.1,0.1,0,0,1,0,.2H72.4Zm4.8-4.2-2.4-1.6a0.1,0.1,0,0,1,0-.2H75l2.4,1.6a0.1,0.1,0,0,1,0,.2H77.2Zm3.3-4.7L78.2,52a0.1,0.1,0,0,1,0-.2h0.2l2.4,1.6a0.1,0.1,0,0,1,0,.2H80.5Z"/><path class="i" d="M75.5,48.1c-1.8.9-2.6,2.3-4.2,4.8-2.6,4.2-2.7,3.9-4,6.3s-2.1,4.2-1.9,4.4,1.5-2.7,4.5-6.4,5.5-7,6.1-7.7,1.4-1.5,1.2-1.8S75.7,48.1,75.5,48.1Z"/><path class="j" d="M80.7,53.4l-2.4-1.6H78.1a0.1,0.1,0,0,0,0,.2l2.4,1.6h0.2A0.1,0.1,0,0,0,80.7,53.4Z"/><path class="j" d="M77.4,48.6a0.1,0.1,0,0,0,0-.2l-1.7-1.2H75.4l1.9,1.3h0.2Z"/><path class="j" d="M73.3,50.9a0.1,0.1,0,0,0,0-.2l-1-.7v0.2l1,0.7h0.2Z"/><path class="j" d="M77.3,58.2L75,56.5H74.8a0.1,0.1,0,0,0,0,.2l2.4,1.6h0.2A0.1,0.1,0,0,0,77.3,58.2Z"/><path class="j" d="M69.8,56.8a0.1,0.1,0,0,0,0-.2l-1.2-.8v0.2l1.2,0.8h0.2Z"/><path class="j" d="M72.6,62.3l-2.4-1.6H70.1a0.1,0.1,0,0,0,0,.2l2.4,1.6h0.2A0.1,0.1,0,0,0,72.6,62.3Z"/><path class="j" d="M68.7,66.5a0.1,0.1,0,0,0,0,.2L70.6,68l0.2-.2-1.9-1.3H68.7Z"/><path class="j" d="M67.4,63.7a0.1,0.1,0,0,0,0-.2L65.2,62v0.2l2.2,1.5h0.2Z"/><path class="j" d="M65.7,70.1a0.1,0.1,0,0,0,0-.2l-3.1-2.2V68l3.1,2.1h0.2Z"/><path class="j" d="M63.1,72.3a0.1,0.1,0,0,0,0,.2l1.5,1.1h0.2l-1.6-1.1H63.1Z"/><path class="j" d="M61.5,75.7a0.1,0.1,0,0,0,0-.2l-1.5-1.1v0.2l1.5,1h0.2Z"/><rect class="k" x="14" y="82.7" width="79.8" height="18.62" rx="6" ry="6"/><path class="l" d="M23.6,96.2V88.8h2.1a3.3,3.3,0,0,1,1.7.4,2.8,2.8,0,0,1,1.1,1.2,3.9,3.9,0,0,1,.4,1.8v0.5a3.9,3.9,0,0,1-.4,1.8,2.8,2.8,0,0,1-1.1,1.2,3.5,3.5,0,0,1-1.7.4h-2Zm1-6.5v5.7h1a2.2,2.2,0,0,0,1.7-.7,2.9,2.9,0,0,0,.6-2V92.3a2.9,2.9,0,0,0-.6-1.9,2.1,2.1,0,0,0-1.7-.7H24.5Z"/><path class="l" d="M30.2,89.3a0.6,0.6,0,0,1,.1-0.4l0.4-.2,0.4,0.2a0.5,0.5,0,0,1,.1.4,0.5,0.5,0,0,1-.1.4l-0.4.2-0.4-.2A0.5,0.5,0,0,1,30.2,89.3Zm1,6.9H30.3V90.7h0.9v5.4Z"/><path class="l" d="M34.9,96.3a2.4,2.4,0,0,1-1.8-.7,2.7,2.7,0,0,1-.7-1.9V93.4a3.3,3.3,0,0,1,.3-1.4,2.4,2.4,0,0,1,.9-1,2.2,2.2,0,0,1,1.2-.4,2,2,0,0,1,1.6.7,3,3,0,0,1,.6,2v0.4H33.4a1.9,1.9,0,0,0,.5,1.3,1.5,1.5,0,0,0,1.1.5l0.8-.2,0.6-.5L37,95.2A2.3,2.3,0,0,1,34.9,96.3Zm-0.1-4.9a1.2,1.2,0,0,0-.9.4,2,2,0,0,0-.5,1.1h2.7a1.8,1.8,0,0,0-.4-1.1A1.2,1.2,0,0,0,34.8,91.4Z"/><path class="l" d="M40.7,91.6H40.3a1.2,1.2,0,0,0-1.2.8v3.9H38.1V90.7H39v0.6a1.4,1.4,0,0,1,1.3-.7h0.4v0.9Z"/><path class="l" d="M43.8,96.3a2.4,2.4,0,0,1-1.8-.7,2.7,2.7,0,0,1-.7-1.9V93.4a3.3,3.3,0,0,1,.3-1.4,2.4,2.4,0,0,1,.9-1,2.2,2.2,0,0,1,1.2-.4,2,2,0,0,1,1.6.7,3,3,0,0,1,.6,2v0.4H42.2a1.9,1.9,0,0,0,.5,1.3,1.5,1.5,0,0,0,1.1.5l0.8-.2,0.6-.5,0.6,0.4A2.3,2.3,0,0,1,43.8,96.3Zm-0.1-4.9a1.2,1.2,0,0,0-.9.4,2,2,0,0,0-.5,1.1h2.7a1.8,1.8,0,0,0-.4-1.1A1.2,1.2,0,0,0,43.6,91.4Z"/><path class="l" d="M47.8,90.7v0.7a2,2,0,0,1,1.6-.8q1.7,0,1.7,1.9v3.6H50.3V92.6a1.3,1.3,0,0,0-.3-0.9,1.1,1.1,0,0,0-.8-0.3l-0.8.2a1.6,1.6,0,0,0-.5.6v3.9H47V90.7h0.9Z"/><path class="l" d="M57.2,93.5a3.2,3.2,0,0,1-.6,2,1.8,1.8,0,0,1-1.5.8,1.9,1.9,0,0,1-1.6-.7v0.6H52.6V88.4h0.9v2.9a1.9,1.9,0,0,1,1.6-.7,1.8,1.8,0,0,1,1.6.7,3.3,3.3,0,0,1,.6,2h0Zm-0.9-.1a2.5,2.5,0,0,0-.4-1.5,1.2,1.2,0,0,0-1.1-.5,1.4,1.4,0,0,0-1.3.9v2.4a1.4,1.4,0,0,0,1.3.9,1.2,1.2,0,0,0,1-.5A2.7,2.7,0,0,0,56.3,93.4Z"/><path class="l" d="M60.7,96.3a2.4,2.4,0,0,1-1.8-.7,2.7,2.7,0,0,1-.7-1.9V93.4a3.3,3.3,0,0,1,.3-1.4,2.4,2.4,0,0,1,.9-1,2.2,2.2,0,0,1,1.2-.4,2,2,0,0,1,1.6.7,3,3,0,0,1,.6,2v0.4H59.1a1.9,1.9,0,0,0,.5,1.3,1.5,1.5,0,0,0,1.1.5l0.8-.2,0.6-.5,0.6,0.4A2.3,2.3,0,0,1,60.7,96.3Zm-0.1-4.9a1.2,1.2,0,0,0-.9.4,2,2,0,0,0-.5,1.1h2.7a1.8,1.8,0,0,0-.4-1.1A1.2,1.2,0,0,0,60.5,91.4Z"/><path class="l" d="M64.7,95.4h3.2v0.8H63.6V95.5l3-4h-3V90.7h4.1v0.7Z"/><path class="l" d="M68.6,93.4a3.2,3.2,0,0,1,.3-1.4,2.3,2.3,0,0,1,.9-1,2.4,2.4,0,0,1,1.3-.3,2.3,2.3,0,0,1,1.8.8,3,3,0,0,1,.7,2h0a3.2,3.2,0,0,1-.3,1.4,2.3,2.3,0,0,1-.9,1,2.4,2.4,0,0,1-1.3.4,2.3,2.3,0,0,1-1.8-.8,2.9,2.9,0,0,1-.7-2h0Zm0.9,0.1A2.3,2.3,0,0,0,70,95a1.4,1.4,0,0,0,2.2,0,2.5,2.5,0,0,0,.4-1.6,2.3,2.3,0,0,0-.4-1.5,1.4,1.4,0,0,0-1.1-.6,1.3,1.3,0,0,0-1.1.5A2.5,2.5,0,0,0,69.6,93.5Z"/><path class="l" d="M77,96.3a2.4,2.4,0,0,1-1.8-.7,2.7,2.7,0,0,1-.7-1.9V93.4a3.3,3.3,0,0,1,.3-1.4,2.4,2.4,0,0,1,.9-1,2.2,2.2,0,0,1,1.2-.4,2,2,0,0,1,1.6.7,3,3,0,0,1,.6,2v0.4H75.4a1.9,1.9,0,0,0,.5,1.3,1.5,1.5,0,0,0,1.1.5l0.8-.2,0.6-.5L79,95.2A2.3,2.3,0,0,1,77,96.3Zm-0.1-4.9a1.2,1.2,0,0,0-.9.4,2,2,0,0,0-.5,1.1h2.7a1.8,1.8,0,0,0-.4-1.1A1.2,1.2,0,0,0,76.9,91.4Z"/><path class="l" d="M81.7,93.6l-0.6.6v1.9H80.2V88.4h0.9v4.7l0.5-.6,1.7-1.8h1.1L82.3,93l2.4,3.2H83.6Z"/></svg>