<svg xmlns="http://www.w3.org/2000/svg" viewBox="0 0 108 108"><defs><style>.a{fill:#fff;}.b{fill:#65873b;}.c{fill:#f48452;}.d{fill:#004949;}.e{fill:#00787b;}.f{fill:#db602d;}.g{fill:#76a140;}.h{fill:#fcb415;}.i{fill:#281b03;}</style></defs><title>leukedingen-images</title><circle class="a" cx="54" cy="54" r="36"/><path class="b" d="M31.5,71.7h5.1a2.3,2.3,0,0,0,.1-0.5c0.1-1,.4-5.5.3-5a35.5,35.5,0,0,1-1.6,3.2,41.5,41.5,0,0,0,1.1-7.1,17.3,17.3,0,0,0-2,4.2h0a16.2,16.2,0,0,0-.8-4.3,40.6,40.6,0,0,0-.3,4.6l-1.5-3.4c-0.5-1,0,3.2.6,5.6a9.5,9.5,0,0,1-2.3-3.6S30.3,70.7,31.5,71.7Z"/><path class="b" d="M94.6,71.4H89.5a2.3,2.3,0,0,1-.1-0.5c-0.1-1-.4-5.5-0.3-5a35.5,35.5,0,0,0,1.6,3.2A41.5,41.5,0,0,1,89.6,62a17.3,17.3,0,0,1,2,4.2h0a16.2,16.2,0,0,1,.8-4.3,40.5,40.5,0,0,1,.3,4.6l1.5-3.4c0.5-1,0,3.2-.6,5.6a9.5,9.5,0,0,0,2.3-3.6S95.7,70.4,94.6,71.4Z"/><path class="c" d="M32.9,71.7l4.2-37.8a3.8,3.8,0,0,1,4.1-3.6H79.1a3.8,3.8,0,0,1,4,3.6l4.2,37.8H91L86.8,33.5a7.5,7.5,0,0,0-7.7-6.8H41.2a7.5,7.5,0,0,0-7.8,6.8L29.2,71.7h3.7Z"/><rect class="d" x="24.4" y="34.9" width="9.6" height="3.68" rx="0.7" ry="0.7"/><rect class="d" x="23.1" y="44.9" width="9.6" height="3.68" rx="0.7" ry="0.7"/><rect class="d" x="22.3" y="54.8" width="9.6" height="3.68" rx="0.7" ry="0.7"/><rect class="d" x="21.5" y="64.7" width="9.6" height="3.68" rx="0.7" ry="0.7"/><path class="e" d="M21.9,71.7l4.2-37.8a3.8,3.8,0,0,1,4.1-3.6H68.1a3.8,3.8,0,0,1,4,3.6l4.2,37.8H80L75.7,33.5A7.5,7.5,0,0,0,68,26.7H30.2a7.5,7.5,0,0,0-7.8,6.8L18.2,71.7h3.7Z"/><rect class="f" x="75.2" y="34.9" width="9.6" height="3.68" rx="0.7" ry="0.7"/><rect class="f" x="76.5" y="44.9" width="9.6" height="3.68" rx="0.7" ry="0.7"/><rect class="f" x="77.3" y="54.8" width="9.6" height="3.68" rx="0.7" ry="0.7"/><rect class="f" x="78.1" y="64.7" width="9.6" height="3.68" rx="0.7" ry="0.7"/><path class="g" d="M88.6,72.8h5.1a2.3,2.3,0,0,0,.1-0.5c0.1-1,.4-5.5.3-5a35.5,35.5,0,0,1-1.6,3.2,41.5,41.5,0,0,0,1.1-7.1,17.3,17.3,0,0,0-2,4.2h0a16.2,16.2,0,0,0-.8-4.3,40.6,40.6,0,0,0-.3,4.6L89,64.6c-0.5-1,0,3.2.6,5.6a9.5,9.5,0,0,1-2.3-3.6S87.5,71.8,88.6,72.8Z"/><path class="g" d="M16.9,71.9H22a2.3,2.3,0,0,0,.1-0.5c0.1-1,.4-5.5.3-5a35.5,35.5,0,0,1-1.6,3.2,41.5,41.5,0,0,0,1.1-7.1,17.3,17.3,0,0,0-2,4.2h0a16.2,16.2,0,0,0-.8-4.3,40.6,40.6,0,0,0-.3,4.6l-1.5-3.4c-0.5-1,0,3.2.6,5.6a9.5,9.5,0,0,1-2.3-3.6S15.7,70.8,16.9,71.9Z"/><rect class="h" x="14.2" y="82.7" width="79.8" height="18.62" rx="6" ry="6"/><path class="i" d="M35.8,92.9A4.5,4.5,0,0,1,34,92a1.7,1.7,0,0,1-.6-1.3,1.8,1.8,0,0,1,.7-1.4,2.7,2.7,0,0,1,1.8-.6,3,3,0,0,1,1.3.3,2.2,2.2,0,0,1,.9.8,2.1,2.1,0,0,1,.3,1.1h-1a1.3,1.3,0,0,0-.4-1,1.7,1.7,0,0,0-1.2-.4,1.8,1.8,0,0,0-1.1.3,1.1,1.1,0,0,0-.4.9,0.9,0.9,0,0,0,.4.8L36.1,92l1.4,0.6a2.2,2.2,0,0,1,.8.7,1.8,1.8,0,0,1,.2,1,1.7,1.7,0,0,1-.7,1.4,3,3,0,0,1-1.9.5,3.4,3.4,0,0,1-1.4-.3,2.4,2.4,0,0,1-1-.8,1.9,1.9,0,0,1-.4-1.1h1a1.3,1.3,0,0,0,.5,1,2.1,2.1,0,0,0,1.3.4,1.9,1.9,0,0,0,1.2-.3,1,1,0,0,0,.4-0.8,1,1,0,0,0-.4-0.8Z"/><path class="i" d="M44.2,93.5a3.3,3.3,0,0,1-.6,2,1.8,1.8,0,0,1-1.5.8,2,2,0,0,1-1.6-.6v2.6H39.6V90.7h0.8v0.6a1.9,1.9,0,0,1,1.6-.7,1.9,1.9,0,0,1,1.5.7,3.3,3.3,0,0,1,.6,2.1h0Zm-0.9-.1a2.4,2.4,0,0,0-.4-1.5,1.3,1.3,0,0,0-1.1-.5,1.4,1.4,0,0,0-1.3.7v2.6a1.4,1.4,0,0,0,1.3.7,1.3,1.3,0,0,0,1.1-.5A2.6,2.6,0,0,0,43.3,93.4Z"/><path class="i" d="M47.7,96.3a2.4,2.4,0,0,1-1.8-.7,2.7,2.7,0,0,1-.7-1.9V93.4a3.3,3.3,0,0,1,.3-1.4,2.4,2.4,0,0,1,.9-1,2.2,2.2,0,0,1,1.2-.4,2,2,0,0,1,1.6.7,3,3,0,0,1,.6,2v0.4H46.1a1.9,1.9,0,0,0,.5,1.3,1.5,1.5,0,0,0,1.1.5l0.8-.2,0.6-.5,0.6,0.4A2.3,2.3,0,0,1,47.7,96.3Zm-0.1-4.9a1.2,1.2,0,0,0-.9.4,2,2,0,0,0-.5,1.1h2.7a1.8,1.8,0,0,0-.4-1.1A1.2,1.2,0,0,0,47.5,91.4Z"/><path class="i" d="M53.1,96.3a2.4,2.4,0,0,1-1.8-.7,2.7,2.7,0,0,1-.7-1.9V93.4a3.3,3.3,0,0,1,.3-1.4,2.4,2.4,0,0,1,.9-1,2.2,2.2,0,0,1,1.2-.4,2,2,0,0,1,1.6.7,3,3,0,0,1,.6,2v0.4H51.6A1.9,1.9,0,0,0,52,95a1.5,1.5,0,0,0,1.1.5l0.8-.2,0.6-.5,0.6,0.4A2.3,2.3,0,0,1,53.1,96.3ZM53,91.4a1.2,1.2,0,0,0-.9.4,2,2,0,0,0-.5,1.1h2.7a1.8,1.8,0,0,0-.4-1.1A1.2,1.2,0,0,0,53,91.4Z"/><path class="i" d="M57.3,96.2H56.4V88.4h0.9v7.7Z"/><path class="i" d="M60.1,89.4v1.3h1v0.7h-1v3.4a0.8,0.8,0,0,0,.1.5l0.5,0.2h0.4v0.7H60.4a1.2,1.2,0,0,1-.9-0.4,1.6,1.6,0,0,1-.3-1.1V91.4h-1V90.7h1V89.4h0.9Z"/><path class="i" d="M65.5,95.6a2,2,0,0,1-1.6.6,1.7,1.7,0,0,1-1.3-.5,2.2,2.2,0,0,1-.5-1.5V90.7h0.9v3.5a1,1,0,0,0,1,1.2,1.4,1.4,0,0,0,1.4-.8v-4h0.9v5.4H65.5V95.6Z"/><path class="i" d="M67.8,89.3a0.6,0.6,0,0,1,.1-0.4l0.4-.2,0.4,0.2a0.5,0.5,0,0,1,.1.4,0.5,0.5,0,0,1-.1.4l-0.4.2L68,89.7A0.5,0.5,0,0,1,67.8,89.3Zm1,6.9H67.9V90.7h0.9v5.4Z"/><path class="i" d="M71.2,90.7v0.7a2,2,0,0,1,1.6-.8q1.7,0,1.7,1.9v3.6H73.7V92.6a1.3,1.3,0,0,0-.3-0.9,1.1,1.1,0,0,0-.8-0.3l-0.8.2a1.6,1.6,0,0,0-.5.6v3.9H70.3V90.7h0.9Z"/></svg>