<svg xmlns="http://www.w3.org/2000/svg" viewBox="0 0 108 108"><defs><style>.a{fill:#fff;}.b{fill:#fcb415;}.c{fill:#281b03;}.d{fill:#6d6e70;}.e{fill:#bbbdbf;}.f{fill:#2b388f;}.g{fill:#3f4f91;}.h{fill:#707fb6;}.i{fill:#5d6693;}.j{fill:#5c6aad;}.k{fill:#7d8ab6;}.l{fill:#6776aa;}.m{fill:#ea6798;}.n{fill:#cada2a;}.o{fill:#d0dc27;}</style></defs><title>leukedingen-images</title><circle class="a" cx="54" cy="54" r="36"/><rect class="b" x="14" y="82.7" width="79.8" height="18.62" rx="6" ry="6"/><path class="c" d="M24.2,92.9a4.5,4.5,0,0,1-1.8-.9,1.7,1.7,0,0,1-.6-1.3,1.8,1.8,0,0,1,.7-1.4,2.7,2.7,0,0,1,1.8-.6,3,3,0,0,1,1.3.3,2.2,2.2,0,0,1,.9.8,2.1,2.1,0,0,1,.3,1.1h-1a1.3,1.3,0,0,0-.4-1,1.7,1.7,0,0,0-1.2-.4,1.8,1.8,0,0,0-1.1.3,1,1,0,0,0-.4.9,0.9,0.9,0,0,0,.4.8L24.4,92l1.4,0.6a2.2,2.2,0,0,1,.8.7,1.8,1.8,0,0,1,.2,1,1.7,1.7,0,0,1-.7,1.4,3,3,0,0,1-1.9.5,3.4,3.4,0,0,1-1.4-.3,2.4,2.4,0,0,1-1-.8,1.9,1.9,0,0,1-.4-1.1h1a1.3,1.3,0,0,0,.5,1,2.1,2.1,0,0,0,1.3.4,1.9,1.9,0,0,0,1.2-.3,1,1,0,0,0,.4-0.8,1,1,0,0,0-.4-0.8Z"/><path class="c" d="M28.8,90.7v0.7a2,2,0,0,1,1.6-.8q1.7,0,1.7,1.9v3.6H31.3V92.6a1.3,1.3,0,0,0-.3-0.9,1.1,1.1,0,0,0-.8-0.3l-0.8.2a1.6,1.6,0,0,0-.5.6v3.9H28V90.7h0.9Z"/><path class="c" d="M33.4,93.4a3.2,3.2,0,0,1,.3-1.4,2.3,2.3,0,0,1,.9-1,2.4,2.4,0,0,1,1.3-.3,2.3,2.3,0,0,1,1.8.8,3,3,0,0,1,.7,2h0a3.2,3.2,0,0,1-.3,1.4,2.3,2.3,0,0,1-.9,1,2.4,2.4,0,0,1-1.3.4,2.3,2.3,0,0,1-1.8-.8,2.9,2.9,0,0,1-.7-2h0Zm0.9,0.1a2.3,2.3,0,0,0,.4,1.5,1.4,1.4,0,0,0,2.2,0,2.5,2.5,0,0,0,.4-1.6,2.3,2.3,0,0,0-.4-1.5,1.4,1.4,0,0,0-1.1-.6,1.3,1.3,0,0,0-1.1.5A2.5,2.5,0,0,0,34.3,93.5Z"/><path class="c" d="M41.8,96.3a2.4,2.4,0,0,1-1.8-.7,2.7,2.7,0,0,1-.7-1.9V93.4a3.3,3.3,0,0,1,.3-1.4,2.4,2.4,0,0,1,.9-1,2.2,2.2,0,0,1,1.2-.4,2,2,0,0,1,1.6.7,3,3,0,0,1,.6,2v0.4H40.2a1.9,1.9,0,0,0,.5,1.3,1.5,1.5,0,0,0,1.1.5l0.8-.2,0.6-.5,0.6,0.4A2.3,2.3,0,0,1,41.8,96.3Zm-0.1-4.9a1.2,1.2,0,0,0-.9.4,2,2,0,0,0-.5,1.1H43a1.8,1.8,0,0,0-.4-1.1A1.2,1.2,0,0,0,41.6,91.4Z"/><path class="c" d="M45.8,95.4H49v0.8H44.7V95.5l3-4h-3V90.7h4.1v0.7Z"/><path class="c" d="M52.2,96.3a2.4,2.4,0,0,1-1.8-.7,2.7,2.7,0,0,1-.7-1.9V93.4a3.3,3.3,0,0,1,.3-1.4,2.4,2.4,0,0,1,.9-1,2.2,2.2,0,0,1,1.2-.4,2,2,0,0,1,1.6.7,3,3,0,0,1,.6,2v0.4H50.7a1.9,1.9,0,0,0,.5,1.3,1.5,1.5,0,0,0,1.1.5l0.8-.2,0.6-.5,0.6,0.4A2.3,2.3,0,0,1,52.2,96.3Zm-0.1-4.9a1.2,1.2,0,0,0-.9.4,2,2,0,0,0-.5,1.1h2.7a1.8,1.8,0,0,0-.4-1.1A1.2,1.2,0,0,0,52.1,91.4Z"/><path class="c" d="M56.4,96.2H55.5V88.4h0.9v7.7Z"/><path class="c" d="M60.6,91.6H60.1a1.2,1.2,0,0,0-1.2.8v3.9H57.9V90.7h0.9v0.6a1.4,1.4,0,0,1,1.3-.7h0.4v0.9Z"/><path class="c" d="M64.8,95.6a2,2,0,0,1-1.6.6,1.7,1.7,0,0,1-1.3-.5,2.2,2.2,0,0,1-.5-1.5V90.7h0.9v3.5a1,1,0,0,0,1,1.2,1.4,1.4,0,0,0,1.4-.8v-4h0.9v5.4H64.8V95.6Z"/><path class="c" d="M67.1,89.3a0.6,0.6,0,0,1,.1-0.4l0.4-.2L68,88.9a0.5,0.5,0,0,1,.1.4,0.5,0.5,0,0,1-.1.4l-0.4.2-0.4-.2A0.5,0.5,0,0,1,67.1,89.3Zm1,6.9H67.2V90.7h0.9v5.4Z"/><path class="c" d="M70.4,90.7v0.6a2,2,0,0,1,1.6-.7,1.6,1.6,0,0,1,1.6.9l0.7-.6,1-.2a1.7,1.7,0,0,1,1.8,1.9v3.6H76.3V92.6a1.2,1.2,0,0,0-.3-0.9,1.2,1.2,0,0,0-.9-0.3,1.2,1.2,0,0,0-.9.3,1.3,1.3,0,0,0-.4.8v3.6H72.9V92.6a1,1,0,0,0-1.2-1.2,1.2,1.2,0,0,0-1.3.8v4H69.6V90.7h0.9Z"/><path class="c" d="M79.9,89.4v1.3h1v0.7h-1v3.4a0.8,0.8,0,0,0,.1.5l0.5,0.2h0.4v0.7H80.2a1.2,1.2,0,0,1-.9-0.4,1.6,1.6,0,0,1-.3-1.1V91.4h-1V90.7h1V89.4h0.9Z"/><path class="c" d="M84.2,96.3a2.4,2.4,0,0,1-1.8-.7,2.7,2.7,0,0,1-.7-1.9V93.4A3.3,3.3,0,0,1,82,92a2.4,2.4,0,0,1,.9-1,2.2,2.2,0,0,1,1.2-.4,2,2,0,0,1,1.6.7,3,3,0,0,1,.6,2v0.4H82.6a1.9,1.9,0,0,0,.5,1.3,1.5,1.5,0,0,0,1.1.5l0.8-.2,0.6-.5,0.6,0.4A2.3,2.3,0,0,1,84.2,96.3Zm-0.1-4.9a1.2,1.2,0,0,0-.9.4,2,2,0,0,0-.5,1.1h2.7a1.8,1.8,0,0,0-.4-1.1A1.2,1.2,0,0,0,84.1,91.4Z"/><path class="d" d="M43.2,61.7V74.6c0,2,4.7,3.7,10.5,3.7s10.7-1.7,10.7-3.7V61.7H43.2Z"/><path class="e" d="M64.4,61.7c0,2-4.9,3.7-10.7,3.7s-10.5-1.7-10.5-3.7S47.9,58,53.7,58,64.4,59.7,64.4,61.7Z"/><polygon class="f" points="60.1 60.8 53.9 61.1 47.5 60.8 47.5 8.6 60.1 8.6 60.1 60.8"/><path class="f" d="M60.1,8.6c0,1.4-2.9,2.6-6.3,2.6s-6.2-1.2-6.2-2.6S50.3,6,53.7,6,60.1,7.2,60.1,8.6Z"/><path class="f" d="M60.1,60.7c0,1.4-2.9,2.6-6.3,2.6s-6.2-1.2-6.2-2.6,2.8-2.6,6.2-2.6S60.1,59.3,60.1,60.7Z"/><path class="g" d="M54,17.3a1.9,1.9,0,0,1-3.8,0A1.9,1.9,0,0,1,54,17.3Z"/><path class="a" d="M51.8,16.3a0.4,0.4,0,0,1-.8,0A0.4,0.4,0,1,1,51.8,16.3Z"/><path class="h" d="M57.4,17.1a1.4,1.4,0,0,1-2.7,0A1.4,1.4,0,0,1,57.4,17.1Z"/><path class="a" d="M55.8,16.4a0.3,0.3,0,0,1-.6,0A0.3,0.3,0,1,1,55.8,16.4Z"/><path class="i" d="M57.4,30.5a1.7,1.7,0,0,1-3.4,0A1.7,1.7,0,0,1,57.4,30.5Z"/><path class="a" d="M55.4,29.6a0.4,0.4,0,0,1-.7,0A0.4,0.4,0,1,1,55.4,29.6Z"/><path class="j" d="M53.4,27.5a0.8,0.8,0,0,1-1.6,0A0.8,0.8,0,0,1,53.4,27.5Z"/><path class="a" d="M52.4,27.1l-0.2.2-0.2-.2,0.2-.2Z"/><path class="k" d="M57.3,25.6a0.7,0.7,0,0,1-1.5,0A0.7,0.7,0,0,1,57.3,25.6Z"/><path class="a" d="M56.4,25.3H56.1l0.2-.2Z"/><path class="j" d="M56.2,12.9a1.2,1.2,0,0,1-2.4,0A1.2,1.2,0,0,1,56.2,12.9Z"/><path class="a" d="M54.8,12.3a0.3,0.3,0,0,1-.5,0A0.3,0.3,0,0,1,54.8,12.3Z"/><path class="i" d="M53.4,48.2a1.4,1.4,0,0,1-2.7,0A1.4,1.4,0,0,1,53.4,48.2Z"/><path class="a" d="M51.9,47.5a0.3,0.3,0,0,1-.6,0A0.3,0.3,0,0,1,51.9,47.5Z"/><path class="j" d="M53.7,42.7a1.7,1.7,0,0,1-3.4,0A1.7,1.7,0,0,1,53.7,42.7Z"/><path class="a" d="M51.7,41.9a0.4,0.4,0,0,1-.7,0A0.4,0.4,0,1,1,51.7,41.9Z"/><path class="i" d="M54.8,60.1a0.8,0.8,0,0,1-1.6,0A0.8,0.8,0,0,1,54.8,60.1Z"/><path class="a" d="M53.9,59.7l-0.2.2-0.2-.2,0.2-.2Z"/><path class="h" d="M52.9,38.9a0.7,0.7,0,0,1-1.5,0A0.7,0.7,0,0,1,52.9,38.9Z"/><path class="a" d="M52.1,38.5H51.8l0.2-.2Z"/><path class="k" d="M57.5,35.2a1.4,1.4,0,0,1-2.7,0A1.4,1.4,0,0,1,57.5,35.2Z"/><path class="a" d="M55.9,34.5a0.3,0.3,0,0,1-.6,0A0.3,0.3,0,0,1,55.9,34.5Z"/><path class="h" d="M53.8,9.7a0.8,0.8,0,0,1-1.6,0A0.8,0.8,0,0,1,53.8,9.7Z"/><path class="a" d="M52.8,9.3l-0.2.2-0.2-.2,0.2-.2Z"/><path class="h" d="M51.2,36.5a0.7,0.7,0,0,1-1.5,0A0.7,0.7,0,0,1,51.2,36.5Z"/><path class="a" d="M50.4,36.2H50.1l0.2-.2Z"/><path class="l" d="M54.7,53.4a1.4,1.4,0,0,1-2.7,0A1.4,1.4,0,0,1,54.7,53.4Z"/><path class="a" d="M53.2,52.7a0.3,0.3,0,0,1-.6,0A0.3,0.3,0,1,1,53.2,52.7Z"/><path class="h" d="M57.7,47a1.7,1.7,0,0,1-3.4,0A1.7,1.7,0,0,1,57.7,47Z"/><path class="a" d="M55.8,46.2a0.4,0.4,0,0,1-.7,0A0.4,0.4,0,1,1,55.8,46.2Z"/><path class="k" d="M52.8,58a0.7,0.7,0,0,1-1.5,0A0.7,0.7,0,0,1,52.8,58Z"/><path class="a" d="M51.9,57.7H51.6l0.2-.2Z"/><circle class="m" cx="52.5" cy="33.6" r="1.5"/><circle class="n" cx="53.2" cy="22.3" r="1.5"/><circle class="o" cx="55.8" cy="56.6" r="1.5"/><path class="h" d="M43.9,51.2a6.4,6.4,0,0,1-12.8,0A6.4,6.4,0,0,1,43.9,51.2Z"/><path class="a" d="M36.5,48a1.4,1.4,0,0,1-2.7,0A1.4,1.4,0,0,1,36.5,48Z"/><path class="h" d="M75.3,40.5a3,3,0,0,1-5.9,0A3,3,0,0,1,75.3,40.5Z"/><path class="a" d="M71.8,39.1a0.6,0.6,0,0,1-1.3,0A0.6,0.6,0,1,1,71.8,39.1Z"/><path class="h" d="M75.1,30.8a5.9,5.9,0,0,1-11.8,0A5.9,5.9,0,0,1,75.1,30.8Z"/><path class="a" d="M68.2,27.9a1.3,1.3,0,0,1-2.5,0A1.3,1.3,0,0,1,68.2,27.9Z"/><path class="h" d="M38.3,40.8a3,3,0,0,1-6,0A3,3,0,0,1,38.3,40.8Z"/><path class="a" d="M34.8,39.3a0.6,0.6,0,0,1-1.3,0A0.6,0.6,0,1,1,34.8,39.3Z"/><path class="h" d="M72.8,46.9a2.1,2.1,0,0,1-4.2,0A2.1,2.1,0,0,1,72.8,46.9Z"/><path class="a" d="M70.3,45.9a0.4,0.4,0,0,1-.9,0A0.4,0.4,0,1,1,70.3,45.9Z"/><path class="h" d="M39.9,34.8a2.1,2.1,0,0,1-4.1,0A2.1,2.1,0,0,1,39.9,34.8Z"/><path class="a" d="M37.5,33.8a0.4,0.4,0,0,1-.9,0A0.4,0.4,0,0,1,37.5,33.8Z"/></svg>