<svg xmlns="http://www.w3.org/2000/svg" xmlns:xlink="http://www.w3.org/1999/xlink" viewBox="0 0 108 108"><defs><style>.a{isolation:isolate;}.b{fill:#fff;}.c{fill:#333;}.d{opacity:0.5;mix-blend-mode:multiply;}.e{fill:url(#a);}.f{fill:#fcb415;}.g{fill:#281b03;}</style><linearGradient id="a" x1="32.36" y1="44.11" x2="79.9" y2="44.11" gradientUnits="userSpaceOnUse"><stop offset="0" stop-color="#fff" stop-opacity="0"/><stop offset="1" stop-color="#3d3d3d"/></linearGradient></defs><title>leukedingen-images</title><g class="a"><circle class="b" cx="54" cy="54" r="36"/><circle class="c" cx="54" cy="42" r="25.9" transform="translate(-13.7 32.6) rotate(-30)"/><path class="b" d="M32.7,45.2c-0.8-2.1-.1-8,0.5-10.2l-2.5-.4a24.5,24.5,0,0,0,.8,17.1A15.7,15.7,0,0,1,32.7,45.2Zm8.1,3.1,0.4,1.2A27.5,27.5,0,0,0,43,53.2a18.1,18.1,0,0,0,3.3,4.3,51.8,51.8,0,0,0,10.2.1c2.6-2.4,4.4-7,5-8.9l0.2-.5-0.7-1.2c-1-1.7-2-3.2-2.9-4.7l-1.6-2.6-0.9-.2-2.9-.4a20.5,20.5,0,0,0-7.1.4,53.2,53.2,0,0,0-4.8,8.5h0Zm-9.3,3.4h0ZM57.6,22.9a57.1,57.1,0,0,0-10.5,0l-0.6.7-1.9,2.3a20.5,20.5,0,0,0-3.3,5.9l0.9,1.5,1.3,2.3L45.6,39c3.8-1.1,9.1-.3,10.9.1,1.3-2,2.9-4.1,4.3-6l1.4-1.8a18.8,18.8,0,0,0-2.1-5.2h0A11.1,11.1,0,0,0,57.6,22.9Zm-11.8,35a18.9,18.9,0,0,1-3.3-4.3,28.2,28.2,0,0,1-2.3-5.1,18,18,0,0,1-7-2.7,16.2,16.2,0,0,0-.9,7.4l0.6,1.1a24.5,24.5,0,0,0,6.2,7.1l0.8,0.3a23.5,23.5,0,0,0,4.4,1.1C44.1,61.6,44.6,59.9,45.8,57.9ZM31,33.9h0Zm9.8-2.5c1.2-3.8,4.8-7.8,5.8-8.9a18.1,18.1,0,0,1-1.3-3.3,24.9,24.9,0,0,0-3.3,1.6A24.4,24.4,0,0,0,31,33.9l2.6,0.5C35.5,32.3,38.9,31.6,40.8,31.3Zm36.4,19h0ZM71.5,35.6c0.6,1.9.5,8.1,0,10a16.5,16.5,0,0,1,3.5,6.2l1.1-.8,0.9-.6a24.5,24.5,0,0,0-.5-18l-1.5-1A29.7,29.7,0,0,1,71.5,35.6ZM58.2,22.5a12.3,12.3,0,0,1,2.5,3.3,19.6,19.6,0,0,1,2.2,5.3c1.5,0.4,6.4,2.5,8.2,4a28.6,28.6,0,0,0,3.7-4.4c-0.2-.8-0.4-1.7-0.5-2.6h0a24.4,24.4,0,0,0-12.1-9.2A19.7,19.7,0,0,0,58.2,22.5Zm2.4,41.1a14.9,14.9,0,0,1-6.3,2.9,24.4,24.4,0,0,0,12.1-3.3l2.6-1.7A17.3,17.3,0,0,1,60.5,63.6ZM41,62.8a24.6,24.6,0,0,0,7.5,3.1,15.3,15.3,0,0,1-4-2.4A21.9,21.9,0,0,1,41,62.8ZM71.2,46.1a19.8,19.8,0,0,1-8.8,2.4c-0.6,1.8-2.4,6.8-5.2,9.5l0.3,0.5a49.7,49.7,0,0,0,3.1,4.5c4,0.3,8-1.8,9.1-2.5l0.3-.2a24.9,24.9,0,0,0,4.7-7.9A12.1,12.1,0,0,0,73.2,49,20.1,20.1,0,0,0,71.2,46.1Z"/><g class="d"><path class="e" d="M76.4,29a25.8,25.8,0,0,0-8.2-8.7L69,21.6A25.9,25.9,0,0,1,32.4,56.2,25.9,25.9,0,0,0,76.4,29Z"/></g><rect class="f" x="14" y="82.7" width="79.8" height="18.62" rx="6" ry="6"/><path class="g" d="M26.9,92.9a4.5,4.5,0,0,1-1.8-.9,1.7,1.7,0,0,1-.6-1.3,1.8,1.8,0,0,1,.7-1.4,2.7,2.7,0,0,1,1.8-.6,3,3,0,0,1,1.3.3,2.2,2.2,0,0,1,.9.8,2.1,2.1,0,0,1,.3,1.1h-1a1.3,1.3,0,0,0-.4-1,1.7,1.7,0,0,0-1.2-.4,1.8,1.8,0,0,0-1.1.3,1,1,0,0,0-.4.9,0.9,0.9,0,0,0,.4.8L27.2,92l1.4,0.6a2.2,2.2,0,0,1,.8.7,1.8,1.8,0,0,1,.2,1,1.7,1.7,0,0,1-.7,1.4,3,3,0,0,1-1.9.5,3.4,3.4,0,0,1-1.4-.3,2.4,2.4,0,0,1-1-.8,1.9,1.9,0,0,1-.4-1.1h1a1.3,1.3,0,0,0,.5,1,2.1,2.1,0,0,0,1.3.4,1.9,1.9,0,0,0,1.2-.3,1,1,0,0,0,.4-0.8,1,1,0,0,0-.4-0.8Z"/><path class="g" d="M35.3,93.5a3.3,3.3,0,0,1-.6,2,1.8,1.8,0,0,1-1.5.8,2,2,0,0,1-1.6-.6v2.6H30.7V90.7h0.8v0.6a1.9,1.9,0,0,1,1.6-.7,1.9,1.9,0,0,1,1.5.7,3.3,3.3,0,0,1,.6,2.1h0Zm-0.9-.1a2.4,2.4,0,0,0-.4-1.5,1.3,1.3,0,0,0-1.1-.5,1.4,1.4,0,0,0-1.3.7v2.6a1.4,1.4,0,0,0,1.3.7A1.3,1.3,0,0,0,34,95,2.6,2.6,0,0,0,34.4,93.4Z"/><path class="g" d="M36.2,93.4a3.2,3.2,0,0,1,.3-1.4,2.3,2.3,0,0,1,.9-1,2.4,2.4,0,0,1,1.3-.3,2.3,2.3,0,0,1,1.8.8,3,3,0,0,1,.7,2h0a3.2,3.2,0,0,1-.3,1.4,2.3,2.3,0,0,1-.9,1,2.4,2.4,0,0,1-1.3.4,2.3,2.3,0,0,1-1.8-.8,2.9,2.9,0,0,1-.7-2h0Zm0.9,0.1a2.3,2.3,0,0,0,.4,1.5,1.4,1.4,0,0,0,2.2,0,2.5,2.5,0,0,0,.4-1.6,2.3,2.3,0,0,0-.4-1.5,1.4,1.4,0,0,0-1.1-.6,1.3,1.3,0,0,0-1.1.5A2.5,2.5,0,0,0,37.2,93.5Z"/><path class="g" d="M45,91.6H44.5a1.2,1.2,0,0,0-1.2.8v3.9H42.3V90.7h0.9v0.6a1.4,1.4,0,0,1,1.3-.7H45v0.9Z"/><path class="g" d="M47.3,89.4v1.3h1v0.7h-1v3.4a0.8,0.8,0,0,0,.1.5l0.5,0.2h0.4v0.7H47.7a1.2,1.2,0,0,1-.9-0.4,1.6,1.6,0,0,1-.3-1.1V91.4h-1V90.7h1V89.4h0.9Z"/><path class="g" d="M54.2,96.3a2.4,2.4,0,0,1-1.8-.7,2.7,2.7,0,0,1-.7-1.9V93.4A3.3,3.3,0,0,1,52,92a2.4,2.4,0,0,1,.9-1,2.2,2.2,0,0,1,1.2-.4,2,2,0,0,1,1.6.7,3,3,0,0,1,.6,2v0.4H52.7a1.9,1.9,0,0,0,.5,1.3,1.5,1.5,0,0,0,1.1.5l0.8-.2,0.6-.5,0.6,0.4A2.3,2.3,0,0,1,54.2,96.3Zm-0.1-4.9a1.2,1.2,0,0,0-.9.4,2,2,0,0,0-.5,1.1h2.7a1.8,1.8,0,0,0-.4-1.1A1.2,1.2,0,0,0,54.1,91.4Z"/><path class="g" d="M58.3,90.7v0.7a2,2,0,0,1,1.6-.8q1.7,0,1.7,1.9v3.6H60.8V92.6a1.3,1.3,0,0,0-.3-0.9,1.1,1.1,0,0,0-.8-0.3l-0.8.2a1.6,1.6,0,0,0-.5.6v3.9H57.4V90.7h0.9Z"/><path class="g" d="M68.8,94.7a0.7,0.7,0,0,0-.3-0.6l-1-.4-1.1-.4-0.6-.5a1.2,1.2,0,0,1-.2-0.7,1.4,1.4,0,0,1,.6-1.1,2.2,2.2,0,0,1,1.4-.5,2.3,2.3,0,0,1,1.5.5,1.5,1.5,0,0,1,.6,1.2H68.8a0.8,0.8,0,0,0-.3-0.7,1.2,1.2,0,0,0-.8-0.3l-0.8.2a0.7,0.7,0,0,0-.3.6,0.6,0.6,0,0,0,.3.5l1,0.3,1.1,0.4,0.6,0.5a1.3,1.3,0,0,1,.2.7,1.4,1.4,0,0,1-.6,1.2,2.4,2.4,0,0,1-1.5.4L66.5,96a1.9,1.9,0,0,1-.8-0.6,1.6,1.6,0,0,1-.3-0.9h0.9a1,1,0,0,0,.4.7,1.5,1.5,0,0,0,.9.3l0.8-.2A0.7,0.7,0,0,0,68.8,94.7Z"/><path class="g" d="M75.5,93.5a3.3,3.3,0,0,1-.6,2,1.8,1.8,0,0,1-1.5.8,2,2,0,0,1-1.6-.6v2.6H71V90.7h0.8v0.6a1.9,1.9,0,0,1,1.6-.7,1.9,1.9,0,0,1,1.5.7,3.3,3.3,0,0,1,.6,2.1h0Zm-0.9-.1a2.4,2.4,0,0,0-.4-1.5,1.3,1.3,0,0,0-1.1-.5,1.4,1.4,0,0,0-1.3.7v2.6a1.4,1.4,0,0,0,1.3.7,1.3,1.3,0,0,0,1.1-.5A2.6,2.6,0,0,0,74.6,93.4Z"/><path class="g" d="M79,96.3a2.4,2.4,0,0,1-1.8-.7,2.7,2.7,0,0,1-.7-1.9V93.4a3.3,3.3,0,0,1,.3-1.4,2.4,2.4,0,0,1,.9-1,2.2,2.2,0,0,1,1.2-.4,2,2,0,0,1,1.6.7,3,3,0,0,1,.6,2v0.4H77.4a1.9,1.9,0,0,0,.5,1.3,1.5,1.5,0,0,0,1.1.5l0.8-.2,0.6-.5L81,95.2A2.3,2.3,0,0,1,79,96.3Zm-0.1-4.9a1.2,1.2,0,0,0-.9.4,2,2,0,0,0-.5,1.1h2.7a1.8,1.8,0,0,0-.4-1.1A1.2,1.2,0,0,0,78.9,91.4Z"/><path class="g" d="M83.2,96.2H82.3V88.4h0.9v7.7Z"/></g></svg>