<svg xmlns="http://www.w3.org/2000/svg" xmlns:xlink="http://www.w3.org/1999/xlink" viewBox="0 0 108 108"><defs><style>.a{fill:none;}.b{fill:#fff;}.c{clip-path:url(#a);}.d{fill:#f94f5e;}.e{fill:#c92337;}.f{fill:#fcb415;}.g{fill:#281b03;}</style><clipPath id="a"><rect class="a" x="20.8" y="17" width="69.6" height="57.99"/></clipPath></defs><title>leukedingen-images</title><circle class="b" cx="54" cy="54" r="36"/><g class="c"><path class="d" d="M89.2,23.3a1.2,1.2,0,0,0-.8-0.5h0c-3,1-9.6.9-17.2-.4S57.5,18.9,55,17h0a1.2,1.2,0,0,0-1.4,1l-1,10.8h0.8a5.8,5.8,0,0,1,5.4,3.9,5.5,5.5,0,0,1,3-.9c2.2-.1,3.9.8,4,2.1S64.2,36,62,36.1a5.8,5.8,0,0,1-2.6-.5l1.5,10.9a7.5,7.5,0,0,1,12.8,5.6H73.6L61.3,50.2l0.9,6.9a18.8,18.8,0,0,1,.1,1.9l2.4,0.6A16.2,16.2,0,0,0,83.1,48.1l6.3-23.8a1.2,1.2,0,0,0-.1-0.9h0ZM79.8,37.8c-0.5,1.1-2.4,1.4-4.4.6s-3.3-2.4-2.8-3.5,2.4-1.4,4.5-.6,3.3,2.4,2.8,3.5h0Zm0,0"/><path class="e" d="M54.6,34.4a1.1,1.1,0,0,0-.5-0.8l-0.6-.2H53.2c-2.3,1.9-8.1,4.2-15.3,5.8a59.8,59.8,0,0,1-12.2,1.5,15.8,15.8,0,0,1-4.1-.4h0a1.1,1.1,0,0,0-.7.5,1.1,1.1,0,0,0-.1.9l6.9,22.4A15.4,15.4,0,0,0,42.4,74.8a15.6,15.6,0,0,0,3.3-.4,15.4,15.4,0,0,0,12-16.8ZM30.2,52.7c0-1.2,1.7-2.1,3.7-2.1s3.7,0.9,3.7,2.1-1.7,2.1-3.7,2.1-3.7-.9-3.7-2.1h0Zm14,14.8a7.2,7.2,0,0,1-8.1-4.1,0.4,0.4,0,0,1,0-.4l0.3-.2,13-2.8h0.4a0.4,0.4,0,0,1,.1.3,7.2,7.2,0,0,1-5.7,7.1h0Zm4-15.9c-1.9.8-3.8,0.7-4.2-.4s0.7-2.6,2.5-3.4,3.8-.7,4.2.4-0.6,2.6-2.5,3.4h0Zm0,0"/></g><rect class="f" x="14" y="82.7" width="79.8" height="18.62" rx="6" ry="6"/><path class="g" d="M30.4,95.2a2.2,2.2,0,0,1-1,.8,4.2,4.2,0,0,1-1.5.3,3,3,0,0,1-1.6-.4,2.8,2.8,0,0,1-1.1-1.2,4.1,4.1,0,0,1-.4-1.8V92.2a3.8,3.8,0,0,1,.8-2.6,2.7,2.7,0,0,1,2.2-.9,2.8,2.8,0,0,1,1.8.6,2.5,2.5,0,0,1,.9,1.7h-1a1.6,1.6,0,0,0-1.7-1.5,1.7,1.7,0,0,0-1.5.7,3.3,3.3,0,0,0-.5,2v0.6a3.1,3.1,0,0,0,.6,2,1.8,1.8,0,0,0,1.5.7h0.9l0.7-.4V93.3H27.8V92.5h2.7v2.7Z"/><path class="g" d="M31.9,89.3a0.6,0.6,0,0,1,.1-0.4l0.4-.2,0.4,0.2a0.5,0.5,0,0,1,.1.4,0.5,0.5,0,0,1-.1.4l-0.4.2-0.4-.2A0.5,0.5,0,0,1,31.9,89.3Zm1,6.9H32V90.7h0.9v5.4Z"/><path class="g" d="M35.4,96.2H34.5V88.4h0.9v7.7Z"/><path class="g" d="M40.3,96.2a1.9,1.9,0,0,1-.1-0.6,2.1,2.1,0,0,1-1.5.7,1.9,1.9,0,0,1-1.3-.5,1.5,1.5,0,0,1-.5-1.2,1.5,1.5,0,0,1,.6-1.3,3,3,0,0,1,1.8-.5h0.9V92.4a1,1,0,0,0-.3-0.8,1.2,1.2,0,0,0-.9-0.3,1.4,1.4,0,0,0-.8.3,0.7,0.7,0,0,0-.3.6H36.9a1.3,1.3,0,0,1,.3-0.8,2,2,0,0,1,.8-0.6l1.1-.2a2.1,2.1,0,0,1,1.5.5,1.7,1.7,0,0,1,.6,1.3v2.5a3.1,3.1,0,0,0,.2,1.2h-1Zm-1.5-.7,0.8-.2a1.4,1.4,0,0,0,.6-0.6V93.5H39.4q-1.7,0-1.7,1a0.8,0.8,0,0,0,.3.7A1.1,1.1,0,0,0,38.7,95.5Z"/><path class="g" d="M43.8,89.4v1.3h1v0.7h-1v3.4a0.8,0.8,0,0,0,.1.5l0.5,0.2h0.4v0.7H44.1a1.2,1.2,0,0,1-.9-0.4,1.6,1.6,0,0,1-.3-1.1V91.4h-1V90.7h1V89.4h0.9Z"/><path class="g" d="M53.4,89.6H51.1v6.5h-1V89.6H47.7V88.8h5.7v0.8Z"/><path class="g" d="M55.3,91.4a2,2,0,0,1,1.6-.8q1.7,0,1.7,1.9v3.6H57.7V92.6a1.3,1.3,0,0,0-.3-0.9,1.1,1.1,0,0,0-.8-0.3l-0.8.2a1.6,1.6,0,0,0-.5.6v3.9H54.3V88.4h0.9v2.9Z"/><path class="g" d="M62.3,96.3a2.4,2.4,0,0,1-1.8-.7,2.7,2.7,0,0,1-.7-1.9V93.4a3.3,3.3,0,0,1,.3-1.4,2.4,2.4,0,0,1,.9-1,2.2,2.2,0,0,1,1.2-.4,2,2,0,0,1,1.6.7,3,3,0,0,1,.6,2v0.4H60.7a1.9,1.9,0,0,0,.5,1.3,1.5,1.5,0,0,0,1.1.5l0.8-.2,0.6-.5,0.6,0.4A2.3,2.3,0,0,1,62.3,96.3Zm-0.1-4.9a1.2,1.2,0,0,0-.9.4,2,2,0,0,0-.5,1.1h2.7a1.8,1.8,0,0,0-.4-1.1A1.2,1.2,0,0,0,62.2,91.4Z"/><path class="g" d="M68.8,96.2a1.9,1.9,0,0,1-.1-0.6,2.1,2.1,0,0,1-1.5.7,1.9,1.9,0,0,1-1.3-.5,1.5,1.5,0,0,1-.5-1.2,1.5,1.5,0,0,1,.6-1.3,3,3,0,0,1,1.8-.5h0.9V92.4a1,1,0,0,0-.3-0.8,1.2,1.2,0,0,0-.9-0.3,1.4,1.4,0,0,0-.8.3,0.7,0.7,0,0,0-.3.6H65.4a1.3,1.3,0,0,1,.3-0.8,2,2,0,0,1,.8-0.6l1.1-.2a2.1,2.1,0,0,1,1.5.5,1.7,1.7,0,0,1,.6,1.3v2.5a3.1,3.1,0,0,0,.2,1.2h-1Zm-1.5-.7,0.8-.2a1.4,1.4,0,0,0,.6-0.6V93.5H67.9q-1.7,0-1.7,1a0.8,0.8,0,0,0,.3.7A1.1,1.1,0,0,0,67.3,95.5Z"/><path class="g" d="M72.3,89.4v1.3h1v0.7h-1v3.4a0.8,0.8,0,0,0,.1.5l0.5,0.2h0.4v0.7H72.6a1.2,1.2,0,0,1-.9-0.4,1.6,1.6,0,0,1-.3-1.1V91.4h-1V90.7h1V89.4h0.9Z"/><path class="g" d="M76.7,96.3a2.4,2.4,0,0,1-1.8-.7,2.7,2.7,0,0,1-.7-1.9V93.4a3.3,3.3,0,0,1,.3-1.4,2.4,2.4,0,0,1,.9-1,2.2,2.2,0,0,1,1.2-.4,2,2,0,0,1,1.6.7,3,3,0,0,1,.6,2v0.4H75.1a1.9,1.9,0,0,0,.5,1.3,1.5,1.5,0,0,0,1.1.5l0.8-.2,0.6-.5,0.6,0.4A2.3,2.3,0,0,1,76.7,96.3Zm-0.1-4.9a1.2,1.2,0,0,0-.9.4,2,2,0,0,0-.5,1.1h2.7a1.8,1.8,0,0,0-.4-1.1A1.2,1.2,0,0,0,76.6,91.4Z"/><path class="g" d="M82.5,91.6H82a1.2,1.2,0,0,0-1.2.8v3.9H79.9V90.7h0.9v0.6a1.4,1.4,0,0,1,1.3-.7h0.4v0.9Z"/></svg>