<svg xmlns="http://www.w3.org/2000/svg" viewBox="0 0 108 108"><defs><style>.a{fill:#fff;}.b{opacity:0.87;}.c{fill:#ec2d26;}.d{fill:#f7971f;}.e{fill:#f6eb21;}.f{fill:#309cd7;}.g{fill:#2a4296;}.h{fill:#b54497;}.i{fill:#94278c;}.j{fill:#809e13;}.k{fill:#5b491d;}.l{fill:#4c3d15;}.m{fill:#98c21f;}.n{fill:#fcb415;}.o{fill:#281b03;}</style></defs><title>leukedingen-images</title><circle class="a" cx="54" cy="54" r="36"/><g class="b"><path class="c" d="M55.3,35.6C35,35.6,18.5,52.3,18.4,72.9H22a33.3,33.3,0,1,1,66.5,0h3.7C92.2,52.3,75.6,35.6,55.3,35.6Z"/><path class="d" d="M84.9,72.9h3.7a33.3,33.3,0,1,0-66.5,0h3.7a29.6,29.6,0,1,1,59.2,0h0Z"/><path class="e" d="M55.3,43A29.9,29.9,0,0,0,25.7,72.9h3.7a25.9,25.9,0,1,1,51.9,0h3.7A29.9,29.9,0,0,0,55.3,43Z"/><path class="f" d="M55.3,46.8A26.1,26.1,0,0,0,29.4,72.9h3.7a22.3,22.3,0,1,1,44.5,0h3.7A26.1,26.1,0,0,0,55.3,46.8Z"/><path class="g" d="M55.3,50.5A22.5,22.5,0,0,0,33.1,72.9h3.7a18.6,18.6,0,1,1,37.2,0h3.7A22.5,22.5,0,0,0,55.3,50.5Z"/><path class="h" d="M55.3,54.2A18.7,18.7,0,0,0,36.7,72.9h3.7a14.9,14.9,0,1,1,29.8,0h3.7A18.7,18.7,0,0,0,55.3,54.2Z"/><path class="i" d="M55.3,58A15,15,0,0,0,40.4,72.9h3.3a11.6,11.6,0,0,1,23.3,0h3.3A15,15,0,0,0,55.3,58Z"/></g><circle class="j" cx="38.6" cy="46.9" r="6.6"/><circle class="j" cx="47.1" cy="48.7" r="4.8"/><circle class="j" cx="53.5" cy="49.2" r="4.8"/><circle class="j" cx="61" cy="49.2" r="4.8"/><circle class="j" cx="60.8" cy="45.5" r="4.8"/><circle class="j" cx="53.4" cy="44.8" r="4.8"/><circle class="j" cx="45.1" cy="44.1" r="4.8"/><circle class="j" cx="68.8" cy="47.3" r="6"/><path class="k" d="M44.8,72.9s6.8-2.8,6.8-7.2,0.4-6.1-.6-8.1S38,52.1,38,52.1l1-2.7s7.6,2.9,8.1,2.5-0.4-7.3-.4-7.3l1.9-.5s1.2,7,1.2,8.5,3,3.9,3.4,1.8,0.9-10.2.9-10.2l1.9-.4s-0.3,5,0,5.7,5.8-5.5,5.8-5.5l1.8,1L57,51.7s-0.8,2.5.2,3.5,11.6-8.9,11.6-8.9l-0.3,3s-9.7,8.2-9.8,9.6a44.7,44.7,0,0,0,0,6.1c0.2,4.4,6.2,7.9,6.2,7.9H44.8Z"/><path class="l" d="M68.4,49.3l0.3-3s-6.7,6.3-9.9,8.3a16.5,16.5,0,0,0-2.3,6c-0.7,4.1.3,8.7-1,12.3h9.5s-6-3.5-6.2-7.9a44.7,44.7,0,0,1,0-6.1C58.7,57.5,68.4,49.3,68.4,49.3Z"/><path class="l" d="M46.6,52A67.6,67.6,0,0,1,39,49.5l-0.4,1.1A10,10,0,0,0,46.6,52Z"/><path class="l" d="M51.4,54.9a3.3,3.3,0,0,1-1.6-2.3c0-1.5-1.2-8.5-1.2-8.5l-0.6.2C48.4,47.9,47.9,53,51.4,54.9Z"/><path class="l" d="M56,43.9l-1,.2c0.5,1.7-.1,3.6.9,5.2A46.3,46.3,0,0,1,56,43.9Z"/><path class="m" d="M79.3,37.3a6,6,0,0,0-2.7-10.2,4.7,4.7,0,0,0-4.4-6.5l-1.4.2a4.7,4.7,0,0,0-3.5-2.8,4.7,4.7,0,0,0-6.1-5.8,6.9,6.9,0,0,0-11.8,2.1,5.9,5.9,0,0,0-9.7,2.9,5.9,5.9,0,0,0-8.4,8.1,5.9,5.9,0,0,0-3.7,9.7,6.9,6.9,0,0,0,3.2,13.1h0.3a4.7,4.7,0,0,0,9.1,2.2,4.7,4.7,0,0,0,3-2.8,4.7,4.7,0,0,0,4.1-3.1,4.7,4.7,0,0,0,5.9.5,6,6,0,0,0,8.2,1,4.7,4.7,0,0,0,4.5,3.3h0a4.7,4.7,0,1,0,9.1,1h0.6A6.9,6.9,0,0,0,79.3,37.3Z"/><rect class="n" x="14" y="82.7" width="79.8" height="18.62" rx="6" ry="6"/><path class="o" d="M22.3,93.6H20.8v2.6H20V89.8h2.1a2.5,2.5,0,0,1,1.7.5,1.8,1.8,0,0,1,.6,1.4,1.7,1.7,0,0,1-.3,1,1.9,1.9,0,0,1-.9.7l1.5,2.7H23.7Zm-1.5-.7h1.3a1.5,1.5,0,0,0,1-.3,1.1,1.1,0,0,0,.4-0.9,1.2,1.2,0,0,0-.4-0.9,1.5,1.5,0,0,0-1-.3H20.8v2.4Z"/><path class="o" d="M27.4,96.2a2.1,2.1,0,0,1-1.6-.6,2.4,2.4,0,0,1-.6-1.7h0a2.9,2.9,0,0,1,.3-1.3,2.1,2.1,0,0,1,.8-0.9,1.9,1.9,0,0,1,1.1-.3,1.8,1.8,0,0,1,1.4.6,2.6,2.6,0,0,1,.5,1.8V94H26a1.7,1.7,0,0,0,.4,1.1,1.3,1.3,0,0,0,1,.4l0.7-.2,0.5-.5,0.5,0.4A2,2,0,0,1,27.4,96.2ZM27.3,92a1.1,1.1,0,0,0-.8.4,1.7,1.7,0,0,0-.4,1h2.4a1.5,1.5,0,0,0-.3-1A1,1,0,0,0,27.3,92Z"/><path class="o" d="M30,93.7a2.8,2.8,0,0,1,.5-1.8,1.8,1.8,0,0,1,2.7,0V91.4H34V96a1.9,1.9,0,0,1-.5,1.5A2,2,0,0,1,32,98l-1-.2a1.7,1.7,0,0,1-.8-0.6l0.4-.5a1.6,1.6,0,0,0,1.3.6,1.2,1.2,0,0,0,.9-0.3,1.3,1.3,0,0,0,.3-0.9V95.7a1.7,1.7,0,0,1-1.3.6,1.6,1.6,0,0,1-1.4-.7A2.9,2.9,0,0,1,30,93.7Zm0.8,0.1a2.1,2.1,0,0,0,.3,1.3,1.1,1.1,0,0,0,.9.5,1.2,1.2,0,0,0,1.1-.7V92.7A1.2,1.2,0,0,0,32,92a1.1,1.1,0,0,0-.9.5A2.3,2.3,0,0,0,30.8,93.8Z"/><path class="o" d="M37.2,96.2a2.1,2.1,0,0,1-1.6-.6,2.4,2.4,0,0,1-.6-1.7h0a2.9,2.9,0,0,1,.3-1.3,2.1,2.1,0,0,1,.8-0.9,1.9,1.9,0,0,1,1.1-.3,1.8,1.8,0,0,1,1.4.6,2.6,2.6,0,0,1,.5,1.8V94H35.8a1.7,1.7,0,0,0,.4,1.1,1.3,1.3,0,0,0,1,.4l0.7-.2,0.5-.5L39,95.3A2,2,0,0,1,37.2,96.2ZM37.1,92a1.1,1.1,0,0,0-.8.4,1.7,1.7,0,0,0-.4,1h2.4a1.5,1.5,0,0,0-.3-1A1,1,0,0,0,37.1,92Z"/><path class="o" d="M40.7,91.4V92a1.7,1.7,0,0,1,1.4-.7A1.4,1.4,0,0,1,43.7,93v3.1H42.9V93a1.1,1.1,0,0,0-.2-0.8A0.9,0.9,0,0,0,42,92l-0.7.2-0.5.6v3.4H40V91.4h0.8Z"/><path class="o" d="M49,93.8a2.8,2.8,0,0,1-.5,1.8,1.6,1.6,0,0,1-1.3.7,1.7,1.7,0,0,1-1.4-.6v0.5H44.9V89.4h0.8v2.5a1.7,1.7,0,0,1,1.4-.6,1.6,1.6,0,0,1,1.4.7,2.9,2.9,0,0,1,.5,1.8h0Zm-0.8-.1a2.2,2.2,0,0,0-.3-1.3,1.1,1.1,0,0,0-.9-0.5,1.2,1.2,0,0,0-1.2.7v2.1a1.2,1.2,0,0,0,1.2.7,1.1,1.1,0,0,0,.9-0.5A2.3,2.3,0,0,0,48.2,93.7Z"/><path class="o" d="M49.8,93.7a2.8,2.8,0,0,1,.3-1.3,2,2,0,0,1,.8-0.9,2.1,2.1,0,0,1,1.1-.3,2,2,0,0,1,1.6.7,2.6,2.6,0,0,1,.6,1.8h0a2.8,2.8,0,0,1-.3,1.2,2,2,0,0,1-.8.9,2.1,2.1,0,0,1-1.1.3,2,2,0,0,1-1.6-.7,2.6,2.6,0,0,1-.6-1.8h0Zm0.8,0.1a2,2,0,0,0,.4,1.3,1.2,1.2,0,0,0,2,0,2.2,2.2,0,0,0,.4-1.4,2,2,0,0,0-.4-1.3,1.2,1.2,0,0,0-1-.5,1.2,1.2,0,0,0-1,.5A2.2,2.2,0,0,0,50.6,93.8Z"/><path class="o" d="M54.9,93.7a2.8,2.8,0,0,1,.3-1.3,2,2,0,0,1,.8-0.9,2.1,2.1,0,0,1,1.1-.3,2,2,0,0,1,1.6.7,2.6,2.6,0,0,1,.6,1.8h0a2.8,2.8,0,0,1-.3,1.2,2,2,0,0,1-.8.9,2.1,2.1,0,0,1-1.1.3,2,2,0,0,1-1.6-.7,2.6,2.6,0,0,1-.6-1.8h0Zm0.8,0.1a2,2,0,0,0,.4,1.3,1.2,1.2,0,0,0,2,0,2.2,2.2,0,0,0,.4-1.4,2,2,0,0,0-.4-1.3,1.2,1.2,0,0,0-1-.5,1.2,1.2,0,0,0-1,.5A2.2,2.2,0,0,0,55.7,93.8Z"/><path class="o" d="M60.1,93.7a2.8,2.8,0,0,1,.5-1.8,1.8,1.8,0,0,1,2.7,0V91.4h0.7V96a1.9,1.9,0,0,1-.5,1.5,2,2,0,0,1-1.5.5l-1-.2a1.7,1.7,0,0,1-.8-0.6l0.4-.5a1.6,1.6,0,0,0,1.3.6,1.2,1.2,0,0,0,.9-0.3,1.3,1.3,0,0,0,.3-0.9V95.7a1.7,1.7,0,0,1-1.3.6,1.6,1.6,0,0,1-1.4-.7A2.9,2.9,0,0,1,60.1,93.7Zm0.8,0.1a2.1,2.1,0,0,0,.3,1.3,1.1,1.1,0,0,0,.9.5,1.2,1.2,0,0,0,1.1-.7V92.7a1.2,1.2,0,0,0-1.1-.7,1.1,1.1,0,0,0-.9.5A2.3,2.3,0,0,0,60.9,93.8Z"/><path class="o" d="M69.3,93.8a2.8,2.8,0,0,1-.5,1.8,1.6,1.6,0,0,1-1.3.7,1.7,1.7,0,0,1-1.4-.6v0.5H65.3V89.4h0.8v2.5a1.7,1.7,0,0,1,1.4-.6,1.6,1.6,0,0,1,1.4.7,2.9,2.9,0,0,1,.5,1.8h0Zm-0.8-.1a2.2,2.2,0,0,0-.3-1.3,1.1,1.1,0,0,0-.9-0.5,1.2,1.2,0,0,0-1.2.7v2.1a1.2,1.2,0,0,0,1.2.7,1.1,1.1,0,0,0,.9-0.5A2.3,2.3,0,0,0,68.5,93.7Z"/><path class="o" d="M70.1,93.7a2.8,2.8,0,0,1,.3-1.3,2,2,0,0,1,.8-0.9,2.1,2.1,0,0,1,1.1-.3,2,2,0,0,1,1.6.7,2.6,2.6,0,0,1,.6,1.8h0a2.8,2.8,0,0,1-.3,1.2,2,2,0,0,1-.8.9,2.1,2.1,0,0,1-1.1.3,2,2,0,0,1-1.6-.7,2.6,2.6,0,0,1-.6-1.8h0ZM71,93.8a2,2,0,0,0,.4,1.3,1.2,1.2,0,0,0,2,0,2.2,2.2,0,0,0,.4-1.4,2,2,0,0,0-.4-1.3,1.2,1.2,0,0,0-1-.5,1.2,1.2,0,0,0-1,.5A2.2,2.2,0,0,0,71,93.8Z"/><path class="o" d="M75.3,93.7a2.8,2.8,0,0,1,.3-1.3,2,2,0,0,1,.8-0.9,2.1,2.1,0,0,1,1.1-.3A2,2,0,0,1,79,92a2.6,2.6,0,0,1,.6,1.8h0a2.8,2.8,0,0,1-.3,1.2,2,2,0,0,1-.8.9,2.1,2.1,0,0,1-1.1.3,2,2,0,0,1-1.6-.7,2.6,2.6,0,0,1-.6-1.8h0Zm0.8,0.1a2,2,0,0,0,.4,1.3,1.2,1.2,0,0,0,2,0,2.2,2.2,0,0,0,.4-1.4,2,2,0,0,0-.4-1.3,1.2,1.2,0,0,0-1-.5,1.2,1.2,0,0,0-1,.5A2.2,2.2,0,0,0,76.1,93.8Z"/><path class="o" d="M81.4,91.4v0.5a1.8,1.8,0,0,1,1.4-.6,1.4,1.4,0,0,1,1.4.8l0.6-.6,0.9-.2A1.5,1.5,0,0,1,87.3,93v3.2H86.5V93a1.1,1.1,0,0,0-.2-0.8,1,1,0,0,0-.8-0.3,1.1,1.1,0,0,0-.8.3,1.1,1.1,0,0,0-.3.7v3.2H83.5V93a0.9,0.9,0,0,0-1-1,1.1,1.1,0,0,0-1.1.7v3.5H80.6V91.4h0.8Z"/></svg>